<?xml version="1.0" encoding="UTF-8" standalone="no"?>
<!DOCTYPE svg PUBLIC "-//W3C//DTD SVG 1.1//EN"
 "http://www.w3.org/Graphics/SVG/1.1/DTD/svg11.dtd">
<!-- Generated by graphviz version 2.36.0 (20140111.2315)
 -->
<!-- Title: fifo.test; 1160 samples Pages: 1 -->
<svg width="100%" height="100%"
  xmlns="http://www.w3.org/2000/svg" xmlns:xlink="http://www.w3.org/1999/xlink">
<script type="text/ecmascript"><![CDATA[
// SVGPan
// http://www.cyberz.org/blog/2009/12/08/svgpan-a-javascript-svg-panzoomdrag-library/
// Local modification: if(true || ...) below to force panning, never moving.
// Local modification: add clamping to fix bug in handleMouseWheel.

/**
 *  SVGPan library 1.2
 * ====================
 *
 * Given an unique existing element with id "viewport", including the
 * the library into any SVG adds the following capabilities:
 *
 *  - Mouse panning
 *  - Mouse zooming (using the wheel)
 *  - Object dargging
 *
 * Known issues:
 *
 *  - Zooming (while panning) on Safari has still some issues
 *
 * Releases:
 *
 * 1.2, Sat Mar 20 08:42:50 GMT 2010, Zeng Xiaohui
 *	Fixed a bug with browser mouse handler interaction
 *
 * 1.1, Wed Feb  3 17:39:33 GMT 2010, Zeng Xiaohui
 *	Updated the zoom code to support the mouse wheel on Safari/Chrome
 *
 * 1.0, Andrea Leofreddi
 *	First release
 *
 * This code is licensed under the following BSD license:
 *
 * Copyright 2009-2010 Andrea Leofreddi <a.leofreddi@itcharm.com>. All rights reserved.
 *
 * Redistribution and use in source and binary forms, with or without modification, are
 * permitted provided that the following conditions are met:
 *
 *    1. Redistributions of source code must retain the above copyright notice, this list of
 *       conditions and the following disclaimer.
 *
 *    2. Redistributions in binary form must reproduce the above copyright notice, this list
 *       of conditions and the following disclaimer in the documentation and/or other materials
 *       provided with the distribution.
 *
 * THIS SOFTWARE IS PROVIDED BY Andrea Leofreddi ``AS IS'' AND ANY EXPRESS OR IMPLIED
 * WARRANTIES, INCLUDING, BUT NOT LIMITED TO, THE IMPLIED WARRANTIES OF MERCHANTABILITY AND
 * FITNESS FOR A PARTICULAR PURPOSE ARE DISCLAIMED. IN NO EVENT SHALL Andrea Leofreddi OR
 * CONTRIBUTORS BE LIABLE FOR ANY DIRECT, INDIRECT, INCIDENTAL, SPECIAL, EXEMPLARY, OR
 * CONSEQUENTIAL DAMAGES (INCLUDING, BUT NOT LIMITED TO, PROCUREMENT OF SUBSTITUTE GOODS OR
 * SERVICES; LOSS OF USE, DATA, OR PROFITS; OR BUSINESS INTERRUPTION) HOWEVER CAUSED AND ON
 * ANY THEORY OF LIABILITY, WHETHER IN CONTRACT, STRICT LIABILITY, OR TORT (INCLUDING
 * NEGLIGENCE OR OTHERWISE) ARISING IN ANY WAY OUT OF THE USE OF THIS SOFTWARE, EVEN IF
 * ADVISED OF THE POSSIBILITY OF SUCH DAMAGE.
 *
 * The views and conclusions contained in the software and documentation are those of the
 * authors and should not be interpreted as representing official policies, either expressed
 * or implied, of Andrea Leofreddi.
 */

var root = document.documentElement;

var state = 'none', stateTarget, stateOrigin, stateTf;

setupHandlers(root);

/**
 * Register handlers
 */
function setupHandlers(root){
	setAttributes(root, {
		"onmouseup" : "add(evt)",
		"onmousedown" : "handleMouseDown(evt)",
		"onmousemove" : "handleMouseMove(evt)",
		"onmouseup" : "handleMouseUp(evt)",
		//"onmouseout" : "handleMouseUp(evt)", // Decomment this to stop the pan functionality when dragging out of the SVG element
	});

	if(navigator.userAgent.toLowerCase().indexOf('webkit') >= 0)
		window.addEventListener('mousewheel', handleMouseWheel, false); // Chrome/Safari
	else
		window.addEventListener('DOMMouseScroll', handleMouseWheel, false); // Others

	var g = svgDoc.getElementById("svg");
	g.width = "100%";
	g.height = "100%";
}

/**
 * Instance an SVGPoint object with given event coordinates.
 */
function getEventPoint(evt) {
	var p = root.createSVGPoint();

	p.x = evt.clientX;
	p.y = evt.clientY;

	return p;
}

/**
 * Sets the current transform matrix of an element.
 */
function setCTM(element, matrix) {
	var s = "matrix(" + matrix.a + "," + matrix.b + "," + matrix.c + "," + matrix.d + "," + matrix.e + "," + matrix.f + ")";

	element.setAttribute("transform", s);
}

/**
 * Dumps a matrix to a string (useful for debug).
 */
function dumpMatrix(matrix) {
	var s = "[ " + matrix.a + ", " + matrix.c + ", " + matrix.e + "\n  " + matrix.b + ", " + matrix.d + ", " + matrix.f + "\n  0, 0, 1 ]";

	return s;
}

/**
 * Sets attributes of an element.
 */
function setAttributes(element, attributes){
	for (i in attributes)
		element.setAttributeNS(null, i, attributes[i]);
}

/**
 * Handle mouse move event.
 */
function handleMouseWheel(evt) {
	if(evt.preventDefault)
		evt.preventDefault();

	evt.returnValue = false;

	var svgDoc = evt.target.ownerDocument;

	var delta;

	if(evt.wheelDelta)
		delta = evt.wheelDelta / 3600; // Chrome/Safari
	else
		delta = evt.detail / -90; // Mozilla

	var z = 1 + delta; // Zoom factor: 0.9/1.1

	// Clamp to reasonable values.
	// The 0.1 check is important because
	// a very large scroll can turn into a
	// negative z, which rotates the image 180 degrees.
	if(z < 0.1)
		z = 0.1;
	if(z > 10.0)
		z = 10.0;

	var g = svgDoc.getElementById("viewport");

	var p = getEventPoint(evt);

	p = p.matrixTransform(g.getCTM().inverse());

	// Compute new scale matrix in current mouse position
	var k = root.createSVGMatrix().translate(p.x, p.y).scale(z).translate(-p.x, -p.y);

        setCTM(g, g.getCTM().multiply(k));

	stateTf = stateTf.multiply(k.inverse());
}

/**
 * Handle mouse move event.
 */
function handleMouseMove(evt) {
	if(evt.preventDefault)
		evt.preventDefault();

	evt.returnValue = false;

	var svgDoc = evt.target.ownerDocument;

	var g = svgDoc.getElementById("viewport");

	if(state == 'pan') {
		// Pan mode
		var p = getEventPoint(evt).matrixTransform(stateTf);

		setCTM(g, stateTf.inverse().translate(p.x - stateOrigin.x, p.y - stateOrigin.y));
	} else if(state == 'move') {
		// Move mode
		var p = getEventPoint(evt).matrixTransform(g.getCTM().inverse());

		setCTM(stateTarget, root.createSVGMatrix().translate(p.x - stateOrigin.x, p.y - stateOrigin.y).multiply(g.getCTM().inverse()).multiply(stateTarget.getCTM()));

		stateOrigin = p;
	}
}

/**
 * Handle click event.
 */
function handleMouseDown(evt) {
	if(evt.preventDefault)
		evt.preventDefault();

	evt.returnValue = false;

	var svgDoc = evt.target.ownerDocument;

	var g = svgDoc.getElementById("viewport");

	if(true || evt.target.tagName == "svg") {
		// Pan mode
		state = 'pan';

		stateTf = g.getCTM().inverse();

		stateOrigin = getEventPoint(evt).matrixTransform(stateTf);
	} else {
		// Move mode
		state = 'move';

		stateTarget = evt.target;

		stateTf = g.getCTM().inverse();

		stateOrigin = getEventPoint(evt).matrixTransform(stateTf);
	}
}

/**
 * Handle mouse button release event.
 */
function handleMouseUp(evt) {
	if(evt.preventDefault)
		evt.preventDefault();

	evt.returnValue = false;

	var svgDoc = evt.target.ownerDocument;

	if(state == 'pan' || state == 'move') {
		// Quit pan mode
		state = '';
	}
}

]]></script>
<g id="viewport" transform="translate(0,0)">
<g id="viewport" class="graph" transform="scale(1 1) rotate(0) translate(4 1842)">
<title>fifo.test; 1160 samples</title>
<polygon fill="white" stroke="none" points="-4,4 -4,-1842 1176,-1842 1176,4 -4,4"/>
<!-- Legend -->
<g id="node1" class="node"><title>Legend</title>
<text text-anchor="start" x="8" y="-1814.8" font-family="Times,serif" font-size="24.00">fifo.test</text>
<text text-anchor="start" x="8" y="-1788.8" font-family="Times,serif" font-size="24.00">Total samples: 1160</text>
<text text-anchor="start" x="8" y="-1762.8" font-family="Times,serif" font-size="24.00">Focusing on: 1160</text>
<text text-anchor="start" x="8" y="-1736.8" font-family="Times,serif" font-size="24.00">Dropped nodes with &lt;= 5 abs(samples)</text>
<text text-anchor="start" x="8" y="-1710.8" font-family="Times,serif" font-size="24.00">Dropped edges with &lt;= 1 samples</text>
</g>
<!-- N1 -->
<g id="node2" class="node"><title>N1</title>
<polygon fill="none" stroke="black" points="703.25,-173.5 638.75,-173.5 638.75,-138.5 703.25,-138.5 703.25,-173.5"/>
<text text-anchor="middle" x="671" y="-163.1" font-family="Times,serif" font-size="8.00">System</text>
<text text-anchor="end" x="695.5" y="-154.1" font-family="Times,serif" font-size="8.00">0 (0.0%)</text>
<text text-anchor="end" x="695.5" y="-145.1" font-family="Times,serif" font-size="8.00">of 657 (56.6%)</text>
</g>
<!-- N3 -->
<g id="node4" class="node"><title>N3</title>
<polygon fill="none" stroke="black" points="783,-86 559,-86 559,-0 783,-0 783,-86"/>
<text text-anchor="middle" x="671" y="-53.92" font-family="Times,serif" font-size="35.10">runtime.usleep</text>
<text text-anchor="end" x="775" y="-14.92" font-family="Times,serif" font-size="35.10">340 (29.3%)</text>
</g>
<!-- N1&#45;&gt;N3 -->
<g id="edge32" class="edge"><title>N1&#45;&gt;N3</title>
<path fill="none" stroke="black" stroke-width="1.75862" d="M671,-138.141C671,-127.005 671,-111.748 671,-96.7576"/>
<polygon fill="black" stroke="black" stroke-width="1.75862" points="674.5,-96.4766 671,-86.4766 667.5,-96.4767 674.5,-96.4766"/>
<text text-anchor="middle" x="682" y="-108.3" font-family="Times,serif" font-size="14.00">340</text>
</g>
<!-- N18 -->
<g id="node19" class="node"><title>N18</title>
<polygon fill="none" stroke="black" points="1172.25,-78 801.75,-78 801.75,-8 1172.25,-8 1172.25,-78"/>
<text text-anchor="middle" x="987" y="-51.44" font-family="Times,serif" font-size="28.20">runtime.mach_semaphore_wait</text>
<text text-anchor="end" x="1164.5" y="-20.44" font-family="Times,serif" font-size="28.20">190 (16.4%)</text>
</g>
<!-- N1&#45;&gt;N18 -->
<g id="edge31" class="edge"><title>N1&#45;&gt;N18</title>
<path fill="none" stroke="black" d="M703.333,-143.643C744.777,-129.085 818.686,-103.123 880.671,-81.3497"/>
<polygon fill="black" stroke="black" points="881.842,-84.6481 890.117,-78.0317 879.522,-78.0437 881.842,-84.6481"/>
<text text-anchor="middle" x="821" y="-108.3" font-family="Times,serif" font-size="14.00">190</text>
</g>
<!-- N21 -->
<g id="node22" class="node"><title>N21</title>
<polygon fill="none" stroke="black" points="541,-75 191,-75 191,-11 541,-11 541,-75"/>
<text text-anchor="middle" x="366" y="-50.84" font-family="Times,serif" font-size="25.20">runtime.mach_semaphore_signal</text>
<text text-anchor="end" x="533" y="-22.84" font-family="Times,serif" font-size="25.20">137 (11.8%)</text>
</g>
<!-- N1&#45;&gt;N21 -->
<g id="edge28" class="edge"><title>N1&#45;&gt;N21</title>
<path fill="none" stroke="black" d="M638.648,-143.226C596.664,-127.947 521.593,-100.626 460.839,-78.5153"/>
<polygon fill="black" stroke="black" points="461.813,-75.1451 451.219,-75.0141 459.419,-81.723 461.813,-75.1451"/>
<text text-anchor="middle" x="583" y="-108.3" font-family="Times,serif" font-size="14.00">123</text>
</g>
<!-- N2 -->
<g id="node3" class="node"><title>N2</title>
<polygon fill="none" stroke="black" points="486,-1786.5 412,-1786.5 412,-1751.5 486,-1751.5 486,-1786.5"/>
<text text-anchor="middle" x="449" y="-1776.1" font-family="Times,serif" font-size="8.00">runtime.gosched0</text>
<text text-anchor="end" x="478" y="-1767.1" font-family="Times,serif" font-size="8.00">0 (0.0%)</text>
<text text-anchor="end" x="478" y="-1758.1" font-family="Times,serif" font-size="8.00">of 503 (43.4%)</text>
</g>
<!-- N5 -->
<g id="node6" class="node"><title>N5</title>
<polygon fill="none" stroke="black" points="491,-1647.5 407,-1647.5 407,-1612.5 491,-1612.5 491,-1647.5"/>
<text text-anchor="middle" x="449" y="-1637.1" font-family="Times,serif" font-size="8.00">clive/nchan.func·004</text>
<text text-anchor="end" x="483" y="-1628.1" font-family="Times,serif" font-size="8.00">0 (0.0%)</text>
<text text-anchor="end" x="483" y="-1619.1" font-family="Times,serif" font-size="8.00">of 288 (24.8%)</text>
</g>
<!-- N2&#45;&gt;N5 -->
<g id="edge21" class="edge"><title>N2&#45;&gt;N5</title>
<path fill="none" stroke="black" stroke-width="1.48965" d="M449,-1751.47C449,-1728.23 449,-1685.61 449,-1657.8"/>
<polygon fill="black" stroke="black" stroke-width="1.48965" points="452.5,-1657.58 449,-1647.58 445.5,-1657.58 452.5,-1657.58"/>
<text text-anchor="middle" x="460" y="-1670.3" font-family="Times,serif" font-size="14.00">288</text>
</g>
<!-- N12 -->
<g id="node13" class="node"><title>N12</title>
<polygon fill="none" stroke="black" points="580,-1593.5 496,-1593.5 496,-1558.5 580,-1558.5 580,-1593.5"/>
<text text-anchor="middle" x="538" y="-1583.1" font-family="Times,serif" font-size="8.00">clive/nchan.func·003</text>
<text text-anchor="end" x="572" y="-1574.1" font-family="Times,serif" font-size="8.00">0 (0.0%)</text>
<text text-anchor="end" x="572" y="-1565.1" font-family="Times,serif" font-size="8.00">of 213 (18.4%)</text>
</g>
<!-- N2&#45;&gt;N12 -->
<g id="edge23" class="edge"><title>N2&#45;&gt;N12</title>
<path fill="none" stroke="black" stroke-width="1.10172" d="M456.742,-1751.38C472.292,-1718.01 507.414,-1642.64 525.978,-1602.8"/>
<polygon fill="black" stroke="black" stroke-width="1.10172" points="529.161,-1604.26 530.212,-1593.71 522.816,-1601.3 529.161,-1604.26"/>
<text text-anchor="middle" x="506" y="-1670.3" font-family="Times,serif" font-size="14.00">213</text>
</g>
<!-- N4 -->
<g id="node5" class="node"><title>N4</title>
<polygon fill="none" stroke="black" points="502,-1539.5 396,-1539.5 396,-1504.5 502,-1504.5 502,-1539.5"/>
<text text-anchor="middle" x="449" y="-1529.1" font-family="Times,serif" font-size="8.00">clive/nchan.ReadMsgsFrom</text>
<text text-anchor="end" x="494" y="-1520.1" font-family="Times,serif" font-size="8.00">0 (0.0%)</text>
<text text-anchor="end" x="494" y="-1511.1" font-family="Times,serif" font-size="8.00">of 288 (24.8%)</text>
</g>
<!-- N8 -->
<g id="node9" class="node"><title>N8</title>
<polygon fill="none" stroke="black" points="481.25,-1451.5 416.75,-1451.5 416.75,-1416.5 481.25,-1416.5 481.25,-1451.5"/>
<text text-anchor="middle" x="449" y="-1441.1" font-family="Times,serif" font-size="8.00">io.ReadFull</text>
<text text-anchor="end" x="473.5" y="-1432.1" font-family="Times,serif" font-size="8.00">0 (0.0%)</text>
<text text-anchor="end" x="473.5" y="-1423.1" font-family="Times,serif" font-size="8.00">of 286 (24.7%)</text>
</g>
<!-- N4&#45;&gt;N8 -->
<g id="edge15" class="edge"><title>N4&#45;&gt;N8</title>
<path fill="none" stroke="black" stroke-width="1.47931" d="M449,-1504.42C449,-1492.28 449,-1475.56 449,-1461.58"/>
<polygon fill="black" stroke="black" stroke-width="1.47931" points="452.5,-1461.53 449,-1451.53 445.5,-1461.53 452.5,-1461.53"/>
<text text-anchor="middle" x="460" y="-1474.3" font-family="Times,serif" font-size="14.00">286</text>
</g>
<!-- N5&#45;&gt;N4 -->
<g id="edge30" class="edge"><title>N5&#45;&gt;N4</title>
<path fill="none" stroke="black" stroke-width="1.48965" d="M449,-1612.44C449,-1595.73 449,-1569.67 449,-1549.98"/>
<polygon fill="black" stroke="black" stroke-width="1.48965" points="452.5,-1549.8 449,-1539.8 445.5,-1549.8 452.5,-1549.8"/>
<text text-anchor="middle" x="460" y="-1572.3" font-family="Times,serif" font-size="14.00">288</text>
</g>
<!-- N6 -->
<g id="node7" class="node"><title>N6</title>
<polygon fill="none" stroke="black" points="491.25,-1275.5 406.75,-1275.5 406.75,-1240.5 491.25,-1240.5 491.25,-1275.5"/>
<text text-anchor="middle" x="449" y="-1265.1" font-family="Times,serif" font-size="8.00">bufio.(*Reader).Read</text>
<text text-anchor="end" x="483.5" y="-1256.1" font-family="Times,serif" font-size="8.00">0 (0.0%)</text>
<text text-anchor="end" x="483.5" y="-1247.1" font-family="Times,serif" font-size="8.00">of 286 (24.7%)</text>
</g>
<!-- N9 -->
<g id="node10" class="node"><title>N9</title>
<polygon fill="none" stroke="black" points="681,-1188 423,-1188 423,-1110 681,-1110 681,-1188"/>
<text text-anchor="middle" x="552" y="-1158.48" font-family="Times,serif" font-size="31.90">runtime.memmove</text>
<text text-anchor="end" x="673" y="-1123.48" font-family="Times,serif" font-size="31.90">266 (22.9%)</text>
</g>
<!-- N6&#45;&gt;N9 -->
<g id="edge33" class="edge"><title>N6&#45;&gt;N9</title>
<path fill="none" stroke="black" d="M465.094,-1240.28C476.673,-1228.25 492.881,-1211.41 508.167,-1195.54"/>
<polygon fill="black" stroke="black" points="510.692,-1197.96 515.106,-1188.33 505.649,-1193.1 510.692,-1197.96"/>
<text text-anchor="middle" x="504.5" y="-1210.3" font-family="Times,serif" font-size="14.00">77</text>
</g>
<!-- N13 -->
<g id="node14" class="node"><title>N13</title>
<polygon fill="none" stroke="black" points="405,-1166.5 327,-1166.5 327,-1131.5 405,-1131.5 405,-1166.5"/>
<text text-anchor="middle" x="366" y="-1156.1" font-family="Times,serif" font-size="8.00">bufio.(*Reader).fill</text>
<text text-anchor="end" x="397" y="-1147.1" font-family="Times,serif" font-size="8.00">0 (0.0%)</text>
<text text-anchor="end" x="397" y="-1138.1" font-family="Times,serif" font-size="8.00">of 209 (18.0%)</text>
</g>
<!-- N6&#45;&gt;N13 -->
<g id="edge5" class="edge"><title>N6&#45;&gt;N13</title>
<path fill="none" stroke="black" stroke-width="1.08103" d="M436.031,-1240.28C422.387,-1222.69 400.769,-1194.82 385.159,-1174.7"/>
<polygon fill="black" stroke="black" stroke-width="1.08103" points="387.772,-1172.36 378.878,-1166.6 382.241,-1176.65 387.772,-1172.36"/>
<text text-anchor="middle" x="430" y="-1210.3" font-family="Times,serif" font-size="14.00">209</text>
</g>
<!-- N7 -->
<g id="node8" class="node"><title>N7</title>
<polygon fill="none" stroke="black" points="482,-1363.5 416,-1363.5 416,-1328.5 482,-1328.5 482,-1363.5"/>
<text text-anchor="middle" x="449" y="-1353.1" font-family="Times,serif" font-size="8.00">io.ReadAtLeast</text>
<text text-anchor="end" x="474" y="-1344.1" font-family="Times,serif" font-size="8.00">0 (0.0%)</text>
<text text-anchor="end" x="474" y="-1335.1" font-family="Times,serif" font-size="8.00">of 286 (24.7%)</text>
</g>
<!-- N7&#45;&gt;N6 -->
<g id="edge26" class="edge"><title>N7&#45;&gt;N6</title>
<path fill="none" stroke="black" stroke-width="1.47931" d="M449,-1328.42C449,-1316.28 449,-1299.56 449,-1285.58"/>
<polygon fill="black" stroke="black" stroke-width="1.47931" points="452.5,-1285.53 449,-1275.53 445.5,-1285.53 452.5,-1285.53"/>
<text text-anchor="middle" x="460" y="-1298.3" font-family="Times,serif" font-size="14.00">286</text>
</g>
<!-- N8&#45;&gt;N7 -->
<g id="edge29" class="edge"><title>N8&#45;&gt;N7</title>
<path fill="none" stroke="black" stroke-width="1.47931" d="M449,-1416.42C449,-1404.28 449,-1387.56 449,-1373.58"/>
<polygon fill="black" stroke="black" stroke-width="1.47931" points="452.5,-1373.53 449,-1363.53 445.5,-1373.53 452.5,-1373.53"/>
<text text-anchor="middle" x="460" y="-1386.3" font-family="Times,serif" font-size="14.00">286</text>
</g>
<!-- N10 -->
<g id="node11" class="node"><title>N10</title>
<polygon fill="none" stroke="black" points="464.25,-685.5 267.75,-685.5 267.75,-578.5 464.25,-578.5 464.25,-685.5"/>
<text text-anchor="middle" x="366" y="-657.74" font-family="Times,serif" font-size="29.70">syscall.Syscall</text>
<text text-anchor="end" x="456.5" y="-624.74" font-family="Times,serif" font-size="29.70">219 (18.9%)</text>
<text text-anchor="end" x="456.5" y="-591.74" font-family="Times,serif" font-size="29.70">of 233 (20.1%)</text>
</g>
<!-- N29 -->
<g id="node30" class="node"><title>N29</title>
<polygon fill="none" stroke="black" points="404.25,-525.5 327.75,-525.5 327.75,-490.5 404.25,-490.5 404.25,-525.5"/>
<text text-anchor="middle" x="366" y="-515.1" font-family="Times,serif" font-size="8.00">runtime.exitsyscall</text>
<text text-anchor="end" x="396.5" y="-506.1" font-family="Times,serif" font-size="8.00">0 (0.0%)</text>
<text text-anchor="end" x="396.5" y="-497.1" font-family="Times,serif" font-size="8.00">of 14 (1.2%)</text>
</g>
<!-- N10&#45;&gt;N29 -->
<g id="edge17" class="edge"><title>N10&#45;&gt;N29</title>
<path fill="none" stroke="black" d="M366,-578.199C366,-563.555 366,-548.269 366,-535.801"/>
<polygon fill="black" stroke="black" points="369.5,-535.655 366,-525.655 362.5,-535.655 369.5,-535.655"/>
<text text-anchor="middle" x="373.5" y="-548.3" font-family="Times,serif" font-size="14.00">14</text>
</g>
<!-- N11 -->
<g id="node12" class="node"><title>N11</title>
<polygon fill="none" stroke="black" points="602,-1451.5 502,-1451.5 502,-1416.5 602,-1416.5 602,-1451.5"/>
<text text-anchor="middle" x="552" y="-1441.1" font-family="Times,serif" font-size="8.00">clive/nchan.WriteMsgsTo</text>
<text text-anchor="end" x="594" y="-1432.1" font-family="Times,serif" font-size="8.00">0 (0.0%)</text>
<text text-anchor="end" x="594" y="-1423.1" font-family="Times,serif" font-size="8.00">of 213 (18.4%)</text>
</g>
<!-- N20 -->
<g id="node21" class="node"><title>N20</title>
<polygon fill="none" stroke="black" points="595,-1363.5 509,-1363.5 509,-1328.5 595,-1328.5 595,-1363.5"/>
<text text-anchor="middle" x="552" y="-1353.1" font-family="Times,serif" font-size="8.00">clive/nchan.writeMsg</text>
<text text-anchor="end" x="587" y="-1344.1" font-family="Times,serif" font-size="8.00">0 (0.0%)</text>
<text text-anchor="end" x="587" y="-1335.1" font-family="Times,serif" font-size="8.00">of 189 (16.3%)</text>
</g>
<!-- N11&#45;&gt;N20 -->
<g id="edge1" class="edge"><title>N11&#45;&gt;N20</title>
<path fill="none" stroke="black" d="M552,-1416.42C552,-1404.28 552,-1387.56 552,-1373.58"/>
<polygon fill="black" stroke="black" points="555.5,-1373.53 552,-1363.53 548.5,-1373.53 555.5,-1373.53"/>
<text text-anchor="middle" x="563" y="-1386.3" font-family="Times,serif" font-size="14.00">189</text>
</g>
<!-- N22 -->
<g id="node23" class="node"><title>N22</title>
<polygon fill="none" stroke="black" points="717.25,-1363.5 632.75,-1363.5 632.75,-1328.5 717.25,-1328.5 717.25,-1363.5"/>
<text text-anchor="middle" x="675" y="-1353.1" font-family="Times,serif" font-size="8.00">bufio.(*Writer).Flush</text>
<text text-anchor="end" x="709.5" y="-1344.1" font-family="Times,serif" font-size="8.00">0 (0.0%)</text>
<text text-anchor="end" x="709.5" y="-1335.1" font-family="Times,serif" font-size="8.00">of 24 (2.1%)</text>
</g>
<!-- N11&#45;&gt;N22 -->
<g id="edge20" class="edge"><title>N11&#45;&gt;N22</title>
<path fill="none" stroke="black" d="M575.716,-1416.42C594.859,-1403.03 621.976,-1384.07 643.035,-1369.35"/>
<polygon fill="black" stroke="black" points="645.167,-1372.13 651.357,-1363.53 641.156,-1366.39 645.167,-1372.13"/>
<text text-anchor="middle" x="631.5" y="-1386.3" font-family="Times,serif" font-size="14.00">24</text>
</g>
<!-- N12&#45;&gt;N11 -->
<g id="edge24" class="edge"><title>N12&#45;&gt;N11</title>
<path fill="none" stroke="black" stroke-width="1.10172" d="M539.661,-1558.39C542.05,-1534.5 546.482,-1490.18 549.333,-1461.67"/>
<polygon fill="black" stroke="black" stroke-width="1.10172" points="552.829,-1461.89 550.341,-1451.59 545.863,-1461.19 552.829,-1461.89"/>
<text text-anchor="middle" x="556" y="-1518.3" font-family="Times,serif" font-size="14.00">213</text>
</g>
<!-- N14 -->
<g id="node15" class="node"><title>N14</title>
<polygon fill="none" stroke="black" points="399,-1057.5 333,-1057.5 333,-1022.5 399,-1022.5 399,-1057.5"/>
<text text-anchor="middle" x="366" y="-1047.1" font-family="Times,serif" font-size="8.00">os.(*File).Read</text>
<text text-anchor="end" x="391" y="-1038.1" font-family="Times,serif" font-size="8.00">0 (0.0%)</text>
<text text-anchor="end" x="391" y="-1029.1" font-family="Times,serif" font-size="8.00">of 209 (18.0%)</text>
</g>
<!-- N13&#45;&gt;N14 -->
<g id="edge16" class="edge"><title>N13&#45;&gt;N14</title>
<path fill="none" stroke="black" stroke-width="1.08103" d="M366,-1131.28C366,-1114.24 366,-1087.55 366,-1067.61"/>
<polygon fill="black" stroke="black" stroke-width="1.08103" points="369.5,-1067.6 366,-1057.6 362.5,-1067.6 369.5,-1067.6"/>
<text text-anchor="middle" x="377" y="-1080.3" font-family="Times,serif" font-size="14.00">209</text>
</g>
<!-- N15 -->
<g id="node16" class="node"><title>N15</title>
<polygon fill="none" stroke="black" points="398.25,-969.5 333.75,-969.5 333.75,-934.5 398.25,-934.5 398.25,-969.5"/>
<text text-anchor="middle" x="366" y="-959.1" font-family="Times,serif" font-size="8.00">os.(*File).read</text>
<text text-anchor="end" x="390.5" y="-950.1" font-family="Times,serif" font-size="8.00">0 (0.0%)</text>
<text text-anchor="end" x="390.5" y="-941.1" font-family="Times,serif" font-size="8.00">of 209 (18.0%)</text>
</g>
<!-- N14&#45;&gt;N15 -->
<g id="edge6" class="edge"><title>N14&#45;&gt;N15</title>
<path fill="none" stroke="black" stroke-width="1.08103" d="M366,-1022.42C366,-1010.28 366,-993.564 366,-979.575"/>
<polygon fill="black" stroke="black" stroke-width="1.08103" points="369.5,-979.531 366,-969.531 362.5,-979.531 369.5,-979.531"/>
<text text-anchor="middle" x="377" y="-992.3" font-family="Times,serif" font-size="14.00">209</text>
</g>
<!-- N16 -->
<g id="node17" class="node"><title>N16</title>
<polygon fill="none" stroke="black" points="398.25,-881.5 333.75,-881.5 333.75,-846.5 398.25,-846.5 398.25,-881.5"/>
<text text-anchor="middle" x="366" y="-871.1" font-family="Times,serif" font-size="8.00">syscall.Read</text>
<text text-anchor="end" x="390.5" y="-862.1" font-family="Times,serif" font-size="8.00">0 (0.0%)</text>
<text text-anchor="end" x="390.5" y="-853.1" font-family="Times,serif" font-size="8.00">of 209 (18.0%)</text>
</g>
<!-- N15&#45;&gt;N16 -->
<g id="edge2" class="edge"><title>N15&#45;&gt;N16</title>
<path fill="none" stroke="black" stroke-width="1.08103" d="M366,-934.418C366,-922.283 366,-905.564 366,-891.575"/>
<polygon fill="black" stroke="black" stroke-width="1.08103" points="369.5,-891.531 366,-881.531 362.5,-891.531 369.5,-891.531"/>
<text text-anchor="middle" x="377" y="-904.3" font-family="Times,serif" font-size="14.00">209</text>
</g>
<!-- N17 -->
<g id="node18" class="node"><title>N17</title>
<polygon fill="none" stroke="black" points="398.25,-773.5 333.75,-773.5 333.75,-738.5 398.25,-738.5 398.25,-773.5"/>
<text text-anchor="middle" x="366" y="-763.1" font-family="Times,serif" font-size="8.00">syscall.read</text>
<text text-anchor="end" x="390.5" y="-754.1" font-family="Times,serif" font-size="8.00">0 (0.0%)</text>
<text text-anchor="end" x="390.5" y="-745.1" font-family="Times,serif" font-size="8.00">of 209 (18.0%)</text>
</g>
<!-- N16&#45;&gt;N17 -->
<g id="edge19" class="edge"><title>N16&#45;&gt;N17</title>
<path fill="none" stroke="black" stroke-width="1.08103" d="M366,-846.438C366,-829.733 366,-803.67 366,-783.98"/>
<polygon fill="black" stroke="black" stroke-width="1.08103" points="369.5,-783.796 366,-773.796 362.5,-783.796 369.5,-783.796"/>
<text text-anchor="middle" x="377" y="-806.3" font-family="Times,serif" font-size="14.00">209</text>
</g>
<!-- N17&#45;&gt;N10 -->
<g id="edge8" class="edge"><title>N17&#45;&gt;N10</title>
<path fill="none" stroke="black" stroke-width="1.08103" d="M366,-738.292C366,-727.104 366,-711.602 366,-695.931"/>
<polygon fill="black" stroke="black" stroke-width="1.08103" points="369.5,-695.651 366,-685.651 362.5,-695.651 369.5,-695.651"/>
<text text-anchor="middle" x="377" y="-708.3" font-family="Times,serif" font-size="14.00">209</text>
</g>
<!-- N19 -->
<g id="node20" class="node"><title>N19</title>
<polygon fill="none" stroke="black" points="594.25,-1275.5 509.75,-1275.5 509.75,-1240.5 594.25,-1240.5 594.25,-1275.5"/>
<text text-anchor="middle" x="552" y="-1265.1" font-family="Times,serif" font-size="8.00">bufio.(*Writer).Write</text>
<text text-anchor="end" x="586.5" y="-1256.1" font-family="Times,serif" font-size="8.00">0 (0.0%)</text>
<text text-anchor="end" x="586.5" y="-1247.1" font-family="Times,serif" font-size="8.00">of 189 (16.3%)</text>
</g>
<!-- N19&#45;&gt;N9 -->
<g id="edge9" class="edge"><title>N19&#45;&gt;N9</title>
<path fill="none" stroke="black" d="M552,-1240.28C552,-1229.01 552,-1213.52 552,-1198.55"/>
<polygon fill="black" stroke="black" points="555.5,-1198.33 552,-1188.33 548.5,-1198.33 555.5,-1198.33"/>
<text text-anchor="middle" x="563" y="-1210.3" font-family="Times,serif" font-size="14.00">189</text>
</g>
<!-- N20&#45;&gt;N19 -->
<g id="edge4" class="edge"><title>N20&#45;&gt;N19</title>
<path fill="none" stroke="black" d="M552,-1328.42C552,-1316.28 552,-1299.56 552,-1285.58"/>
<polygon fill="black" stroke="black" points="555.5,-1285.53 552,-1275.53 548.5,-1285.53 555.5,-1285.53"/>
<text text-anchor="middle" x="563" y="-1298.3" font-family="Times,serif" font-size="14.00">189</text>
</g>
<!-- N23 -->
<g id="node24" class="node"><title>N23</title>
<polygon fill="none" stroke="black" points="764.25,-1275.5 681.75,-1275.5 681.75,-1240.5 764.25,-1240.5 764.25,-1275.5"/>
<text text-anchor="middle" x="723" y="-1265.1" font-family="Times,serif" font-size="8.00">bufio.(*Writer).flush</text>
<text text-anchor="end" x="756.5" y="-1256.1" font-family="Times,serif" font-size="8.00">0 (0.0%)</text>
<text text-anchor="end" x="756.5" y="-1247.1" font-family="Times,serif" font-size="8.00">of 24 (2.1%)</text>
</g>
<!-- N22&#45;&gt;N23 -->
<g id="edge13" class="edge"><title>N22&#45;&gt;N23</title>
<path fill="none" stroke="black" d="M684.255,-1328.42C691.227,-1315.93 700.911,-1298.58 708.852,-1284.35"/>
<polygon fill="black" stroke="black" points="711.956,-1285.97 713.774,-1275.53 705.844,-1282.56 711.956,-1285.97"/>
<text text-anchor="middle" x="710.5" y="-1298.3" font-family="Times,serif" font-size="14.00">24</text>
</g>
<!-- N24 -->
<g id="node25" class="node"><title>N24</title>
<polygon fill="none" stroke="black" points="767,-1166.5 699,-1166.5 699,-1131.5 767,-1131.5 767,-1166.5"/>
<text text-anchor="middle" x="733" y="-1156.1" font-family="Times,serif" font-size="8.00">os.(*File).Write</text>
<text text-anchor="end" x="759" y="-1147.1" font-family="Times,serif" font-size="8.00">0 (0.0%)</text>
<text text-anchor="end" x="759" y="-1138.1" font-family="Times,serif" font-size="8.00">of 24 (2.1%)</text>
</g>
<!-- N23&#45;&gt;N24 -->
<g id="edge12" class="edge"><title>N23&#45;&gt;N24</title>
<path fill="none" stroke="black" d="M724.562,-1240.28C726.155,-1223.24 728.649,-1196.55 730.513,-1176.61"/>
<polygon fill="black" stroke="black" points="734.003,-1176.88 731.448,-1166.6 727.033,-1176.23 734.003,-1176.88"/>
<text text-anchor="middle" x="734.5" y="-1210.3" font-family="Times,serif" font-size="14.00">24</text>
</g>
<!-- N25 -->
<g id="node26" class="node"><title>N25</title>
<polygon fill="none" stroke="black" points="554,-1057.5 488,-1057.5 488,-1022.5 554,-1022.5 554,-1057.5"/>
<text text-anchor="middle" x="521" y="-1047.1" font-family="Times,serif" font-size="8.00">os.(*File).write</text>
<text text-anchor="end" x="546" y="-1038.1" font-family="Times,serif" font-size="8.00">0 (0.0%)</text>
<text text-anchor="end" x="546" y="-1029.1" font-family="Times,serif" font-size="8.00">of 24 (2.1%)</text>
</g>
<!-- N24&#45;&gt;N25 -->
<g id="edge11" class="edge"><title>N24&#45;&gt;N25</title>
<path fill="none" stroke="black" d="M716.893,-1131.43C709.231,-1124.18 699.649,-1115.99 690,-1110 649.764,-1085.01 598.91,-1065.69 563.548,-1053.92"/>
<polygon fill="black" stroke="black" points="564.599,-1050.59 554.007,-1050.81 562.427,-1057.24 564.599,-1050.59"/>
<text text-anchor="middle" x="662.5" y="-1080.3" font-family="Times,serif" font-size="14.00">24</text>
</g>
<!-- N26 -->
<g id="node27" class="node"><title>N26</title>
<polygon fill="none" stroke="black" points="494,-969.5 436,-969.5 436,-934.5 494,-934.5 494,-969.5"/>
<text text-anchor="middle" x="465" y="-959.1" font-family="Times,serif" font-size="8.00">syscall.Write</text>
<text text-anchor="end" x="486" y="-950.1" font-family="Times,serif" font-size="8.00">0 (0.0%)</text>
<text text-anchor="end" x="486" y="-941.1" font-family="Times,serif" font-size="8.00">of 24 (2.1%)</text>
</g>
<!-- N25&#45;&gt;N26 -->
<g id="edge18" class="edge"><title>N25&#45;&gt;N26</title>
<path fill="none" stroke="black" d="M510.203,-1022.42C501.991,-1009.81 490.556,-992.246 481.242,-977.942"/>
<polygon fill="black" stroke="black" points="484.154,-976.001 475.764,-969.531 478.288,-979.821 484.154,-976.001"/>
<text text-anchor="middle" x="505.5" y="-992.3" font-family="Times,serif" font-size="14.00">24</text>
</g>
<!-- N27 -->
<g id="node28" class="node"><title>N27</title>
<polygon fill="none" stroke="black" points="474.25,-827.5 417.75,-827.5 417.75,-792.5 474.25,-792.5 474.25,-827.5"/>
<text text-anchor="middle" x="446" y="-817.1" font-family="Times,serif" font-size="8.00">syscall.write</text>
<text text-anchor="end" x="466.5" y="-808.1" font-family="Times,serif" font-size="8.00">0 (0.0%)</text>
<text text-anchor="end" x="466.5" y="-799.1" font-family="Times,serif" font-size="8.00">of 24 (2.1%)</text>
</g>
<!-- N26&#45;&gt;N27 -->
<g id="edge7" class="edge"><title>N26&#45;&gt;N27</title>
<path fill="none" stroke="black" d="M462.746,-934.39C459.503,-910.498 453.488,-866.176 449.619,-837.665"/>
<polygon fill="black" stroke="black" points="453.064,-837.026 448.251,-827.588 446.128,-837.968 453.064,-837.026"/>
<text text-anchor="middle" x="467.5" y="-904.3" font-family="Times,serif" font-size="14.00">24</text>
</g>
<!-- N27&#45;&gt;N10 -->
<g id="edge25" class="edge"><title>N27&#45;&gt;N10</title>
<path fill="none" stroke="black" d="M438.474,-792.442C428.369,-770.212 409.86,-729.493 394.077,-694.77"/>
<polygon fill="black" stroke="black" points="397.244,-693.278 389.919,-685.622 390.871,-696.174 397.244,-693.278"/>
<text text-anchor="middle" x="435.5" y="-752.3" font-family="Times,serif" font-size="14.00">24</text>
</g>
<!-- N28 -->
<g id="node29" class="node"><title>N28</title>
<polygon fill="none" stroke="black" points="397,-437.5 335,-437.5 335,-402.5 397,-402.5 397,-437.5"/>
<text text-anchor="middle" x="366" y="-427.1" font-family="Times,serif" font-size="8.00">exitsyscallfast</text>
<text text-anchor="end" x="389" y="-418.1" font-family="Times,serif" font-size="8.00">0 (0.0%)</text>
<text text-anchor="end" x="389" y="-409.1" font-family="Times,serif" font-size="8.00">of 14 (1.2%)</text>
</g>
<!-- N31 -->
<g id="node32" class="node"><title>N31</title>
<polygon fill="none" stroke="black" points="407,-349.5 325,-349.5 325,-314.5 407,-314.5 407,-349.5"/>
<text text-anchor="middle" x="366" y="-339.1" font-family="Times,serif" font-size="8.00">runtime.notewakeup</text>
<text text-anchor="end" x="399" y="-330.1" font-family="Times,serif" font-size="8.00">0 (0.0%)</text>
<text text-anchor="end" x="399" y="-321.1" font-family="Times,serif" font-size="8.00">of 14 (1.2%)</text>
</g>
<!-- N28&#45;&gt;N31 -->
<g id="edge22" class="edge"><title>N28&#45;&gt;N31</title>
<path fill="none" stroke="black" d="M366,-402.418C366,-390.283 366,-373.564 366,-359.575"/>
<polygon fill="black" stroke="black" points="369.5,-359.531 366,-349.531 362.5,-359.531 369.5,-359.531"/>
<text text-anchor="middle" x="373.5" y="-372.3" font-family="Times,serif" font-size="14.00">13</text>
</g>
<!-- N29&#45;&gt;N28 -->
<g id="edge14" class="edge"><title>N29&#45;&gt;N28</title>
<path fill="none" stroke="black" d="M366,-490.418C366,-478.283 366,-461.564 366,-447.575"/>
<polygon fill="black" stroke="black" points="369.5,-447.531 366,-437.531 362.5,-447.531 369.5,-447.531"/>
<text text-anchor="middle" x="373.5" y="-460.3" font-family="Times,serif" font-size="14.00">14</text>
</g>
<!-- N30 -->
<g id="node31" class="node"><title>N30</title>
<polygon fill="none" stroke="black" points="416,-173.5 316,-173.5 316,-138.5 416,-138.5 416,-173.5"/>
<text text-anchor="middle" x="366" y="-163.1" font-family="Times,serif" font-size="8.00">runtime.mach_semrelease</text>
<text text-anchor="end" x="408" y="-154.1" font-family="Times,serif" font-size="8.00">0 (0.0%)</text>
<text text-anchor="end" x="408" y="-145.1" font-family="Times,serif" font-size="8.00">of 14 (1.2%)</text>
</g>
<!-- N30&#45;&gt;N21 -->
<g id="edge27" class="edge"><title>N30&#45;&gt;N21</title>
<path fill="none" stroke="black" d="M366,-138.141C366,-124.185 366,-103.757 366,-85.4943"/>
<polygon fill="black" stroke="black" points="369.5,-85.3422 366,-75.3422 362.5,-85.3423 369.5,-85.3422"/>
<text text-anchor="middle" x="373.5" y="-108.3" font-family="Times,serif" font-size="14.00">14</text>
</g>
<!-- N32 -->
<g id="node33" class="node"><title>N32</title>
<polygon fill="none" stroke="black" points="408.25,-261.5 323.75,-261.5 323.75,-226.5 408.25,-226.5 408.25,-261.5"/>
<text text-anchor="middle" x="366" y="-251.1" font-family="Times,serif" font-size="8.00">runtime.semawakeup</text>
<text text-anchor="end" x="400.5" y="-242.1" font-family="Times,serif" font-size="8.00">0 (0.0%)</text>
<text text-anchor="end" x="400.5" y="-233.1" font-family="Times,serif" font-size="8.00">of 14 (1.2%)</text>
</g>
<!-- N31&#45;&gt;N32 -->
<g id="edge3" class="edge"><title>N31&#45;&gt;N32</title>
<path fill="none" stroke="black" d="M366,-314.418C366,-302.283 366,-285.564 366,-271.575"/>
<polygon fill="black" stroke="black" points="369.5,-271.531 366,-261.531 362.5,-271.531 369.5,-271.531"/>
<text text-anchor="middle" x="373.5" y="-284.3" font-family="Times,serif" font-size="14.00">14</text>
</g>
<!-- N32&#45;&gt;N30 -->
<g id="edge10" class="edge"><title>N32&#45;&gt;N30</title>
<path fill="none" stroke="black" d="M366,-226.418C366,-214.283 366,-197.564 366,-183.575"/>
<polygon fill="black" stroke="black" points="369.5,-183.531 366,-173.531 362.5,-183.531 369.5,-183.531"/>
<text text-anchor="middle" x="373.5" y="-196.3" font-family="Times,serif" font-size="14.00">14</text>
</g>
</g>
</g></svg>
