<?xml version="1.0" encoding="UTF-8" standalone="no"?>
<!DOCTYPE svg PUBLIC "-//W3C//DTD SVG 1.1//EN"
 "http://www.w3.org/Graphics/SVG/1.1/DTD/svg11.dtd">
<!-- Generated by graphviz version 2.36.0 (20140111.2315)
 -->
<!-- Title: fifo.test; 1227 samples Pages: 1 -->
<svg width="100%" height="100%"
  xmlns="http://www.w3.org/2000/svg" xmlns:xlink="http://www.w3.org/1999/xlink">
<script type="text/ecmascript"><![CDATA[
// SVGPan
// http://www.cyberz.org/blog/2009/12/08/svgpan-a-javascript-svg-panzoomdrag-library/
// Local modification: if(true || ...) below to force panning, never moving.
// Local modification: add clamping to fix bug in handleMouseWheel.

/**
 *  SVGPan library 1.2
 * ====================
 *
 * Given an unique existing element with id "viewport", including the
 * the library into any SVG adds the following capabilities:
 *
 *  - Mouse panning
 *  - Mouse zooming (using the wheel)
 *  - Object dargging
 *
 * Known issues:
 *
 *  - Zooming (while panning) on Safari has still some issues
 *
 * Releases:
 *
 * 1.2, Sat Mar 20 08:42:50 GMT 2010, Zeng Xiaohui
 *	Fixed a bug with browser mouse handler interaction
 *
 * 1.1, Wed Feb  3 17:39:33 GMT 2010, Zeng Xiaohui
 *	Updated the zoom code to support the mouse wheel on Safari/Chrome
 *
 * 1.0, Andrea Leofreddi
 *	First release
 *
 * This code is licensed under the following BSD license:
 *
 * Copyright 2009-2010 Andrea Leofreddi <a.leofreddi@itcharm.com>. All rights reserved.
 *
 * Redistribution and use in source and binary forms, with or without modification, are
 * permitted provided that the following conditions are met:
 *
 *    1. Redistributions of source code must retain the above copyright notice, this list of
 *       conditions and the following disclaimer.
 *
 *    2. Redistributions in binary form must reproduce the above copyright notice, this list
 *       of conditions and the following disclaimer in the documentation and/or other materials
 *       provided with the distribution.
 *
 * THIS SOFTWARE IS PROVIDED BY Andrea Leofreddi ``AS IS'' AND ANY EXPRESS OR IMPLIED
 * WARRANTIES, INCLUDING, BUT NOT LIMITED TO, THE IMPLIED WARRANTIES OF MERCHANTABILITY AND
 * FITNESS FOR A PARTICULAR PURPOSE ARE DISCLAIMED. IN NO EVENT SHALL Andrea Leofreddi OR
 * CONTRIBUTORS BE LIABLE FOR ANY DIRECT, INDIRECT, INCIDENTAL, SPECIAL, EXEMPLARY, OR
 * CONSEQUENTIAL DAMAGES (INCLUDING, BUT NOT LIMITED TO, PROCUREMENT OF SUBSTITUTE GOODS OR
 * SERVICES; LOSS OF USE, DATA, OR PROFITS; OR BUSINESS INTERRUPTION) HOWEVER CAUSED AND ON
 * ANY THEORY OF LIABILITY, WHETHER IN CONTRACT, STRICT LIABILITY, OR TORT (INCLUDING
 * NEGLIGENCE OR OTHERWISE) ARISING IN ANY WAY OUT OF THE USE OF THIS SOFTWARE, EVEN IF
 * ADVISED OF THE POSSIBILITY OF SUCH DAMAGE.
 *
 * The views and conclusions contained in the software and documentation are those of the
 * authors and should not be interpreted as representing official policies, either expressed
 * or implied, of Andrea Leofreddi.
 */

var root = document.documentElement;

var state = 'none', stateTarget, stateOrigin, stateTf;

setupHandlers(root);

/**
 * Register handlers
 */
function setupHandlers(root){
	setAttributes(root, {
		"onmouseup" : "add(evt)",
		"onmousedown" : "handleMouseDown(evt)",
		"onmousemove" : "handleMouseMove(evt)",
		"onmouseup" : "handleMouseUp(evt)",
		//"onmouseout" : "handleMouseUp(evt)", // Decomment this to stop the pan functionality when dragging out of the SVG element
	});

	if(navigator.userAgent.toLowerCase().indexOf('webkit') >= 0)
		window.addEventListener('mousewheel', handleMouseWheel, false); // Chrome/Safari
	else
		window.addEventListener('DOMMouseScroll', handleMouseWheel, false); // Others

	var g = svgDoc.getElementById("svg");
	g.width = "100%";
	g.height = "100%";
}

/**
 * Instance an SVGPoint object with given event coordinates.
 */
function getEventPoint(evt) {
	var p = root.createSVGPoint();

	p.x = evt.clientX;
	p.y = evt.clientY;

	return p;
}

/**
 * Sets the current transform matrix of an element.
 */
function setCTM(element, matrix) {
	var s = "matrix(" + matrix.a + "," + matrix.b + "," + matrix.c + "," + matrix.d + "," + matrix.e + "," + matrix.f + ")";

	element.setAttribute("transform", s);
}

/**
 * Dumps a matrix to a string (useful for debug).
 */
function dumpMatrix(matrix) {
	var s = "[ " + matrix.a + ", " + matrix.c + ", " + matrix.e + "\n  " + matrix.b + ", " + matrix.d + ", " + matrix.f + "\n  0, 0, 1 ]";

	return s;
}

/**
 * Sets attributes of an element.
 */
function setAttributes(element, attributes){
	for (i in attributes)
		element.setAttributeNS(null, i, attributes[i]);
}

/**
 * Handle mouse move event.
 */
function handleMouseWheel(evt) {
	if(evt.preventDefault)
		evt.preventDefault();

	evt.returnValue = false;

	var svgDoc = evt.target.ownerDocument;

	var delta;

	if(evt.wheelDelta)
		delta = evt.wheelDelta / 3600; // Chrome/Safari
	else
		delta = evt.detail / -90; // Mozilla

	var z = 1 + delta; // Zoom factor: 0.9/1.1

	// Clamp to reasonable values.
	// The 0.1 check is important because
	// a very large scroll can turn into a
	// negative z, which rotates the image 180 degrees.
	if(z < 0.1)
		z = 0.1;
	if(z > 10.0)
		z = 10.0;

	var g = svgDoc.getElementById("viewport");

	var p = getEventPoint(evt);

	p = p.matrixTransform(g.getCTM().inverse());

	// Compute new scale matrix in current mouse position
	var k = root.createSVGMatrix().translate(p.x, p.y).scale(z).translate(-p.x, -p.y);

        setCTM(g, g.getCTM().multiply(k));

	stateTf = stateTf.multiply(k.inverse());
}

/**
 * Handle mouse move event.
 */
function handleMouseMove(evt) {
	if(evt.preventDefault)
		evt.preventDefault();

	evt.returnValue = false;

	var svgDoc = evt.target.ownerDocument;

	var g = svgDoc.getElementById("viewport");

	if(state == 'pan') {
		// Pan mode
		var p = getEventPoint(evt).matrixTransform(stateTf);

		setCTM(g, stateTf.inverse().translate(p.x - stateOrigin.x, p.y - stateOrigin.y));
	} else if(state == 'move') {
		// Move mode
		var p = getEventPoint(evt).matrixTransform(g.getCTM().inverse());

		setCTM(stateTarget, root.createSVGMatrix().translate(p.x - stateOrigin.x, p.y - stateOrigin.y).multiply(g.getCTM().inverse()).multiply(stateTarget.getCTM()));

		stateOrigin = p;
	}
}

/**
 * Handle click event.
 */
function handleMouseDown(evt) {
	if(evt.preventDefault)
		evt.preventDefault();

	evt.returnValue = false;

	var svgDoc = evt.target.ownerDocument;

	var g = svgDoc.getElementById("viewport");

	if(true || evt.target.tagName == "svg") {
		// Pan mode
		state = 'pan';

		stateTf = g.getCTM().inverse();

		stateOrigin = getEventPoint(evt).matrixTransform(stateTf);
	} else {
		// Move mode
		state = 'move';

		stateTarget = evt.target;

		stateTf = g.getCTM().inverse();

		stateOrigin = getEventPoint(evt).matrixTransform(stateTf);
	}
}

/**
 * Handle mouse button release event.
 */
function handleMouseUp(evt) {
	if(evt.preventDefault)
		evt.preventDefault();

	evt.returnValue = false;

	var svgDoc = evt.target.ownerDocument;

	if(state == 'pan' || state == 'move') {
		// Quit pan mode
		state = '';
	}
}

]]></script>
<g id="viewport" transform="translate(0,0)">
<g id="viewport" class="graph" transform="scale(1 1) rotate(0) translate(4 1708)">
<title>fifo.test; 1227 samples</title>
<polygon fill="white" stroke="none" points="-4,4 -4,-1708 1184,-1708 1184,4 -4,4"/>
<!-- Legend -->
<g id="node1" class="node"><title>Legend</title>
<text text-anchor="start" x="8" y="-1680.8" font-family="Times,serif" font-size="24.00">fifo.test</text>
<text text-anchor="start" x="8" y="-1654.8" font-family="Times,serif" font-size="24.00">Total samples: 1227</text>
<text text-anchor="start" x="8" y="-1628.8" font-family="Times,serif" font-size="24.00">Focusing on: 1227</text>
<text text-anchor="start" x="8" y="-1602.8" font-family="Times,serif" font-size="24.00">Dropped nodes with &lt;= 6 abs(samples)</text>
<text text-anchor="start" x="8" y="-1576.8" font-family="Times,serif" font-size="24.00">Dropped edges with &lt;= 1 samples</text>
</g>
<!-- N1 -->
<g id="node2" class="node"><title>N1</title>
<polygon fill="none" stroke="black" points="916.25,-171.5 851.75,-171.5 851.75,-136.5 916.25,-136.5 916.25,-171.5"/>
<text text-anchor="middle" x="884" y="-161.1" font-family="Times,serif" font-size="8.00">System</text>
<text text-anchor="end" x="908.5" y="-152.1" font-family="Times,serif" font-size="8.00">0 (0.0%)</text>
<text text-anchor="end" x="908.5" y="-143.1" font-family="Times,serif" font-size="8.00">of 617 (50.3%)</text>
</g>
<!-- N4 -->
<g id="node5" class="node"><title>N4</title>
<polygon fill="none" stroke="black" points="1180.25,-84 957.75,-84 957.75,-0 1180.25,-0 1180.25,-84"/>
<text text-anchor="middle" x="1069" y="-52.08" font-family="Times,serif" font-size="34.90">runtime.usleep</text>
<text text-anchor="end" x="1172.5" y="-14.08" font-family="Times,serif" font-size="34.90">354 (28.9%)</text>
</g>
<!-- N1&#45;&gt;N4 -->
<g id="edge30" class="edge"><title>N1&#45;&gt;N4</title>
<path fill="none" stroke="black" stroke-width="1.73105" d="M912.098,-136.293C933.166,-123.766 963.085,-105.977 991.156,-89.2857"/>
<polygon fill="black" stroke="black" stroke-width="1.73105" points="992.99,-92.2673 999.796,-84.1482 989.412,-86.2506 992.99,-92.2673"/>
<text text-anchor="middle" x="976" y="-106.3" font-family="Times,serif" font-size="14.00">354</text>
</g>
<!-- N21 -->
<g id="node22" class="node"><title>N21</title>
<polygon fill="none" stroke="black" points="482,-73 144,-73 144,-11 482,-11 482,-73"/>
<text text-anchor="middle" x="313" y="-49.56" font-family="Times,serif" font-size="24.30">runtime.mach_semaphore_signal</text>
<text text-anchor="end" x="474" y="-22.56" font-family="Times,serif" font-size="24.30">131 (10.7%)</text>
</g>
<!-- N1&#45;&gt;N21 -->
<g id="edge26" class="edge"><title>N1&#45;&gt;N21</title>
<path fill="none" stroke="black" d="M851.542,-147.894C784.151,-137.163 624.235,-111.021 491,-84 477.62,-81.2864 463.707,-78.3261 449.817,-75.2786"/>
<polygon fill="black" stroke="black" points="450.235,-71.7867 439.716,-73.0465 448.725,-78.6218 450.235,-71.7867"/>
<text text-anchor="middle" x="674" y="-106.3" font-family="Times,serif" font-size="14.00">124</text>
</g>
<!-- N22 -->
<g id="node23" class="node"><title>N22</title>
<polygon fill="none" stroke="black" points="810,-72 500,-72 500,-12 810,-12 810,-72"/>
<text text-anchor="middle" x="655" y="-49.36" font-family="Times,serif" font-size="23.30">runtime.mach_semaphore_wait</text>
<text text-anchor="end" x="802" y="-23.36" font-family="Times,serif" font-size="23.30">115 (9.4%)</text>
</g>
<!-- N1&#45;&gt;N22 -->
<g id="edge28" class="edge"><title>N1&#45;&gt;N22</title>
<path fill="none" stroke="black" d="M851.676,-137.473C818.825,-121.693 766.901,-96.7518 724.653,-76.4577"/>
<polygon fill="black" stroke="black" points="726.05,-73.246 715.52,-72.071 723.019,-79.5558 726.05,-73.246"/>
<text text-anchor="middle" x="820" y="-106.3" font-family="Times,serif" font-size="14.00">115</text>
</g>
<!-- N26 -->
<g id="node27" class="node"><title>N26</title>
<polygon fill="none" stroke="black" points="939.25,-61 828.75,-61 828.75,-23 939.25,-23 939.25,-61"/>
<text text-anchor="middle" x="884" y="-46.36" font-family="Times,serif" font-size="13.30">runtime.newstack</text>
<text text-anchor="end" x="931.5" y="-31.36" font-family="Times,serif" font-size="13.30">14 (1.1%)</text>
</g>
<!-- N1&#45;&gt;N26 -->
<g id="edge19" class="edge"><title>N1&#45;&gt;N26</title>
<path fill="none" stroke="black" d="M884,-136.293C884,-119.097 884,-91.9848 884,-71.4103"/>
<polygon fill="black" stroke="black" points="887.5,-71.3341 884,-61.3341 880.5,-71.3342 887.5,-71.3341"/>
<text text-anchor="middle" x="891.5" y="-106.3" font-family="Times,serif" font-size="14.00">14</text>
</g>
<!-- N2 -->
<g id="node3" class="node"><title>N2</title>
<polygon fill="none" stroke="black" points="486,-1652.5 412,-1652.5 412,-1617.5 486,-1617.5 486,-1652.5"/>
<text text-anchor="middle" x="449" y="-1642.1" font-family="Times,serif" font-size="8.00">runtime.gosched0</text>
<text text-anchor="end" x="478" y="-1633.1" font-family="Times,serif" font-size="8.00">0 (0.0%)</text>
<text text-anchor="end" x="478" y="-1624.1" font-family="Times,serif" font-size="8.00">of 607 (49.5%)</text>
</g>
<!-- N6 -->
<g id="node7" class="node"><title>N6</title>
<polygon fill="none" stroke="black" points="431,-1513.5 347,-1513.5 347,-1478.5 431,-1478.5 431,-1513.5"/>
<text text-anchor="middle" x="389" y="-1503.1" font-family="Times,serif" font-size="8.00">clive/nchan.func·003</text>
<text text-anchor="end" x="423" y="-1494.1" font-family="Times,serif" font-size="8.00">0 (0.0%)</text>
<text text-anchor="end" x="423" y="-1485.1" font-family="Times,serif" font-size="8.00">of 305 (24.9%)</text>
</g>
<!-- N2&#45;&gt;N6 -->
<g id="edge20" class="edge"><title>N2&#45;&gt;N6</title>
<path fill="none" stroke="black" stroke-width="1.49144" d="M441.763,-1617.47C431.492,-1594.02 412.585,-1550.85 400.414,-1523.06"/>
<polygon fill="black" stroke="black" stroke-width="1.49144" points="403.481,-1521.34 396.263,-1513.58 397.069,-1524.15 403.481,-1521.34"/>
<text text-anchor="middle" x="422" y="-1536.3" font-family="Times,serif" font-size="14.00">305</text>
</g>
<!-- N13 -->
<g id="node14" class="node"><title>N13</title>
<polygon fill="none" stroke="black" points="536,-1513.5 452,-1513.5 452,-1478.5 536,-1478.5 536,-1513.5"/>
<text text-anchor="middle" x="494" y="-1503.1" font-family="Times,serif" font-size="8.00">clive/nchan.func·004</text>
<text text-anchor="end" x="528" y="-1494.1" font-family="Times,serif" font-size="8.00">0 (0.0%)</text>
<text text-anchor="end" x="528" y="-1485.1" font-family="Times,serif" font-size="8.00">of 299 (24.4%)</text>
</g>
<!-- N2&#45;&gt;N13 -->
<g id="edge16" class="edge"><title>N2&#45;&gt;N13</title>
<path fill="none" stroke="black" stroke-width="1.4621" d="M454.428,-1617.47C462.097,-1594.13 476.187,-1551.23 485.319,-1523.43"/>
<polygon fill="black" stroke="black" stroke-width="1.4621" points="488.757,-1524.18 488.553,-1513.58 482.107,-1521.99 488.757,-1524.18"/>
<text text-anchor="middle" x="493" y="-1536.3" font-family="Times,serif" font-size="14.00">299</text>
</g>
<!-- N3 -->
<g id="node4" class="node"><title>N3</title>
<polygon fill="none" stroke="black" points="538,-742 290,-742 290,-608 538,-608 538,-742"/>
<text text-anchor="middle" x="414" y="-707.6" font-family="Times,serif" font-size="38.00">syscall.Syscall</text>
<text text-anchor="end" x="530" y="-665.6" font-family="Times,serif" font-size="38.00">442 (36.0%)</text>
<text text-anchor="end" x="530" y="-623.6" font-family="Times,serif" font-size="38.00">of 496 (40.4%)</text>
</g>
<!-- N24 -->
<g id="node25" class="node"><title>N24</title>
<polygon fill="none" stroke="black" points="467.25,-555.5 360.75,-555.5 360.75,-508.5 467.25,-508.5 467.25,-555.5"/>
<text text-anchor="middle" x="414" y="-541.9" font-family="Times,serif" font-size="12.00">runtime.exitsyscall</text>
<text text-anchor="end" x="459.5" y="-528.9" font-family="Times,serif" font-size="12.00">8 (0.7%)</text>
<text text-anchor="end" x="459.5" y="-515.9" font-family="Times,serif" font-size="12.00">of 52 (4.2%)</text>
</g>
<!-- N3&#45;&gt;N24 -->
<g id="edge13" class="edge"><title>N3&#45;&gt;N24</title>
<path fill="none" stroke="black" d="M414,-607.629C414,-593.155 414,-578.448 414,-565.959"/>
<polygon fill="black" stroke="black" points="417.5,-565.617 414,-555.617 410.5,-565.617 417.5,-565.617"/>
<text text-anchor="middle" x="421.5" y="-578.3" font-family="Times,serif" font-size="14.00">52</text>
</g>
<!-- N5 -->
<g id="node6" class="node"><title>N5</title>
<polygon fill="none" stroke="black" points="411,-1418.5 311,-1418.5 311,-1383.5 411,-1383.5 411,-1418.5"/>
<text text-anchor="middle" x="361" y="-1408.1" font-family="Times,serif" font-size="8.00">clive/nchan.WriteMsgsTo</text>
<text text-anchor="end" x="403" y="-1399.1" font-family="Times,serif" font-size="8.00">0 (0.0%)</text>
<text text-anchor="end" x="403" y="-1390.1" font-family="Times,serif" font-size="8.00">of 305 (24.9%)</text>
</g>
<!-- N7 -->
<g id="node8" class="node"><title>N7</title>
<polygon fill="none" stroke="black" points="404,-1315.5 318,-1315.5 318,-1280.5 404,-1280.5 404,-1315.5"/>
<text text-anchor="middle" x="361" y="-1305.1" font-family="Times,serif" font-size="8.00">clive/nchan.writeMsg</text>
<text text-anchor="end" x="396" y="-1296.1" font-family="Times,serif" font-size="8.00">0 (0.0%)</text>
<text text-anchor="end" x="396" y="-1287.1" font-family="Times,serif" font-size="8.00">of 305 (24.9%)</text>
</g>
<!-- N5&#45;&gt;N7 -->
<g id="edge1" class="edge"><title>N5&#45;&gt;N7</title>
<path fill="none" stroke="black" stroke-width="1.49144" d="M361,-1383.32C361,-1367.68 361,-1344.02 361,-1325.74"/>
<polygon fill="black" stroke="black" stroke-width="1.49144" points="364.5,-1325.7 361,-1315.7 357.5,-1325.7 364.5,-1325.7"/>
<text text-anchor="middle" x="372" y="-1346.3" font-family="Times,serif" font-size="14.00">305</text>
</g>
<!-- N6&#45;&gt;N5 -->
<g id="edge23" class="edge"><title>N6&#45;&gt;N5</title>
<path fill="none" stroke="black" stroke-width="1.49144" d="M383.994,-1478.37C379.839,-1464.57 373.851,-1444.68 369.028,-1428.66"/>
<polygon fill="black" stroke="black" stroke-width="1.49144" points="372.291,-1427.36 366.057,-1418.8 365.588,-1429.38 372.291,-1427.36"/>
<text text-anchor="middle" x="390" y="-1448.3" font-family="Times,serif" font-size="14.00">305</text>
</g>
<!-- N8 -->
<g id="node9" class="node"><title>N8</title>
<polygon fill="none" stroke="black" points="448,-1116.5 380,-1116.5 380,-1081.5 448,-1081.5 448,-1116.5"/>
<text text-anchor="middle" x="414" y="-1106.1" font-family="Times,serif" font-size="8.00">os.(*File).Write</text>
<text text-anchor="end" x="440" y="-1097.1" font-family="Times,serif" font-size="8.00">0 (0.0%)</text>
<text text-anchor="end" x="440" y="-1088.1" font-family="Times,serif" font-size="8.00">of 305 (24.9%)</text>
</g>
<!-- N7&#45;&gt;N8 -->
<g id="edge29" class="edge"><title>N7&#45;&gt;N8</title>
<path fill="none" stroke="black" d="M369.95,-1280.32C377.828,-1265.02 389.09,-1241.53 396,-1220 405.136,-1191.53 404.727,-1183.59 409,-1154 410.282,-1145.12 411.302,-1135.37 412.078,-1126.63"/>
<polygon fill="black" stroke="black" points="415.572,-1126.85 412.904,-1116.6 408.595,-1126.27 415.572,-1126.85"/>
<text text-anchor="middle" x="418" y="-1192.3" font-family="Times,serif" font-size="14.00">118</text>
</g>
<!-- N20 -->
<g id="node21" class="node"><title>N20</title>
<polygon fill="none" stroke="black" points="387,-1213.5 303,-1213.5 303,-1178.5 387,-1178.5 387,-1213.5"/>
<text text-anchor="middle" x="345" y="-1203.1" font-family="Times,serif" font-size="8.00">clive/nchan.writeHdr</text>
<text text-anchor="end" x="379" y="-1194.1" font-family="Times,serif" font-size="8.00">0 (0.0%)</text>
<text text-anchor="end" x="379" y="-1185.1" font-family="Times,serif" font-size="8.00">of 187 (15.2%)</text>
</g>
<!-- N7&#45;&gt;N20 -->
<g id="edge32" class="edge"><title>N7&#45;&gt;N20</title>
<path fill="none" stroke="black" d="M358.358,-1280.49C355.88,-1265 352.132,-1241.58 349.236,-1223.48"/>
<polygon fill="black" stroke="black" points="352.682,-1222.86 347.646,-1213.54 345.77,-1223.96 352.682,-1222.86"/>
<text text-anchor="middle" x="365" y="-1242.3" font-family="Times,serif" font-size="14.00">187</text>
</g>
<!-- N9 -->
<g id="node10" class="node"><title>N9</title>
<polygon fill="none" stroke="black" points="447,-1022.5 381,-1022.5 381,-987.5 447,-987.5 447,-1022.5"/>
<text text-anchor="middle" x="414" y="-1012.1" font-family="Times,serif" font-size="8.00">os.(*File).write</text>
<text text-anchor="end" x="439" y="-1003.1" font-family="Times,serif" font-size="8.00">0 (0.0%)</text>
<text text-anchor="end" x="439" y="-994.1" font-family="Times,serif" font-size="8.00">of 305 (24.9%)</text>
</g>
<!-- N8&#45;&gt;N9 -->
<g id="edge9" class="edge"><title>N8&#45;&gt;N9</title>
<path fill="none" stroke="black" stroke-width="1.49144" d="M414,-1081.13C414,-1067.64 414,-1048.48 414,-1032.88"/>
<polygon fill="black" stroke="black" stroke-width="1.49144" points="417.5,-1032.77 414,-1022.77 410.5,-1032.77 417.5,-1032.77"/>
<text text-anchor="middle" x="425" y="-1048.3" font-family="Times,serif" font-size="14.00">305</text>
</g>
<!-- N10 -->
<g id="node11" class="node"><title>N10</title>
<polygon fill="none" stroke="black" points="446.25,-925.5 381.75,-925.5 381.75,-890.5 446.25,-890.5 446.25,-925.5"/>
<text text-anchor="middle" x="414" y="-915.1" font-family="Times,serif" font-size="8.00">syscall.Write</text>
<text text-anchor="end" x="438.5" y="-906.1" font-family="Times,serif" font-size="8.00">0 (0.0%)</text>
<text text-anchor="end" x="438.5" y="-897.1" font-family="Times,serif" font-size="8.00">of 305 (24.9%)</text>
</g>
<!-- N9&#45;&gt;N10 -->
<g id="edge14" class="edge"><title>N9&#45;&gt;N10</title>
<path fill="none" stroke="black" stroke-width="1.49144" d="M414,-987.452C414,-973.236 414,-952.468 414,-935.871"/>
<polygon fill="black" stroke="black" stroke-width="1.49144" points="417.5,-935.677 414,-925.677 410.5,-935.677 417.5,-935.677"/>
<text text-anchor="middle" x="425" y="-954.3" font-family="Times,serif" font-size="14.00">305</text>
</g>
<!-- N11 -->
<g id="node12" class="node"><title>N11</title>
<polygon fill="none" stroke="black" points="446.25,-830.5 381.75,-830.5 381.75,-795.5 446.25,-795.5 446.25,-830.5"/>
<text text-anchor="middle" x="414" y="-820.1" font-family="Times,serif" font-size="8.00">syscall.write</text>
<text text-anchor="end" x="438.5" y="-811.1" font-family="Times,serif" font-size="8.00">0 (0.0%)</text>
<text text-anchor="end" x="438.5" y="-802.1" font-family="Times,serif" font-size="8.00">of 305 (24.9%)</text>
</g>
<!-- N10&#45;&gt;N11 -->
<g id="edge7" class="edge"><title>N10&#45;&gt;N11</title>
<path fill="none" stroke="black" stroke-width="1.49144" d="M414,-890.373C414,-876.705 414,-857.063 414,-841.122"/>
<polygon fill="black" stroke="black" stroke-width="1.49144" points="417.5,-840.796 414,-830.796 410.5,-840.796 417.5,-840.796"/>
<text text-anchor="middle" x="425" y="-854.3" font-family="Times,serif" font-size="14.00">305</text>
</g>
<!-- N11&#45;&gt;N3 -->
<g id="edge22" class="edge"><title>N11&#45;&gt;N3</title>
<path fill="none" stroke="black" stroke-width="1.49144" d="M414,-795.324C414,-784.163 414,-768.593 414,-752.378"/>
<polygon fill="black" stroke="black" stroke-width="1.49144" points="417.5,-752.232 414,-742.232 410.5,-752.232 417.5,-752.232"/>
<text text-anchor="middle" x="425" y="-764.3" font-family="Times,serif" font-size="14.00">305</text>
</g>
<!-- N12 -->
<g id="node13" class="node"><title>N12</title>
<polygon fill="none" stroke="black" points="586.25,-1426 429.75,-1426 429.75,-1376 586.25,-1376 586.25,-1426"/>
<text text-anchor="middle" x="508" y="-1412" font-family="Times,serif" font-size="12.50">clive/nchan.ReadMsgsFrom</text>
<text text-anchor="end" x="578.5" y="-1398" font-family="Times,serif" font-size="12.50">10 (0.8%)</text>
<text text-anchor="end" x="578.5" y="-1384" font-family="Times,serif" font-size="12.50">of 299 (24.4%)</text>
</g>
<!-- N14 -->
<g id="node15" class="node"><title>N14</title>
<polygon fill="none" stroke="black" points="545,-1317 471,-1317 471,-1279 545,-1279 545,-1317"/>
<text text-anchor="middle" x="508" y="-1305.48" font-family="Times,serif" font-size="9.40">io.ReadFull</text>
<text text-anchor="end" x="537" y="-1295.48" font-family="Times,serif" font-size="9.40">1 (0.1%)</text>
<text text-anchor="end" x="537" y="-1285.48" font-family="Times,serif" font-size="9.40">of 210 (17.1%)</text>
</g>
<!-- N12&#45;&gt;N14 -->
<g id="edge12" class="edge"><title>N12&#45;&gt;N14</title>
<path fill="none" stroke="black" stroke-width="1.02689" d="M508,-1375.81C508,-1361.34 508,-1342.89 508,-1327.69"/>
<polygon fill="black" stroke="black" stroke-width="1.02689" points="511.5,-1327.3 508,-1317.3 504.5,-1327.3 511.5,-1327.3"/>
<text text-anchor="middle" x="519" y="-1346.3" font-family="Times,serif" font-size="14.00">210</text>
</g>
<!-- N23 -->
<g id="node24" class="node"><title>N23</title>
<polygon fill="none" stroke="black" points="730.25,-1324 563.75,-1324 563.75,-1272 730.25,-1272 730.25,-1324"/>
<text text-anchor="middle" x="647" y="-1304.08" font-family="Times,serif" font-size="19.90">runtime.memmove</text>
<text text-anchor="end" x="722.5" y="-1282.08" font-family="Times,serif" font-size="19.90">69 (5.6%)</text>
</g>
<!-- N12&#45;&gt;N23 -->
<g id="edge4" class="edge"><title>N12&#45;&gt;N23</title>
<path fill="none" stroke="black" d="M541.294,-1375.81C560.212,-1362.06 584.096,-1344.71 604.373,-1329.97"/>
<polygon fill="black" stroke="black" points="606.494,-1332.76 612.526,-1324.05 602.379,-1327.1 606.494,-1332.76"/>
<text text-anchor="middle" x="592.5" y="-1346.3" font-family="Times,serif" font-size="14.00">69</text>
</g>
<!-- N13&#45;&gt;N12 -->
<g id="edge27" class="edge"><title>N13&#45;&gt;N12</title>
<path fill="none" stroke="black" stroke-width="1.4621" d="M496.503,-1478.37C498.262,-1466.69 500.679,-1450.63 502.843,-1436.26"/>
<polygon fill="black" stroke="black" stroke-width="1.4621" points="506.333,-1436.58 504.361,-1426.17 499.411,-1435.54 506.333,-1436.58"/>
<text text-anchor="middle" x="513" y="-1448.3" font-family="Times,serif" font-size="14.00">299</text>
</g>
<!-- N15 -->
<g id="node16" class="node"><title>N15</title>
<polygon fill="none" stroke="black" points="553,-1219.5 463,-1219.5 463,-1172.5 553,-1172.5 553,-1219.5"/>
<text text-anchor="middle" x="508" y="-1206.06" font-family="Times,serif" font-size="11.80">io.ReadAtLeast</text>
<text text-anchor="end" x="545" y="-1193.06" font-family="Times,serif" font-size="11.80">7 (0.6%)</text>
<text text-anchor="end" x="545" y="-1180.06" font-family="Times,serif" font-size="11.80">of 209 (17.0%)</text>
</g>
<!-- N14&#45;&gt;N15 -->
<g id="edge25" class="edge"><title>N14&#45;&gt;N15</title>
<path fill="none" stroke="black" stroke-width="1.02201" d="M508,-1278.66C508,-1265.06 508,-1246.15 508,-1229.96"/>
<polygon fill="black" stroke="black" stroke-width="1.02201" points="511.5,-1229.79 508,-1219.79 504.5,-1229.79 511.5,-1229.79"/>
<text text-anchor="middle" x="519" y="-1242.3" font-family="Times,serif" font-size="14.00">209</text>
</g>
<!-- N16 -->
<g id="node17" class="node"><title>N16</title>
<polygon fill="none" stroke="black" points="547,-1119.5 469,-1119.5 469,-1078.5 547,-1078.5 547,-1119.5"/>
<text text-anchor="middle" x="508" y="-1107.5" font-family="Times,serif" font-size="10.00">os.(*File).Read</text>
<text text-anchor="end" x="539" y="-1096.5" font-family="Times,serif" font-size="10.00">2 (0.2%)</text>
<text text-anchor="end" x="539" y="-1085.5" font-family="Times,serif" font-size="10.00">of 202 (16.5%)</text>
</g>
<!-- N15&#45;&gt;N16 -->
<g id="edge31" class="edge"><title>N15&#45;&gt;N16</title>
<path fill="none" stroke="black" d="M508,-1172.49C508,-1159.72 508,-1143.59 508,-1129.78"/>
<polygon fill="black" stroke="black" points="511.5,-1129.77 508,-1119.77 504.5,-1129.77 511.5,-1129.77"/>
<text text-anchor="middle" x="519" y="-1142.3" font-family="Times,serif" font-size="14.00">202</text>
</g>
<!-- N17 -->
<g id="node18" class="node"><title>N17</title>
<polygon fill="none" stroke="black" points="546.25,-1025.5 469.75,-1025.5 469.75,-984.5 546.25,-984.5 546.25,-1025.5"/>
<text text-anchor="middle" x="508" y="-1013.5" font-family="Times,serif" font-size="10.00">os.(*File).read</text>
<text text-anchor="end" x="538.5" y="-1002.5" font-family="Times,serif" font-size="10.00">2 (0.2%)</text>
<text text-anchor="end" x="538.5" y="-991.5" font-family="Times,serif" font-size="10.00">of 200 (16.3%)</text>
</g>
<!-- N16&#45;&gt;N17 -->
<g id="edge6" class="edge"><title>N16&#45;&gt;N17</title>
<path fill="none" stroke="black" d="M508,-1078.49C508,-1066.13 508,-1049.91 508,-1035.94"/>
<polygon fill="black" stroke="black" points="511.5,-1035.8 508,-1025.8 504.5,-1035.8 511.5,-1035.8"/>
<text text-anchor="middle" x="519" y="-1048.3" font-family="Times,serif" font-size="14.00">200</text>
</g>
<!-- N18 -->
<g id="node19" class="node"><title>N18</title>
<polygon fill="none" stroke="black" points="551,-931.5 465,-931.5 465,-884.5 551,-884.5 551,-931.5"/>
<text text-anchor="middle" x="508" y="-918.3" font-family="Times,serif" font-size="11.50">syscall.Read</text>
<text text-anchor="end" x="543" y="-905.3" font-family="Times,serif" font-size="11.50">6 (0.5%)</text>
<text text-anchor="end" x="543" y="-892.3" font-family="Times,serif" font-size="11.50">of 198 (16.1%)</text>
</g>
<!-- N17&#45;&gt;N18 -->
<g id="edge3" class="edge"><title>N17&#45;&gt;N18</title>
<path fill="none" stroke="black" d="M508,-984.316C508,-972.103 508,-956.102 508,-941.991"/>
<polygon fill="black" stroke="black" points="511.5,-941.662 508,-931.662 504.5,-941.662 511.5,-941.662"/>
<text text-anchor="middle" x="519" y="-954.3" font-family="Times,serif" font-size="14.00">198</text>
</g>
<!-- N19 -->
<g id="node20" class="node"><title>N19</title>
<polygon fill="none" stroke="black" points="542,-832 468,-832 468,-794 542,-794 542,-832"/>
<text text-anchor="middle" x="505" y="-820.48" font-family="Times,serif" font-size="9.40">syscall.read</text>
<text text-anchor="end" x="534" y="-810.48" font-family="Times,serif" font-size="9.40">1 (0.1%)</text>
<text text-anchor="end" x="534" y="-800.48" font-family="Times,serif" font-size="9.40">of 192 (15.6%)</text>
</g>
<!-- N18&#45;&gt;N19 -->
<g id="edge15" class="edge"><title>N18&#45;&gt;N19</title>
<path fill="none" stroke="black" d="M507.274,-884.487C506.866,-871.847 506.353,-855.95 505.918,-842.453"/>
<polygon fill="black" stroke="black" points="509.409,-842.134 505.589,-832.252 502.413,-842.36 509.409,-842.134"/>
<text text-anchor="middle" x="518" y="-854.3" font-family="Times,serif" font-size="14.00">192</text>
</g>
<!-- N19&#45;&gt;N3 -->
<g id="edge8" class="edge"><title>N19&#45;&gt;N3</title>
<path fill="none" stroke="black" d="M492.916,-793.94C485.258,-782.496 474.786,-766.845 463.974,-750.686"/>
<polygon fill="black" stroke="black" points="466.771,-748.573 458.301,-742.209 460.954,-752.466 466.771,-748.573"/>
<text text-anchor="middle" x="492" y="-764.3" font-family="Times,serif" font-size="14.00">191</text>
</g>
<!-- N20&#45;&gt;N8 -->
<g id="edge21" class="edge"><title>N20&#45;&gt;N8</title>
<path fill="none" stroke="black" d="M357.019,-1178.45C367.738,-1163.69 383.585,-1141.88 395.847,-1124.99"/>
<polygon fill="black" stroke="black" points="398.843,-1126.82 401.887,-1116.68 393.179,-1122.71 398.843,-1126.82"/>
<text text-anchor="middle" x="397" y="-1142.3" font-family="Times,serif" font-size="14.00">187</text>
</g>
<!-- N25 -->
<g id="node26" class="node"><title>N25</title>
<polygon fill="none" stroke="black" points="460.25,-455.5 367.75,-455.5 367.75,-402.5 460.25,-402.5 460.25,-455.5"/>
<text text-anchor="middle" x="414" y="-440.7" font-family="Times,serif" font-size="13.50">exitsyscallfast</text>
<text text-anchor="end" x="452.5" y="-425.7" font-family="Times,serif" font-size="13.50">15 (1.2%)</text>
<text text-anchor="end" x="452.5" y="-410.7" font-family="Times,serif" font-size="13.50">of 44 (3.6%)</text>
</g>
<!-- N24&#45;&gt;N25 -->
<g id="edge11" class="edge"><title>N24&#45;&gt;N25</title>
<path fill="none" stroke="black" d="M414,-508.334C414,-495.913 414,-480.225 414,-466.157"/>
<polygon fill="black" stroke="black" points="417.5,-465.795 414,-455.795 410.5,-465.795 417.5,-465.795"/>
<text text-anchor="middle" x="421.5" y="-478.3" font-family="Times,serif" font-size="14.00">44</text>
</g>
<!-- N27 -->
<g id="node28" class="node"><title>N27</title>
<polygon fill="none" stroke="black" points="446,-350 382,-350 382,-312 446,-312 446,-350"/>
<text text-anchor="middle" x="414" y="-338.48" font-family="Times,serif" font-size="9.40">runtime.lock</text>
<text text-anchor="end" x="438" y="-328.48" font-family="Times,serif" font-size="9.40">1 (0.1%)</text>
<text text-anchor="end" x="438" y="-318.48" font-family="Times,serif" font-size="9.40">of 12 (1.0%)</text>
</g>
<!-- N25&#45;&gt;N27 -->
<g id="edge2" class="edge"><title>N25&#45;&gt;N27</title>
<path fill="none" stroke="black" d="M414,-402.274C414,-389.302 414,-373.541 414,-360.235"/>
<polygon fill="black" stroke="black" points="417.5,-360.191 414,-350.191 410.5,-360.191 417.5,-360.191"/>
<text text-anchor="middle" x="421.5" y="-372.3" font-family="Times,serif" font-size="14.00">12</text>
</g>
<!-- N30 -->
<g id="node31" class="node"><title>N30</title>
<polygon fill="none" stroke="black" points="362,-348.5 280,-348.5 280,-313.5 362,-313.5 362,-348.5"/>
<text text-anchor="middle" x="321" y="-338.1" font-family="Times,serif" font-size="8.00">runtime.notewakeup</text>
<text text-anchor="end" x="354" y="-329.1" font-family="Times,serif" font-size="8.00">0 (0.0%)</text>
<text text-anchor="end" x="354" y="-320.1" font-family="Times,serif" font-size="8.00">of 7 (0.6%)</text>
</g>
<!-- N25&#45;&gt;N30 -->
<g id="edge17" class="edge"><title>N25&#45;&gt;N30</title>
<path fill="none" stroke="black" d="M389.078,-402.274C375.186,-387.934 357.993,-370.187 344.361,-356.115"/>
<polygon fill="black" stroke="black" points="346.67,-353.467 337.198,-348.72 341.642,-358.338 346.67,-353.467"/>
<text text-anchor="middle" x="375" y="-372.3" font-family="Times,serif" font-size="14.00">6</text>
</g>
<!-- N28 -->
<g id="node29" class="node"><title>N28</title>
<polygon fill="none" stroke="black" points="454.25,-260 373.75,-260 373.75,-224 454.25,-224 454.25,-260"/>
<text text-anchor="middle" x="414" y="-246" font-family="Times,serif" font-size="12.50">runtime.casp</text>
<text text-anchor="end" x="446.5" y="-232" font-family="Times,serif" font-size="12.50">10 (0.8%)</text>
</g>
<!-- N27&#45;&gt;N28 -->
<g id="edge18" class="edge"><title>N27&#45;&gt;N28</title>
<path fill="none" stroke="black" d="M414,-311.974C414,-299.956 414,-283.934 414,-270.357"/>
<polygon fill="black" stroke="black" points="417.5,-270.115 414,-260.115 410.5,-270.115 417.5,-270.115"/>
<text text-anchor="middle" x="418" y="-282.3" font-family="Times,serif" font-size="14.00">9</text>
</g>
<!-- N29 -->
<g id="node30" class="node"><title>N29</title>
<polygon fill="none" stroke="black" points="363,-171.5 263,-171.5 263,-136.5 363,-136.5 363,-171.5"/>
<text text-anchor="middle" x="313" y="-161.1" font-family="Times,serif" font-size="8.00">runtime.mach_semrelease</text>
<text text-anchor="end" x="355" y="-152.1" font-family="Times,serif" font-size="8.00">0 (0.0%)</text>
<text text-anchor="end" x="355" y="-143.1" font-family="Times,serif" font-size="8.00">of 7 (0.6%)</text>
</g>
<!-- N29&#45;&gt;N21 -->
<g id="edge24" class="edge"><title>N29&#45;&gt;N21</title>
<path fill="none" stroke="black" d="M313,-136.293C313,-122.261 313,-101.627 313,-83.3293"/>
<polygon fill="black" stroke="black" points="316.5,-83.1784 313,-73.1785 309.5,-83.1785 316.5,-83.1784"/>
<text text-anchor="middle" x="317" y="-106.3" font-family="Times,serif" font-size="14.00">7</text>
</g>
<!-- N31 -->
<g id="node32" class="node"><title>N31</title>
<polygon fill="none" stroke="black" points="355.25,-259.5 270.75,-259.5 270.75,-224.5 355.25,-224.5 355.25,-259.5"/>
<text text-anchor="middle" x="313" y="-249.1" font-family="Times,serif" font-size="8.00">runtime.semawakeup</text>
<text text-anchor="end" x="347.5" y="-240.1" font-family="Times,serif" font-size="8.00">0 (0.0%)</text>
<text text-anchor="end" x="347.5" y="-231.1" font-family="Times,serif" font-size="8.00">of 7 (0.6%)</text>
</g>
<!-- N30&#45;&gt;N31 -->
<g id="edge5" class="edge"><title>N30&#45;&gt;N31</title>
<path fill="none" stroke="black" d="M319.458,-313.226C318.329,-300.949 316.773,-284.036 315.472,-269.884"/>
<polygon fill="black" stroke="black" points="318.939,-269.36 314.538,-259.723 311.968,-270.001 318.939,-269.36"/>
<text text-anchor="middle" x="322" y="-282.3" font-family="Times,serif" font-size="14.00">7</text>
</g>
<!-- N31&#45;&gt;N29 -->
<g id="edge10" class="edge"><title>N31&#45;&gt;N29</title>
<path fill="none" stroke="black" d="M313,-224.418C313,-212.283 313,-195.564 313,-181.575"/>
<polygon fill="black" stroke="black" points="316.5,-181.531 313,-171.531 309.5,-181.531 316.5,-181.531"/>
<text text-anchor="middle" x="317" y="-194.3" font-family="Times,serif" font-size="14.00">7</text>
</g>
</g>
</g></svg>
