<?xml version="1.0" encoding="UTF-8" standalone="no"?>
<!-- Created with Inkscape (http://www.inkscape.org/) -->

<svg
   xmlns:dc="http://purl.org/dc/elements/1.1/"
   xmlns:cc="http://creativecommons.org/ns#"
   xmlns:rdf="http://www.w3.org/1999/02/22-rdf-syntax-ns#"
   xmlns:svg="http://www.w3.org/2000/svg"
   xmlns="http://www.w3.org/2000/svg"
   xmlns:xlink="http://www.w3.org/1999/xlink"
   xmlns:sodipodi="http://sodipodi.sourceforge.net/DTD/sodipodi-0.dtd"
   xmlns:inkscape="http://www.inkscape.org/namespaces/inkscape"
   width="744.09448819"
   height="1052.3622047"
   id="svg2"
   version="1.1"
   inkscape:version="0.48+devel r10124"
   sodipodi:docname="picky.svg"
   inkscape:export-filename="/Users/paurea/Desktop/Q Shared Files/icos/picky.png"
   inkscape:export-xdpi="55.164867"
   inkscape:export-ydpi="55.164867">
  <defs
     id="defs4">
    <linearGradient
       id="linearGradient4208">
      <stop
         style="stop-color:#d40000;stop-opacity:0.49516907;"
         offset="0"
         id="stop4210" />
      <stop
         id="stop4216"
         offset="0.5"
         style="stop-color:#d40000;stop-opacity:0.74509804;" />
      <stop
         style="stop-color:#d40000;stop-opacity:1;"
         offset="1"
         id="stop4212" />
    </linearGradient>
    <linearGradient
       id="linearGradient4105">
      <stop
         style="stop-color:#0c0000;stop-opacity:1;"
         offset="0"
         id="stop4107" />
      <stop
         id="stop4109"
         offset="0.00000763"
         style="stop-color:#130000;stop-opacity:0.99607843;" />
      <stop
         id="stop4111"
         offset="0.00001526"
         style="stop-color:#1b0000;stop-opacity:0.99607843;" />
      <stop
         id="stop4113"
         offset="0.00005395"
         style="stop-color:#2b0000;stop-opacity:0.99607843;" />
      <stop
         style="stop-color:#2b0000;stop-opacity:0.99607843;"
         offset="0.00005749"
         id="stop4149" />
      <stop
         id="stop4115"
         offset="0.00006103"
         style="stop-color:#2b0000;stop-opacity:0.99607843;" />
      <stop
         id="stop4117"
         offset="0.00012207"
         style="stop-color:#2b0000;stop-opacity:0.99607843;" />
      <stop
         id="stop4119"
         offset="0.00024414"
         style="stop-color:#2b0000;stop-opacity:0.99607843;" />
      <stop
         id="stop4121"
         offset="0.00048828"
         style="stop-color:#2b0000;stop-opacity:0.99215686;" />
      <stop
         id="stop4123"
         offset="0.00097656"
         style="stop-color:#2b0000;stop-opacity:0.98823529;" />
      <stop
         id="stop4125"
         offset="0.00195312"
         style="stop-color:#2b0000;stop-opacity:0.98039216;" />
      <stop
         style="stop-color:#2b0000;stop-opacity:0.98039216;"
         offset="0.00292968"
         id="stop4127" />
      <stop
         id="stop4129"
         offset="0.00390625"
         style="stop-color:#2b0000;stop-opacity:0.98039216;" />
      <stop
         id="stop4131"
         offset="0.0078125"
         style="stop-color:#2b0000;stop-opacity:0.98039216;" />
      <stop
         id="stop4133"
         offset="0.015625"
         style="stop-color:#2b0000;stop-opacity:0.97647059;" />
      <stop
         style="stop-color:#2b0000;stop-opacity:0.96862745;"
         offset="0.03125"
         id="stop4135" />
      <stop
         style="stop-color:#2b0000;stop-opacity:0.9372549;"
         offset="0.09142192"
         id="stop4137" />
      <stop
         id="stop4151"
         offset="0.10821096"
         style="stop-color:#2b0000;stop-opacity:0.90588235;" />
      <stop
         style="stop-color:#2b0000;stop-opacity:0.8745098;"
         offset="0.125"
         id="stop4139" />
      <stop
         id="stop4141"
         offset="0.1875"
         style="stop-color:#2b0000;stop-opacity:0.81176471;" />
      <stop
         style="stop-color:#2b0000;stop-opacity:0.74901961;"
         offset="0.25"
         id="stop4143" />
      <stop
         style="stop-color:#2b0000;stop-opacity:0.49803922;"
         offset="0.5"
         id="stop4145" />
      <stop
         id="stop4147"
         offset="1"
         style="stop-color:#2b0000;stop-opacity:0;" />
    </linearGradient>
    <linearGradient
       id="linearGradient4061">
      <stop
         id="stop4063"
         offset="0"
         style="stop-color:#0c0000;stop-opacity:1;" />
      <stop
         style="stop-color:#130000;stop-opacity:0.99607843;"
         offset="0.00000763"
         id="stop4103" />
      <stop
         style="stop-color:#1b0000;stop-opacity:0.99607843;"
         offset="0.00001526"
         id="stop4101" />
      <stop
         style="stop-color:#2b0000;stop-opacity:0.99607843;"
         offset="0.00003052"
         id="stop4097" />
      <stop
         style="stop-color:#2b0000;stop-opacity:0.99607843;"
         offset="0.00006103"
         id="stop4065" />
      <stop
         style="stop-color:#2b0000;stop-opacity:0.99607843;"
         offset="0.00012207"
         id="stop4067" />
      <stop
         style="stop-color:#2b0000;stop-opacity:0.99607843;"
         offset="0.00024414"
         id="stop4069" />
      <stop
         style="stop-color:#2b0000;stop-opacity:0.99215686;"
         offset="0.00048828"
         id="stop4071" />
      <stop
         style="stop-color:#2b0000;stop-opacity:0.98823529;"
         offset="0.00097656"
         id="stop4073" />
      <stop
         style="stop-color:#2b0000;stop-opacity:0.98039216;"
         offset="0.00195312"
         id="stop4075" />
      <stop
         id="stop4077"
         offset="0.00292968"
         style="stop-color:#2b0000;stop-opacity:0.98039216;" />
      <stop
         style="stop-color:#2b0000;stop-opacity:0.98039216;"
         offset="0.00390625"
         id="stop4079" />
      <stop
         style="stop-color:#2b0000;stop-opacity:0.98039216;"
         offset="0.0078125"
         id="stop4081" />
      <stop
         style="stop-color:#2b0000;stop-opacity:0.97647059;"
         offset="0.015625"
         id="stop4083" />
      <stop
         id="stop4085"
         offset="0.03125"
         style="stop-color:#2b0000;stop-opacity:0.96862745;" />
      <stop
         id="stop4087"
         offset="0.0625"
         style="stop-color:#2b0000;stop-opacity:0.9372549;" />
      <stop
         id="stop4089"
         offset="0.125"
         style="stop-color:#2b0000;stop-opacity:0.8745098;" />
      <stop
         style="stop-color:#2b0000;stop-opacity:0.81176471;"
         offset="0.1875"
         id="stop4099" />
      <stop
         id="stop4091"
         offset="0.25"
         style="stop-color:#2b0000;stop-opacity:0.74901961;" />
      <stop
         id="stop4093"
         offset="0.5"
         style="stop-color:#2b0000;stop-opacity:0.49803922;" />
      <stop
         style="stop-color:#2b0000;stop-opacity:0;"
         offset="1"
         id="stop4095" />
    </linearGradient>
    <linearGradient
       id="linearGradient4025">
      <stop
         style="stop-color:#2b0000;stop-opacity:1;"
         offset="0"
         id="stop4027" />
      <stop
         id="stop4029"
         offset="0.00006103"
         style="stop-color:#2b0000;stop-opacity:0.99607843;" />
      <stop
         id="stop4031"
         offset="0.00012207"
         style="stop-color:#2b0000;stop-opacity:0.99607843;" />
      <stop
         id="stop4033"
         offset="0.00024414"
         style="stop-color:#2b0000;stop-opacity:0.99607843;" />
      <stop
         id="stop4035"
         offset="0.00048828"
         style="stop-color:#2b0000;stop-opacity:0.99215686;" />
      <stop
         id="stop4037"
         offset="0.00097656"
         style="stop-color:#2b0000;stop-opacity:0.98823529;" />
      <stop
         id="stop4039"
         offset="0.00195312"
         style="stop-color:#2b0000;stop-opacity:0.98039216;" />
      <stop
         style="stop-color:#2b0000;stop-opacity:0.98039216;"
         offset="0.00292968"
         id="stop4041" />
      <stop
         id="stop4043"
         offset="0.00390625"
         style="stop-color:#2b0000;stop-opacity:0.98039216;" />
      <stop
         id="stop4045"
         offset="0.0078125"
         style="stop-color:#2b0000;stop-opacity:0.98039216;" />
      <stop
         id="stop4047"
         offset="0.015625"
         style="stop-color:#2b0000;stop-opacity:0.97647059;" />
      <stop
         style="stop-color:#2b0000;stop-opacity:0.96862745;"
         offset="0.03125"
         id="stop4049" />
      <stop
         style="stop-color:#2b0000;stop-opacity:0.9372549;"
         offset="0.0625"
         id="stop4051" />
      <stop
         style="stop-color:#2b0000;stop-opacity:0.8745098;"
         offset="0.125"
         id="stop4053" />
      <stop
         style="stop-color:#2b0000;stop-opacity:0.74901961;"
         offset="0.25"
         id="stop4055" />
      <stop
         style="stop-color:#2b0000;stop-opacity:0.49803922;"
         offset="0.5"
         id="stop4057" />
      <stop
         id="stop4059"
         offset="1"
         style="stop-color:#2b0000;stop-opacity:0;" />
    </linearGradient>
    <linearGradient
       id="linearGradient3917">
      <stop
         id="stop4165"
         offset="0"
         style="stop-color:#cc0000;stop-opacity:0.63043481;" />
      <stop
         style="stop-color:#b70000;stop-opacity:0.72705317;"
         offset="0.125"
         id="stop4173" />
      <stop
         style="stop-color:#a30000;stop-opacity:0.942029;"
         offset="0.25"
         id="stop4171" />
      <stop
         style="stop-color:#7b0000;stop-opacity:0.72463769;"
         offset="0.5"
         id="stop4169" />
      <stop
         style="stop-color:#2b0000;stop-opacity:0.31642511;"
         offset="1"
         id="stop3921" />
    </linearGradient>
    <linearGradient
       id="linearGradient3858">
      <stop
         id="stop3866"
         offset="0"
         style="stop-color:#0d0000;stop-opacity:0.66326529;" />
      <stop
         style="stop-color:#060000;stop-opacity:0.24705882;"
         offset="0.5"
         id="stop3868" />
      <stop
         style="stop-color:#000000;stop-opacity:0;"
         offset="1"
         id="stop3862" />
    </linearGradient>
    <linearGradient
       inkscape:collect="always"
       xlink:href="#linearGradient3917"
       id="linearGradient111"
       gradientUnits="userSpaceOnUse"
       x1="168.82471"
       y1="353.21497"
       x2="186.21097"
       y2="353.21497" />
    <radialGradient
       inkscape:collect="always"
       xlink:href="#linearGradient3858"
       id="radialGradient165"
       gradientUnits="userSpaceOnUse"
       gradientTransform="matrix(1,0,0,2.1742032,0,-308.92175)"
       cx="177.51784"
       cy="263.09055"
       fx="177.51784"
       fy="263.09055"
       r="23.258698" />
    <radialGradient
       inkscape:collect="always"
       xlink:href="#linearGradient3858"
       id="radialGradient232"
       gradientUnits="userSpaceOnUse"
       gradientTransform="matrix(1,0,0,2.1742032,0,-308.92175)"
       cx="177.51784"
       cy="263.09055"
       fx="177.51784"
       fy="263.09055"
       r="23.258698" />
    <linearGradient
       inkscape:collect="always"
       xlink:href="#linearGradient3917"
       id="linearGradient236"
       gradientUnits="userSpaceOnUse"
       x1="168.82471"
       y1="353.21497"
       x2="186.21097"
       y2="353.21497"
       gradientTransform="translate(84.587698,0.5715385)" />
    <radialGradient
       inkscape:collect="always"
       xlink:href="#linearGradient4208"
       id="radialGradient245"
       gradientUnits="userSpaceOnUse"
       gradientTransform="matrix(0.78002937,0.62574291,-0.30676412,0.38240149,112.35891,-74.963335)"
       cx="315.89072"
       cy="133.82114"
       fx="315.89072"
       fy="133.82114"
       r="114.29349" />
    <radialGradient
       inkscape:collect="always"
       xlink:href="#linearGradient4208"
       id="radialGradient1123"
       gradientUnits="userSpaceOnUse"
       gradientTransform="matrix(0.78002937,0.62574291,-0.30676412,0.38240149,112.35891,-74.963335)"
       cx="315.89072"
       cy="133.82114"
       fx="315.89072"
       fy="133.82114"
       r="114.29349" />
    <radialGradient
       inkscape:collect="always"
       xlink:href="#linearGradient4208"
       id="radialGradient1128"
       gradientUnits="userSpaceOnUse"
       gradientTransform="matrix(0.78002937,0.62574291,-0.30676412,0.38240149,112.35891,-74.963335)"
       cx="315.89072"
       cy="133.82114"
       fx="315.89072"
       fy="133.82114"
       r="114.29349" />
    <clipPath
       clipPathUnits="userSpaceOnUse"
       id="clipPath1330">
      <path
         sodipodi:type="arc"
         style="opacity:0.49137932;fill:#ff0000;fill-opacity:0.49019608;stroke:#e6e6e6;stroke-width:0.1;stroke-miterlimit:4;stroke-opacity:1;stroke-dasharray:none"
         id="path1332"
         sodipodi:cx="259.16232"
         sodipodi:cy="398.68558"
         sodipodi:rx="205.65106"
         sodipodi:ry="81.840729"
         d="m 464.81339,398.68558 a 205.65106,81.840729 0 1 1 -411.302129,0 205.65106,81.840729 0 1 1 411.302129,0 z" />
    </clipPath>
    <clipPath
       clipPathUnits="userSpaceOnUse"
       id="clipPath1334">
      <path
         sodipodi:type="arc"
         style="opacity:0.49137932;fill:#ff0000;fill-opacity:0.49019608;stroke:#e6e6e6;stroke-width:0.1;stroke-miterlimit:4;stroke-opacity:1;stroke-dasharray:none"
         id="path1336"
         sodipodi:cx="259.16232"
         sodipodi:cy="398.68558"
         sodipodi:rx="205.65106"
         sodipodi:ry="81.840729"
         d="m 464.81339,398.68558 a 205.65106,81.840729 0 1 1 -411.302129,0 205.65106,81.840729 0 1 1 411.302129,0 z" />
    </clipPath>
    <clipPath
       clipPathUnits="userSpaceOnUse"
       id="clipPath1338">
      <path
         sodipodi:type="arc"
         style="opacity:0.49137932;fill:#ff0000;fill-opacity:0.49019608;stroke:#e6e6e6;stroke-width:0.1;stroke-miterlimit:4;stroke-opacity:1;stroke-dasharray:none"
         id="path1340"
         sodipodi:cx="259.16232"
         sodipodi:cy="398.68558"
         sodipodi:rx="205.65106"
         sodipodi:ry="81.840729"
         d="m 464.81339,398.68558 a 205.65106,81.840729 0 1 1 -411.302129,0 205.65106,81.840729 0 1 1 411.302129,0 z" />
    </clipPath>
    <clipPath
       clipPathUnits="userSpaceOnUse"
       id="clipPath1342">
      <path
         sodipodi:type="arc"
         style="opacity:0.49137932;fill:#ff0000;fill-opacity:0.49019608;stroke:#e6e6e6;stroke-width:0.1;stroke-miterlimit:4;stroke-opacity:1;stroke-dasharray:none"
         id="path1344"
         sodipodi:cx="259.16232"
         sodipodi:cy="398.68558"
         sodipodi:rx="205.65106"
         sodipodi:ry="81.840729"
         d="m 464.81339,398.68558 a 205.65106,81.840729 0 1 1 -411.302129,0 205.65106,81.840729 0 1 1 411.302129,0 z" />
    </clipPath>
    <clipPath
       clipPathUnits="userSpaceOnUse"
       id="clipPath1346">
      <path
         sodipodi:type="arc"
         style="opacity:0.49137932;fill:#ff0000;fill-opacity:0.49019608;stroke:#e6e6e6;stroke-width:0.1;stroke-miterlimit:4;stroke-opacity:1;stroke-dasharray:none"
         id="path1348"
         sodipodi:cx="259.16232"
         sodipodi:cy="398.68558"
         sodipodi:rx="205.65106"
         sodipodi:ry="81.840729"
         d="m 464.81339,398.68558 a 205.65106,81.840729 0 1 1 -411.302129,0 205.65106,81.840729 0 1 1 411.302129,0 z" />
    </clipPath>
    <clipPath
       clipPathUnits="userSpaceOnUse"
       id="clipPath1350">
      <path
         sodipodi:type="arc"
         style="opacity:0.49137932;fill:#ff0000;fill-opacity:0.49019608;stroke:#e6e6e6;stroke-width:0.1;stroke-miterlimit:4;stroke-opacity:1;stroke-dasharray:none"
         id="path1352"
         sodipodi:cx="259.16232"
         sodipodi:cy="398.68558"
         sodipodi:rx="205.65106"
         sodipodi:ry="81.840729"
         d="m 464.81339,398.68558 a 205.65106,81.840729 0 1 1 -411.302129,0 205.65106,81.840729 0 1 1 411.302129,0 z" />
    </clipPath>
    <clipPath
       clipPathUnits="userSpaceOnUse"
       id="clipPath1354">
      <path
         sodipodi:type="arc"
         style="opacity:0.49137932;fill:#ff0000;fill-opacity:0.49019608;stroke:#e6e6e6;stroke-width:0.1;stroke-miterlimit:4;stroke-opacity:1;stroke-dasharray:none"
         id="path1356"
         sodipodi:cx="259.16232"
         sodipodi:cy="398.68558"
         sodipodi:rx="205.65106"
         sodipodi:ry="81.840729"
         d="m 464.81339,398.68558 a 205.65106,81.840729 0 1 1 -411.302129,0 205.65106,81.840729 0 1 1 411.302129,0 z" />
    </clipPath>
  </defs>
  <sodipodi:namedview
     id="base"
     pagecolor="#ffffff"
     bordercolor="#666666"
     borderopacity="1.0"
     inkscape:pageopacity="0.0"
     inkscape:pageshadow="2"
     inkscape:zoom="0.95307068"
     inkscape:cx="242.06864"
     inkscape:cy="803.63908"
     inkscape:document-units="px"
     inkscape:current-layer="layer1"
     showgrid="false"
     inkscape:window-width="1405"
     inkscape:window-height="805"
     inkscape:window-x="0"
     inkscape:window-y="0"
     inkscape:window-maximized="0" />
  <metadata
     id="metadata7">
    <rdf:RDF>
      <cc:Work
         rdf:about="">
        <dc:format>image/svg+xml</dc:format>
        <dc:type
           rdf:resource="http://purl.org/dc/dcmitype/StillImage" />
        <dc:title />
      </cc:Work>
    </rdf:RDF>
  </metadata>
  <g
     inkscape:label="Layer 1"
     inkscape:groupmode="layer"
     id="layer1">
    <rect
       style="fill:url(#linearGradient111);fill-opacity:1;stroke:#000000;stroke-opacity:1"
       id="rect3907"
       width="16.386263"
       height="87.393402"
       x="169.32471"
       y="309.51828" />
    <path
       sodipodi:type="arc"
       style="fill:#000000;stroke:url(#radialGradient165);stroke-opacity:1"
       id="path3069"
       sodipodi:cx="177.51784"
       sodipodi:cy="263.09055"
       sodipodi:rx="22.758698"
       sodipodi:ry="50.069134"
       d="m 200.27654,263.09055 a 22.758698,50.069134 0 1 1 -45.5174,0 22.758698,50.069134 0 1 1 45.5174,0 z"
       inkscape:transform-center-x="-7.2827833"
       inkscape:transform-center-y="25.489741" />
    <path
       sodipodi:type="arc"
       style="fill:#666666;stroke:#000000;stroke-opacity:1"
       id="path3872"
       sodipodi:cx="171.1454"
       sodipodi:cy="243.97324"
       sodipodi:rx="7.2827835"
       sodipodi:ry="10.924175"
       d="m 178.42818,243.97324 a 7.2827835,10.924175 0 1 1 -14.56556,0 7.2827835,10.924175 0 1 1 14.56556,0 z" />
    <path
       style="fill:#aa0000;fill-opacity:1;stroke:#000000;stroke-width:1;stroke-opacity:1"
       d="m 344.5,250.65625 c 4.2141,12.33351 9.58082,25.87381 15.96875,39.875 10.86182,23.80715 22.62989,44.5411 33.03125,59.15625 -3.83317,0.19244 -7.83812,0.5861 -12,1.21875 -25.33329,3.85094 -45.875,14.70154 -45.875,24.21875 0,9.51721 20.54171,14.10094 45.875,10.25 25.33329,-3.85094 45.875,-14.70154 45.875,-24.21875 0,-2.6041 -1.55986,-4.83029 -4.3125,-6.625 -1.85901,-18.07063 -11.29909,-48.12923 -26.125,-80.625 -3.12199,-6.84284 -6.31254,-13.42121 -9.53125,-19.6875 -5.18018,1.28343 -10.60179,2 -16.1875,2 -9.51557,0 -18.54641,-2.00132 -26.71875,-5.5625 z"
       id="path4280"
       inkscape:connector-curvature="0" />
    <rect
       y="310.08981"
       x="253.9124"
       height="87.393402"
       width="16.386263"
       id="rect234"
       style="fill:url(#linearGradient236);fill-opacity:1;stroke:#000000;stroke-opacity:1" />
    <g
       id="g241">
      <g
         id="g238">
        <path
           inkscape:transform-center-y="25.489741"
           inkscape:transform-center-x="-7.2827833"
           d="m 200.27654,263.09055 a 22.758698,50.069134 0 1 1 -45.5174,0 22.758698,50.069134 0 1 1 45.5174,0 z"
           sodipodi:ry="50.069134"
           sodipodi:rx="22.758698"
           sodipodi:cy="263.09055"
           sodipodi:cx="177.51784"
           id="path228"
           style="fill:#000000;stroke:url(#radialGradient232);stroke-opacity:1"
           sodipodi:type="arc"
           transform="translate(84.587698,0)" />
      </g>
    </g>
    <path
       inkscape:connector-curvature="0"
       style="fill:url(#radialGradient1128);fill-opacity:1;stroke:#000000;stroke-width:1;stroke-opacity:1"
       d="m 259.8125,90.53125 c -4.54522,0.0026 -8.79423,0.426611 -12.6875,1.34375 l 67.84375,93.84375 -91.9375,-54.34375 c 3.97779,25.63841 25.99903,58.58691 59.9375,85.8125 49.02204,39.32569 104.30906,51.82901 123.5,27.90625 19.19094,-23.92276 -4.97796,-75.20556 -54,-114.53125 C 320.29803,104.75501 285.41031,90.516675 259.8125,90.53125 z"
       id="path4206" />
    <path
       style="fill:none;stroke:#000000;stroke-width:0.9918074px;stroke-linecap:butt;stroke-linejoin:miter;stroke-opacity:1"
       d="m 246.93292,91.496153 68.05156,94.684377"
       id="path4228"
       inkscape:connector-curvature="0" />
    <path
       style="fill:none;stroke:#000000;stroke-width:1px;stroke-linecap:butt;stroke-linejoin:miter;stroke-opacity:1"
       d="M 300.41481,251.25602 z"
       id="path4284"
       inkscape:connector-curvature="0" />
    <path
       d="m 178.42818,243.97324 a 7.2827835,10.924175 0 1 1 -14.56556,0 7.2827835,10.924175 0 1 1 14.56556,0 z"
       sodipodi:ry="10.924175"
       sodipodi:rx="7.2827835"
       sodipodi:cy="243.97324"
       sodipodi:cx="171.1454"
       id="path230"
       style="fill:#666666;stroke:#000000;stroke-opacity:1"
       sodipodi:type="arc"
       transform="translate(84.587698,0)" />
    <path
       style="fill:none;stroke:#000000;stroke-width:1.03712344px;stroke-linecap:butt;stroke-linejoin:miter;stroke-opacity:1"
       d="m 253.57136,188.92862 2.32508,-9.93134 12.0129,0.38197 0,-11.45924 10.85035,-3.43778"
       id="path1149"
       inkscape:connector-curvature="0" />
    <path
       style="fill:none;stroke:#000000;stroke-width:1.04927957px;stroke-linecap:butt;stroke-linejoin:miter;stroke-opacity:1"
       d="m 284.92377,143.85062 1.20842,-15.79777 14.50099,-1.8807 -0.4028,-15.42165 16.91783,-3.76136"
       id="path1151"
       inkscape:connector-curvature="0" />
    <path
       style="fill:#000000;fill-opacity:1;stroke:#000000;stroke-width:0.18219075;stroke-miterlimit:4;stroke-opacity:1;stroke-dasharray:none"
       d="m 275.08754,130.93052 c -19.52286,-27.86608 -27.61175,-39.493528 -27.52915,-39.571985 0.14342,-0.136183 3.49963,-0.600929 5.80005,-0.803147 3.19128,-0.280535 11.14222,-0.06309 15.03044,0.411046 15.01925,1.831496 30.97987,7.044178 48.51064,15.843416 1.86009,0.93361 3.30945,1.75685 3.22081,1.82938 -0.0887,0.0725 -3.86957,0.86136 -8.40201,1.75296 l -8.24089,1.62112 0.0329,6.55001 c 0.0182,3.60252 0.0164,7.36514 -0.004,8.3614 l -0.0366,1.81134 -7.85595,0.83249 c -4.32076,0.45783 -7.8738,0.84141 -7.89562,0.8523 -0.0219,0.011 -0.33474,3.04679 -0.69538,6.74636 -0.78533,8.05591 -0.90412,9.03693 -1.0938,9.0331 -0.0802,-0.002 -4.95892,-6.87304 -10.84165,-15.2698 z"
       id="path1217"
       inkscape:connector-curvature="0" />
    <path
       style="fill:#000000;fill-opacity:1;stroke:#000000;stroke-width:0.17206727;stroke-miterlimit:4;stroke-opacity:1;stroke-dasharray:none"
       d="m 251.6404,186.77515 c -13.13977,-15.76337 -23.24351,-33.80939 -27.27501,-48.71517 -0.62809,-2.32224 -1.49339,-6.23208 -1.40294,-6.33919 0.0282,-0.0332 12.41389,7.29189 27.5239,16.27828 15.10999,8.98638 27.44464,16.36712 27.41032,16.40163 -0.0343,0.0346 -2.33126,0.78569 -5.10434,1.66929 l -5.04195,1.60653 -0.0504,5.90146 -0.0505,5.90146 -1.76036,-0.11469 c -0.96822,-0.063 -3.73321,-0.1698 -6.14444,-0.23717 l -4.38407,-0.12247 -1.04858,4.56125 c -0.57673,2.50868 -1.13577,4.59048 -1.24231,4.62621 -0.10653,0.0358 -0.74975,-0.60211 -1.42934,-1.41742 l 0,0 z"
       id="path1219"
       inkscape:connector-curvature="0" />
    <g
       id="g1271"
       clip-path="url(#clipPath1354)">
      <path
         inkscape:connector-curvature="0"
         d="m 119.78053,358.07578 c 2.5351,0.9968 5.47232,-0.64313 7.95708,0.28978 1.2089,0.45389 1.30397,2.83182 2.59449,2.87677 3.76425,0.13112 7.27489,-2.38635 11.04138,-2.40178 1.90689,-0.008 3.34644,1.99311 5.22242,2.33515 2.68208,0.48902 5.45212,0.0721 8.17818,0.10814 24.36204,-2.521 -3.4658,-0.055 14.78496,-0.68162 2.04863,-0.0703 4.11061,-1.06711 6.11589,-0.64207 0.80809,0.17129 0.38681,1.91602 1.16753,2.18587 2.41537,0.83484 9.04791,-2.5693 10.10707,-3.00629 0.52118,0.44097 0.8809,1.33117 1.56356,1.32292 1.75091,-0.0212 4.0728,-2.84763 5.0623,-1.40297 1.45043,2.11763 -8.46389,6.3622 0.30188,3.74338 2.0698,-0.61837 5.2295,-4.42599 6.01442,-2.41345 0.87276,2.23777 -3.26156,3.52698 -4.89234,5.29047 2.29782,-0.88502 4.45638,-3.00703 6.89346,-2.65507 1.29789,0.18744 -2.03634,2.04238 -2.05676,3.35357 -0.0106,0.68097 1.3173,0.40228 1.99787,0.42767 1.03711,0.0387 2.07188,-0.34179 3.10444,-0.2373 0.65888,0.0667 1.2297,0.49207 1.84455,0.7381 1.07815,0.0145 2.1563,0.0291 3.23445,0.0436 11.0555,-0.37477 -1.29217,-0.19818 7.67993,0.29074 1.23791,0.0675 2.49314,-0.24318 3.7188,-0.0568 1.33301,0.20264 4.31283,2.4374 5.37464,3.32333 -0.0966,0.78181 -1.07521,2.4047 -0.2897,2.34541 1.04896,-0.0792 11.74089,-5.16309 13.5025,-4.87735 0.98536,0.15983 -0.11086,2.0343 -0.50347,2.95209 -0.67643,1.5813 -4.30042,3.93329 -2.65251,4.4257 2.60297,0.77778 5.06552,-1.96525 7.59828,-2.94788 0.33657,0.58981 0.36769,1.54821 1.00973,1.76944 3.83709,1.32213 9.54194,-4.35209 11.74142,-4.24028 1.77292,0.0901 -3.24546,2.49835 -3.17954,4.27233 0.0413,1.11127 2.23539,0.0292 3.33268,-0.15137 1.75277,-0.28837 3.45366,-0.83284 5.18049,-1.24927 1.3995,-0.208 2.78513,-0.689 4.1985,-0.62399 3.11737,0.14339 0.34201,2.03655 3.97522,1.18701 1.71196,-0.4003 3.20801,-1.47465 4.90057,-1.95037 0.57392,-0.16131 1.19279,0.11798 1.78708,0.0707 0.7244,-0.0576 1.43072,-0.25569 2.14608,-0.38354 -0.1855,0.47814 -0.45972,0.93076 -0.55649,1.43441 -0.39893,2.07627 2.17475,0.83616 2.83336,0.52528 1.39693,-0.65938 2.54054,-2.24978 4.08411,-2.18992 0.97414,0.0378 -1.22347,1.51809 -1.83521,2.27714 2.67037,1.45496 6.9664,-4.33393 9.37997,-3.32048 1.0689,0.44883 -3.00509,1.99392 -2.12743,2.75138 1.8944,1.63495 5.88914,-4.62325 2.20539,0.47854 -0.4911,0.63854 -2.23043,2.19072 -1.47331,1.91562 2.7236,-0.98958 4.91631,-3.15527 7.63626,-4.15485 0.74453,-0.27362 1.54807,0.34854 2.32803,0.49297 1.14235,0.21153 2.37529,0.10432 3.43759,0.57465 0.96013,0.4251 1.44048,1.63646 2.41866,2.01818 1.49204,0.58225 3.16118,0.51741 4.74177,0.77611 2.1077,-0.0976 4.23303,-0.58171 6.32309,-0.29268 1.17613,0.16265 1.99547,1.51209 3.17901,1.60671 10.79705,0.86314 0.78636,-2.92757 12.84845,-3.23525 0.72268,-0.0184 0.0454,1.44513 0.068,2.1677 2.21722,-0.98875 4.43443,-1.97749 6.65165,-2.96624 0.93863,-0.0709 1.87725,-0.14175 2.81588,-0.21263 -0.007,0.7807 -0.79959,2.39062 -0.0204,2.34209 2.84895,-0.17745 5.25353,-2.42707 8.0774,-2.84393 2.35114,-0.34707 5.75677,2.6733 7.83671,2.82861 2.53785,0.18951 5.05721,-0.57525 7.58581,-0.86288 2.1431,-0.16935 4.28619,-0.33869 6.42929,-0.50804 0.46008,0.83695 0.43206,2.39633 1.38024,2.51084 2.1005,0.25367 4.16725,-2.36272 6.1417,-1.60244 1.15335,0.44412 -2.72491,3.12569 -1.5162,3.38356 0.82363,0.17571 12.24501,-5.57457 12.37571,-5.63855 -0.59479,0.90041 -1.18958,1.80082 -1.78437,2.70123 0.58329,-0.004 1.84483,-0.58737 1.74988,-0.0118 -0.96827,5.86943 -13.71816,2.17187 6.87882,-2.85266 2.20667,-0.5383 -5.77326,2.44257 -5.03555,4.59081 0.689,2.00644 3.6871,-2.09934 5.53066,-3.14902 -0.12536,0.36605 -0.46868,0.72248 -0.37607,1.09816 0.0611,0.24798 0.5089,0.12483 0.71481,0.27594 3.7356,2.74144 -9.56446,1.37972 8.01074,-3.19289 0.88073,-0.22914 -0.92776,1.56715 -1.34372,2.37658 -0.33025,0.64266 -0.59509,1.31687 -0.89264,1.97531 1.97567,-0.99753 3.76919,-2.50053 5.92702,-2.99259 0.54487,-0.12424 0.28883,1.38554 0.84412,1.44855 1.91411,0.21719 3.82201,-0.91655 5.7364,-0.70186 1.50816,0.16913 2.71676,1.3969 4.17607,1.81349 5.33265,1.52231 7.8729,1.16266 13.51711,1.26053 3.45133,-0.88643 6.90266,-1.77285 10.35399,-2.65928 1.11596,0.54329 2.10725,1.59341 3.3479,1.62985 2.162,0.0635 4.21939,-0.9605 6.34787,-1.34502 1.43797,-0.25978 2.98926,-1.13346 4.34433,-0.58661 0.69238,0.27942 -1.02561,2.38037 -0.29635,2.22023 2.7397,-0.60162 5.0042,-2.53565 7.50629,-3.80348 7.53074,-3.93368 7.82876,-5.69862 5.29703,-0.88093 0,0 -45.92159,35.16334 -45.92159,35.16334 l 0,0 c -4.08837,0.62605 -2.71429,1.4159 -4.68915,-0.78716 -2.0635,0.7582 -4.127,1.5164 -6.1905,2.27459 -0.19396,-0.52738 -0.0208,-1.5506 -0.58188,-1.58216 -1.40242,-0.0789 -11.64658,3.29128 -12.17157,3.00646 -1.46968,-0.79734 0.75607,-3.25748 1.1341,-4.88622 -3.57012,0.97274 -7.14025,1.94547 -10.71038,2.91821 -1.32174,-0.86783 -2.38458,-2.56295 -3.96524,-2.60349 -3.66362,-0.094 -7.12703,1.79813 -10.76683,2.22568 -2.11368,0.24829 -4.25294,-0.21779 -6.38115,-0.21139 -1.70492,0.005 -3.43843,-0.0953 -5.10886,0.24591 -1.89444,0.38697 -5.10533,3.81392 -5.47507,1.91604 -0.44044,-2.26078 3.266,-3.24865 4.899,-4.87298 -8.21593,3.17555 -0.40373,0.46526 -6.38178,1.90955 -1.62471,0.39253 -3.17545,1.38476 -4.91161,0.94123 -0.42639,-0.10892 -0.45794,-0.87529 -0.89807,-0.96774 -1.59536,0.86935 -3.19072,1.7387 -4.78608,2.60805 0.68079,-0.80538 3.08825,-2.55105 2.04236,-2.41613 -1.98904,0.25659 -3.41016,2.18196 -5.30566,2.8371 -0.29879,0.10328 -0.0338,-0.76951 -0.3258,-0.89069 -2.11321,-0.87694 -2.29628,1.59236 -1.13477,-1.83982 -1.53902,-3.88532 0.38681,-0.18621 -7.74562,2.27468 -5.50017,1.66436 0.34196,-4.47775 -0.63365,-4.68128 -4.66047,-0.97222 -9.02727,5.39315 -14.05555,2.53542 -9.2296,-1.7554 -1.61594,-1.02303 -14.65612,1.31061 -14.72421,2.63501 -1.35998,1.13255 -7.64935,-1.29827 -3.7927,-1.46587 -10.51467,3.77147 -11.91009,4.49385 0.53336,-1.01037 1.49072,-1.89384 1.60008,-3.0311 0.0575,-0.59788 -0.95166,-0.80741 -1.17743,-1.36399 -0.31416,-0.77448 0.45451,-2.49374 -0.38112,-2.47819 -2.8849,0.0537 -5.39498,2.18325 -8.24421,2.63871 -3.53783,0.56554 -7.15072,-2.5035 -10.7396,-0.43086 -3.20726,0.91543 -6.32178,2.262 -9.62177,2.7463 -1.43209,0.21017 -2.83754,-0.67252 -4.28459,-0.70543 -1.68654,-0.0384 -3.35003,0.46832 -5.03682,0.49344 -0.93114,0.0139 -2.49833,0.51409 -2.76814,-0.37721 -0.33435,-1.1045 2.8865,-3.18551 1.74964,-2.98734 -2.60563,0.45418 -4.61127,2.59203 -6.91691,3.88804 1.92347,-1.70067 6.80499,-2.75218 5.77042,-5.10202 -0.98918,-2.24676 -4.08194,2.92414 -6.45857,3.53902 -1.0173,0.26319 3.04547,-2.72427 2.04674,-2.3976 -2.33331,0.76319 -3.98984,2.99953 -6.31302,3.79303 -0.86397,0.2951 1.09134,-1.46394 1.63701,-2.19591 -1.38891,0.6742 -2.77782,1.3484 -4.16673,2.0226 0.21257,-0.46877 0.35478,-0.97633 0.6377,-1.4063 0.44534,-0.67679 2.25168,-1.51981 1.53019,-1.88832 -0.91074,-0.46518 -1.85848,0.8562 -2.80818,1.23556 -0.73903,0.29521 -1.47772,0.61199 -2.25414,0.78661 -0.41703,0.0938 -1.21859,0.43142 -1.28231,0.009 -0.10133,-0.67212 0.67812,-1.17822 1.01718,-1.76733 -1.14471,0.44042 -2.2655,0.94895 -3.43414,1.32127 -0.91259,0.29076 -2.04155,1.25401 -2.79569,0.66356 -0.61853,-0.48428 1.19446,-1.51664 0.82243,-2.20852 -0.34712,-0.64554 -1.44792,-0.23346 -2.17683,-0.31028 -2.8222,-0.29739 -3.075,-0.2038 -6.09597,-0.18456 -4.75174,-2.42611 1.08719,-0.0551 -7.8415,0.89044 -0.53832,0.057 -0.63688,-0.91018 -1.09387,-1.20035 -0.55665,-0.35346 -1.20289,-0.73577 -1.85946,-0.67492 -3.41462,0.31645 -6.52448,2.36069 -10.02058,2.32929 -15.78583,4.90622 -0.49732,1.55806 -2.29539,-3.66104 -0.63514,-1.84357 -3.77597,1.04859 -5.71617,1.243 -0.0454,0.005 -5.746,-0.14444 -6.18048,-1.18746 -0.39619,-0.9511 0.57918,-1.97758 0.86877,-2.96637 -1.40415,0.14972 -2.8371,0.12908 -4.21246,0.44917 -2.16168,0.50308 -4.13459,1.84703 -6.34814,2.0086 -4.71498,0.34415 2.29122,-3.7925 -1.62471,-3.88688 -10.58458,-0.25509 -5.07796,4.87767 -8.84208,0.74894 -0.58378,-0.38959 -1.18673,-0.75188 -1.75134,-1.16877 -0.42053,-0.31051 -0.68355,-0.92656 -1.19956,-1.01013 -0.97485,-0.15787 -1.97709,0.54403 -2.94317,0.33921 -0.53535,-0.11351 -0.61572,-0.98751 -1.11977,-1.20062 -1.48294,-0.62696 -4.14786,-0.22989 -5.58384,-0.12832 -1.07371,0.19194 -2.15758,0.81782 -3.22113,0.57583 -0.48029,-0.10928 0.001,-1.19741 -0.44342,-1.40963 -0.71753,-0.34255 -1.61668,0.26574 -2.38458,0.0595 -2.03551,-0.54665 -1.05557,-3.16067 -4.49361,-2.2576 -0.82542,-0.0551 -1.67189,-0.35863 -2.47625,-0.16537 -4.46537,1.07286 -6.87742,3.38308 -11.53267,2.92612 -2.66446,-0.26154 -4.31934,-2.37296 -6.08383,-4.00923 -2.70023,-0.51295 -5.4872,0.32872 -8.23079,0.49309 -2.40907,-0.27879 -4.80301,-0.90432 -7.2272,-0.83636 -3.49265,0.0979 -6.931181,1.77108 -10.397307,1.3304 -1.555735,-0.19779 -2.040776,-2.63309 -3.537285,-3.10202 -2.124404,-0.66568 -4.452738,-0.16412 -6.678043,-0.099 -2.271603,0.0665 -7.919503,0.65422 -10.511332,0.90975 0,0 45.845907,-32.16581 45.845907,-32.16581 z"
         id="path1258"
         style="opacity:0.49137932;fill:#00b9ff;fill-opacity:1;stroke:#e6e6e6;stroke-width:0.1;stroke-miterlimit:4;stroke-opacity:1;stroke-dasharray:none" />
      <path
         inkscape:connector-curvature="0"
         d="m 435.72813,381.96338 c 0.74349,-0.70172 3.10714,-2.63115 2.23047,-2.10518 -2.27971,1.36774 -8.79921,5.94835 -6.47747,4.65323 15.22198,-8.49118 30.02386,-17.71949 45.21663,-26.26284 0.52661,-0.29613 2.23955,-0.59655 1.80372,-0.17814 -1.16555,1.11898 -2.77549,1.6554 -4.17805,2.45758 -17.67724,10.11035 -35.37401,20.18655 -53.06101,30.27982 -2.49673,1.53389 -4.77622,3.49676 -7.4902,4.60168 -0.44885,0.18274 -0.22771,-0.94213 -0.34157,-1.41319 -0.90721,0.1399 -1.91483,-0.0181 -2.72163,0.41971 -3.8226,2.07433 -7.1024,5.08508 -10.99549,7.02387 -0.58413,0.2909 0.41339,-1.2379 0.62009,-1.85685 -3.13873,2.09176 -6.27747,4.18353 -9.41621,6.27529 -0.20673,-1.23261 0.0697,-1.22825 -1.79721,-0.26981 -1.29945,0.66714 -5.03042,2.97189 -3.76518,2.24195 15.02756,-8.66955 29.9055,-17.60172 45.05242,-26.06099 0.96206,-0.53729 4.03378,-1.58425 3.18661,-0.87959 -1.48231,1.23295 -3.46176,1.69877 -5.19264,2.54816 -130.74929,76.66557 -11.13858,5.47869 -8.44928,3.92558 0.85765,-0.4953 2.8987,-1.82757 2.85047,-0.83834 -0.0521,1.06932 -2.19366,0.60117 -2.879,1.42365 -0.43296,0.51959 1.33072,-0.2427 1.99608,-0.36405 -0.91008,0.49074 -1.82016,0.98148 -2.73025,1.47221 -17.84395,10.4694 -35.68789,20.93879 -53.53184,31.40818 -0.81226,0.0906 -2.43798,1.08918 -2.43678,0.27187 0.002,-1.5678 3.96986,-3.66673 2.44228,-4.01963 -2.37089,-0.54771 -4.40673,2.06613 -6.63147,3.05187 -12.3859,5.48793 -0.70633,-0.15224 -15.34449,7.20451 -3.53167,-1.42574 -6.23283,3.58512 -9.42356,2.8272 -1.36463,-0.32415 3.41593,-3.44646 2.03355,-3.68377 -2.55063,-0.43785 -4.73639,2.15539 -7.24555,2.78906 -4.92014,1.24254 -5.50872,0.48788 -9.82913,-0.84645 -2.75568,0.2938 -5.51136,0.58759 -8.26703,0.88138 -1.7889,-0.61232 -3.47607,-1.86257 -5.36669,-1.83697 -3.837,0.052 -7.50302,2.39822 -11.32571,2.06301 -1.56088,-0.13688 -1.73532,-3.37995 -3.30181,-3.3457 -4.13616,0.0904 -7.85265,2.62669 -11.85423,3.67709 -2.45258,0.6438 -4.98502,0.93163 -7.47754,1.39745 -2.62575,0.84288 -5.72893,4.25774 -7.87725,2.52865 -1.79483,-1.44459 6.3745,-4.82795 4.17366,-5.50953 -3.10216,-0.9607 -5.65483,3.51612 -8.8566,4.05927 -0.89717,0.1522 1.50902,-2.50997 0.61158,-2.66058 -6.26133,-1.05077 -4.86572,4.57424 -5.52943,0.35302 -1.15117,0.35285 -2.30233,0.7057 -3.45349,1.05855 -0.19492,-0.27305 -0.25998,-0.73508 -0.58476,-0.81914 -0.66439,-0.17197 -1.50393,0.54594 -2.05435,0.13603 -0.42702,-0.318 0.59628,-1.77683 0.0961,-1.59436 -8.43839,3.07832 -13.83027,10.03947 -2.40317,-1.86835 -6.86834,2.75572 -4.43574,2.47691 -10.20837,2.89507 -1.75795,0.12734 -3.56856,0.7295 -5.27895,0.30383 -0.92903,-0.23121 -1.16605,-1.56165 -1.95489,-2.10414 -11.78205,-8.1026 5.07908,5.41932 -6.19486,-3.89906 -18.59784,5.4783 -6.28546,5.00702 -15.28895,1.19589 -1.42411,-0.60282 -3.61937,0.0964 -4.48553,-1.18471 -0.91749,-1.35704 2.00877,-4.95366 0.37155,-4.90021 -21.97767,0.71761 -7.77979,9.62156 -16.96442,2.95248 -4.00868,1.21195 -7.86254,4.08716 -12.02603,3.63584 -1.6274,-0.17641 1.48049,-3.52178 0.56428,-4.8783 -0.90891,-1.34572 -3.13889,-0.83412 -4.70716,-1.25556 -1.52565,-0.40998 -3.07604,-0.73864 -4.5746,-1.23867 -1.31196,-0.43778 -2.48886,-1.2783 -3.84094,-1.56943 -1.84278,-0.39679 -3.75692,-0.31403 -5.63539,-0.47105 -0.42312,-1.22081 -0.23741,-2.88494 -1.26937,-3.66243 -4.25319,-3.20442 -11.69622,1.91495 -14.81196,2.05758 -0.92279,0.0422 -0.30844,-2.26582 -1.20291,-2.49661 -9.54785,-2.46343 -2.92214,3.29621 -6.94977,-0.66722 0.36379,-0.8979 2.02909,-2.93709 1.09137,-2.6937 -3.29223,0.85451 -5.85538,3.5301 -9.02891,4.75391 -1.05729,0.40772 3.6125,-2.63449 2.54524,-2.25361 -2.0475,0.73071 -3.52946,2.67985 -5.59963,3.34365 -0.70433,0.22585 0.75278,-1.27346 1.12917,-1.9102 -1.25379,0.52729 -2.50759,1.05457 -3.76138,1.58185 -3.68416,-1.66735 -2.85918,-0.81588 -7.77361,1.1361 -1.59488,0.63348 -3.23951,1.14622 -4.8028,1.85408 -2.18992,0.99161 -4.15758,2.4956 -6.443883,3.23846 -0.347129,0.11279 -0.298422,-0.6662 -0.447632,-0.9993 -0.691427,-7.37428 -8.161152,8.90374 -10.53056,5.69306 -0.822171,-1.11409 3.504658,-2.82471 2.28056,-3.47182 -1.683527,-0.88997 -3.605512,1.22748 -5.417363,1.81358 -8.380251,2.71088 -4.798755,2.05114 -12.187148,2.59671 -3.671886,1.65123 -7.343771,3.30246 -11.015656,4.95369 -1.180217,-0.24258 -2.375051,-1.03291 -3.540651,-0.72773 -3.328187,0.87138 -6.11701,3.31135 -9.458289,4.1311 -0.880647,0.21606 -1.594747,-0.87176 -2.434749,-1.21325 -0.848911,-0.34511 -1.701075,-0.84204 -2.617454,-0.84065 -1.521242,0.002 -2.989072,0.5676 -4.483609,0.8514 -3.121811,-3.92581 1.86773,1.41798 -6.490804,0.30364 -0.711577,-0.0949 1.906198,-4.05935 0.88868,-4.45549 -5.061983,-1.97076 -3.159188,3.14929 -4.217406,-0.95706 0,0 50.698478,-28.38691 50.698478,-28.38691 l 0,0 c -0.71571,2.19719 -0.115495,-0.5386 0.972243,0.81749 0.206487,0.25743 -0.976372,0.86166 -0.677342,0.72206 1.763973,-0.82349 3.345063,-2.01234 5.125852,-2.79881 0.543127,-0.23987 2.137733,-0.70588 1.764391,-0.24421 -1.559758,1.92878 -3.708999,3.29476 -5.563499,4.94214 1.502545,-0.53238 2.916589,-1.49895 4.507635,-1.59714 1.400526,-0.0864 0.666148,5.47484 3.984033,1.3594 2.927459,-0.9045 5.456729,-2.9368 8.436949,-3.64843 1.024624,-0.24467 2.017374,0.60748 3.026064,0.91123 2.46863,-0.71617 4.93725,-1.43234 7.40588,-2.1485 10.51799,-3.57485 6.72871,-2.04095 17.42583,-6.74757 2.33214,-1.02611 4.55724,-2.31582 6.96562,-3.14738 0.63263,-0.21844 1.37867,0.27908 2.00725,0.0492 1.86989,-0.68379 3.36624,-2.31549 5.31433,-2.72661 0.61091,-0.12893 -0.44968,1.16495 -0.67452,1.74743 1.10013,-0.36469 2.17689,-0.80936 3.30037,-1.09406 0.88881,-0.22523 1.88857,-0.0373 2.71678,-0.43074 3.12492,-1.48443 6.01016,-3.42822 9.01525,-5.14233 0.69221,0.11407 1.40007,0.52774 2.07664,0.34221 8.22138,-2.25436 2.69269,-2.73513 6.96617,-2.13165 5.29355,0.18056 -3.11612,0.17957 8.77305,-3.7398 0.48017,-0.15829 0.94436,0.63389 1.00525,1.13579 0.11096,0.91468 -1.31341,2.2126 -0.53857,2.71117 1.43807,0.92533 3.90819,-2.32616 5.12597,0.20759 2.20674,-0.6964 4.37126,-2.63408 6.62021,-2.08921 1.16287,0.28173 -1.57352,2.58198 -0.80412,3.49831 0.93268,1.11079 2.93906,0.16408 4.30013,0.66531 1.09906,0.40474 1.7713,1.66842 2.89871,1.98576 7.15978,2.01534 6.36577,-2.73025 4.71423,5.51238 0.37962,-0.0682 13.29973,-2.71822 14.8045,-1.88387 1.20437,0.66779 -1.10272,3.63608 0.18382,4.12726 2.4368,0.93035 5.14252,-1.23201 7.7475,-1.09916 1.40287,0.0715 2.57326,1.1274 3.85989,1.6911 2.47953,-0.27088 4.95905,-0.54177 7.43858,-0.81265 3.07819,7.6072 -1.13047,0.48339 10.23602,1.54663 1.20271,0.1125 0.90306,2.92546 2.11085,2.94564 3.47594,0.0581 6.60451,-3.1021 10.06226,-2.7423 1.38764,0.14439 0.94672,2.62474 1.42008,3.93711 3.00692,-0.44994 6.01384,-0.89989 9.02076,-1.34984 4.09304,1.40484 5.00419,2.10252 9.53056,2.00027 1.93527,-0.0437 3.83389,-0.54932 5.76116,-0.73036 1.32148,-0.12413 2.78438,-0.76578 3.9776,-0.18446 0.64224,0.31289 -0.67231,2.13464 0.042,2.14279 2.01854,0.023 3.79236,-1.38499 5.68854,-2.07748 0.33677,0.42408 0.47236,1.21002 1.0103,1.27223 1.1173,0.12919 3.05748,-1.87741 3.28386,-0.77568 0.29778,1.44922 -4.08422,2.92529 -2.72303,3.50503 0.34122,0.14533 8.26864,-4.16838 9.33096,-4.17108 0.58786,-0.001 -0.24892,1.14908 -0.37338,1.72362 21.33265,-11.36693 3.1931,-2.99735 3.77212,0.92854 0.41734,2.82965 8.48485,-5.27929 9.85578,-2.56272 2.50896,4.97161 -27.69176,16.795 11.37093,-2.59992 -0.77337,1.90294 -2.66417,3.68375 -2.32012,5.70883 0.24067,1.41654 2.25012,2.45361 3.67326,2.25563 5.02363,-0.69888 9.47375,-3.77996 14.44691,-4.77647 2.63935,-0.52887 5.38747,0.47395 8.07111,0.26434 12.88582,-1.00646 6.66908,-3.95578 13.69002,0.70912 1.39997,0.36136 2.76826,0.88181 4.19989,1.08408 2.33801,0.33033 6.18904,0.22702 8.39191,-0.81493 3.44633,-1.63011 6.50497,-3.99289 9.90083,-5.72568 1.55326,-0.79257 3.16057,-1.92308 4.90173,-1.82755 0.69811,0.0383 0.0111,1.39826 0.0166,2.0974 14.46647,-4.4761 -7.8871,2.6963 12.67232,-5.1926 1.19761,-0.45954 2.58458,-0.27145 3.7742,-0.75129 2.28289,-0.92082 4.2975,-2.41752 6.54898,-3.41265 0.28852,-0.12752 0.62719,0.0682 0.94079,0.10226 -15.18464,8.76447 -30.36927,17.52893 -45.5539,26.2934 -1.35707,-0.0641 -0.65197,0.0484 1.89346,-1.2367 1.6444,-0.8302 3.42518,-1.42879 4.94031,-2.4765 0.42316,-0.29261 -1.02563,0.0827 -1.53844,0.12411 15.36593,-8.55653 30.73187,-17.11307 46.09781,-25.6696 13.56997,-6.07728 -25.74653,14.88039 -38.6198,22.32059 -2.15023,0.73377 -8.14457,3.71546 -6.45069,2.2013 2.33081,-2.08352 5.76611,-2.45575 8.47712,-4.01273 16.43993,-9.4417 32.54974,-19.44887 48.94597,-28.96626 0.21171,-0.12289 0.48775,0.2083 0.72166,0.1361 2.05026,-0.63288 6.4251,-3.39242 7.55742,-4.04789 1.63826,-0.85349 3.21906,-1.82771 4.91476,-2.56045 1.00924,-0.43612 2.12439,-0.57378 3.16429,-0.93069 0.0387,-0.0133 8.04578,-3.07145 8.07547,-3.08682 2.35914,-1.22093 4.52826,-2.78078 6.84196,-4.08578 1.12544,-0.63479 2.31262,-1.15327 3.46894,-1.7299 -14.9701,8.6889 -29.93757,17.38232 -44.91029,26.0667 -1.00367,0.58214 2.05423,-1.09227 3.00312,-1.76 0.5937,-0.41778 0.96707,-1.12137 1.5991,-1.47854 122.79407,-69.39231 24.31104,-11.18104 54.22774,-30.78364 0.67877,-0.44476 1.41566,-0.79376 2.12349,-1.19064 0,0 -45.43774,35.73048 -45.43774,35.73048 z"
         id="path1260"
         style="opacity:0.49137932;fill:#00b9ff;fill-opacity:1;stroke:#e6e6e6;stroke-width:0.1;stroke-miterlimit:4;stroke-opacity:1;stroke-dasharray:none" />
      <path
         inkscape:connector-curvature="0"
         d="m 88.99289,346.97123 c 1.352797,3.30798 -5.223697,5.08778 -4.125603,7.82404 0.605969,1.50996 3.200806,-0.75822 4.827419,-0.7217 0.766026,0.0172 1.358293,0.88676 2.12446,0.87778 2.914311,-0.0342 8.905414,-2.72375 10.940004,-3.50804 0.68117,2.49958 -2.67931,3.82083 -2.62561,6.00473 0.0215,0.87528 1.62167,0.71738 2.29598,1.27586 0.74174,0.61433 1.03142,1.74545 1.88668,2.1883 1.45115,0.7514 3.70945,-0.0226 4.74198,1.24398 1.11909,1.37281 0.38521,3.52129 0.57782,5.28193 2.52106,0.64257 5.5107,0.32897 7.56318,1.92772 1.56302,1.2175 0.81449,4.03734 2.06629,5.57303 2.67367,3.28002 7.634,3.60855 11.24183,4.54137 6.22578,1.60969 4.1971,0.86946 9.28135,3.75272 3.73814,-0.35347 8.45698,-1.96949 11.89324,0.85343 0.89578,0.7359 0.43857,2.95854 1.59002,3.09313 2.74928,0.32135 5.31088,-1.72306 8.06835,-1.9642 1.09961,-0.0962 2.1083,0.65469 3.16245,0.98204 1.79046,-0.38869 3.58091,-0.77738 5.37136,-1.16607 -0.79254,5.30252 -0.78045,0.38656 4.7893,0.45836 0.70928,0.009 -0.41133,1.35775 -0.617,2.03662 3.95587,-2.36995 7.65127,-5.24221 11.8676,-7.10984 0.76601,-0.3393 -0.96388,1.46453 -1.01122,2.30099 -0.023,0.40636 0.55355,0.59683 0.83032,0.89524 -3.29419,0.41545 4.6246,-1.68313 4.13375,-0.38909 -0.43726,1.15275 -1.96115,1.67739 -2.36813,2.84117 -0.1466,0.4192 0.88135,0.17022 1.3246,0.14282 3.54116,-0.21889 1.98076,-1.22354 3.88774,0.81097 0.66616,0.3634 1.24249,1.15575 1.9985,1.09021 0.78866,-0.0684 12.39921,-3.78474 12.86237,-3.7858 0.74359,-0.002 0.54537,1.4203 1.04542,1.97065 3.05855,3.36625 7.04337,-1.09528 10.36182,-2.49697 1.62346,7.57858 -1.65016,-3.72796 11.01498,-1.42478 1.89385,0.3444 -1.26145,3.6373 -1.89217,5.45595 3.83897,-1.31945 7.46054,-4.11466 11.51693,-3.95835 1.46533,0.0565 -0.15164,2.92891 -0.22746,4.39336 2.17577,-0.0611 4.35154,-0.12213 6.52731,-0.18319 2.60144,-0.3805 5.1752,-1.14767 7.80431,-1.14149 1.41325,0.003 2.66244,1.13555 4.07529,1.16945 1.32244,0.0317 13.1958,-1.90064 14.2782,-1.99508 2.0669,-0.18033 4.60444,-1.39172 6.22353,-0.0944 1.26836,1.0163 -0.17677,3.24579 -0.26516,4.86869 2.00105,-0.1101 10.24509,-0.69137 12.62394,-0.37509 1.1738,0.15606 2.1759,1.4118 3.3418,1.20486 3.8004,-0.67454 10.0032,-5.10064 14.80651,-3.78357 1.09399,0.29997 1.59103,1.61734 2.38654,2.42601 2.25854,-0.19866 4.51834,-0.80844 6.77562,-0.59596 1.47031,0.13839 2.64933,1.52424 4.12291,1.62181 1.2251,0.0811 12.83009,-1.67486 14.51313,-1.34466 1.02626,0.20135 1.13041,2.39379 2.16857,2.2674 3.64378,-0.44359 6.89285,-2.52674 10.33927,-3.79011 2.79124,0.86852 4.82211,1.84557 7.91944,1.18409 2.75023,-0.58735 5.24126,-2.08732 7.97027,-2.76647 1.22342,-0.30447 3.5813,-1.40264 3.77892,-0.15749 0.28167,1.77474 -4.78271,3.76505 -3.10443,4.40727 2.27472,0.87045 4.42482,-2.03693 6.63723,-3.0554 6.51424,0.87565 -3.42475,-0.0813 8.86091,-1.97432 0.67276,-0.10366 1.14865,0.73556 1.75767,1.03961 0.62091,0.30998 1.23106,0.74462 1.92299,0.79791 4.49488,0.34624 2.84652,-1.94223 4.26103,1.55148 1.03965,0.0688 2.10427,0.44294 3.11897,0.20627 0.35225,-0.0822 12.76348,-4.90989 13.08391,-4.8322 1.27668,0.30955 -1.96668,2.37201 -1.55733,3.62028 0.29519,0.90011 1.89161,0.1301 2.82991,0.26022 0.74382,0.10315 1.47313,0.29245 2.2097,0.43867 9.6376,-3.59273 1.44545,-1.17157 7.30962,-1.88235 0.99123,-0.12014 1.93567,-0.64814 2.93331,-0.60703 0.2138,0.009 1.34958,1.29899 1.36249,1.57237 0.0229,0.48578 -0.29161,0.92791 -0.43741,1.39186 2.42843,0.36589 3.93318,-2.51651 6.16174,-2.60935 0.99962,-0.0416 -1.80847,1.28083 -1.96474,2.26904 -0.0895,0.56623 1.14343,-0.1833 1.67055,-0.40865 1.55605,-0.66522 2.85866,-2.21566 4.55057,-2.25092 0.76995,-0.0161 -0.52413,1.44831 -0.7862,2.17246 5.8102,-6.14883 1.99252,1.58088 3.06052,1.28952 2.51486,-0.68608 4.38991,-3.00003 6.9125,-3.65713 0.78478,-0.20442 -1.51602,1.43638 -1.13469,2.1521 1.79979,3.37813 2.78674,-3.66364 1.80184,1.10194 2.11549,-1.17701 4.04697,-2.7741 6.34647,-3.53101 0.54206,-0.17842 0.83492,0.93494 1.4038,0.97992 1.75367,0.13864 3.51532,-0.21259 5.25792,-0.45326 2.30358,-0.31814 4.60282,-1.74506 6.86857,-1.22152 1.05345,0.24341 0.3678,2.24537 1.08063,3.0583 0.69706,0.79495 1.89323,0.94181 2.83984,1.41271 4.81878,3.1655 0.24615,0.64096 6.42593,2.46074 0.92646,0.27281 1.69665,1.31069 2.65175,1.16743 6.87444,-1.03114 8.15499,-6.17299 8.40175,1.04171 4.28584,0.58296 7.28367,-2.47728 10.95373,-3.31335 0.29121,-0.0663 0.0609,0.90294 0.34929,0.82512 1.47995,-0.39939 2.59563,-2.13532 4.12508,-2.03263 1.07879,0.0724 -1.62136,1.43087 -2.43205,2.1463 0.47103,-0.18685 1.57475,-1.04081 1.41307,-0.56056 -0.2964,0.88037 -2.71811,2.48588 -1.90813,2.03107 1.69568,-0.95215 3.05305,-2.41123 4.62476,-3.5565 0.19853,-0.14466 0.44781,-0.20206 0.67178,-0.30296 0.4896,-0.22057 1.48723,-1.19811 1.46892,-0.66143 -0.0287,0.83959 -1.01005,1.34266 -1.51507,2.01399 0.78684,-0.50832 1.57368,-1.01664 2.36052,-1.52496 0,0 -45.4519,35.25487 -45.4519,35.25487 l 0,0 c -0.19529,-0.15044 -0.39058,-0.30088 -0.58588,-0.45132 -10.06775,7.27467 -2.97381,2.37231 -1.66268,0.73926 0.2599,-0.32371 -0.7928,0.24846 -1.18023,0.39757 -0.87171,0.33551 -2.6779,1.98614 -2.59567,1.05571 0.17075,-1.9319 7.51345,-5.14623 -0.82303,-0.96235 -0.64566,0.0793 -1.28934,0.17678 -1.93697,0.23785 -0.52494,0.0495 -1.07507,-0.0614 -1.57901,0.0937 -1.32645,0.40817 -4.07699,2.94741 -3.85296,1.57778 0.33573,-2.05256 3.64621,-2.52842 4.32975,-4.49272 1.27608,-3.66709 -22.95795,13.65942 -10.86429,4.20134 -0.67172,-0.2732 -1.48793,-0.32173 -2.01517,-0.8196 -3.13294,-2.95844 1.63887,-1.06345 -2.51232,-3.40715 -4.69327,-2.64975 -9.47914,0.69239 -14.63634,0.73118 -0.22076,-0.94896 0.15554,-2.31732 -0.66229,-2.84687 -1.24041,-0.80319 -2.94433,-0.26202 -4.41151,-0.43848 -1.38952,-0.16712 -2.76346,-0.72508 -4.15665,-0.59201 -2.05135,0.19594 -3.96353,1.14488 -5.98189,1.5604 -6.31336,1.29974 1.3926,-1.3496 -5.74374,1.41702 -0.11882,-0.3052 -0.29674,-0.59358 -0.35648,-0.9156 -0.0763,-0.41128 0.36824,-1.1958 -0.046,-1.25405 -1.06871,-0.15031 -2.06649,0.65915 -3.13559,0.80659 -0.77699,0.10716 -1.56983,-0.10098 -2.35249,-0.0497 -1.03228,0.0676 -5.11384,0.74211 -6.06504,0.8934 -5.62394,0.70488 -0.82348,0.69926 -0.0548,-2.61673 0.16625,-0.71713 -1.39746,0.46388 -2.09001,0.71341 -0.80636,0.29054 -1.6056,0.60051 -2.40618,0.90662 -0.88186,0.33718 -1.70153,0.93046 -2.64109,1.02325 -0.26607,0.0263 -0.22234,-0.48633 -0.33351,-0.7295 0.32948,-3.33412 0.32673,0.0418 -5.02118,1.37001 -0.39367,0.0978 0.18069,-1.23668 -0.22292,-1.19629 -1.55255,0.15533 -2.81803,1.69096 -4.37795,1.65661 -0.58449,-0.0129 0.6898,-1.72017 0.10597,-1.75067 -1.58376,-0.0827 -3.00546,1.01377 -4.50819,1.52066 0.21963,-0.84094 1.10405,-1.77633 0.65888,-2.52282 -0.43145,-0.72348 -1.63961,-0.64118 -2.47313,-0.51944 -8.58148,1.25338 -2.81125,2.0716 -9.64521,2.09796 -0.88305,0.003 -1.82623,0.0284 -2.62665,-0.34456 -0.60728,-0.28298 -0.8905,-1.00123 -1.33576,-1.50184 -1.49781,0.25423 -2.98664,0.56874 -4.49345,0.76269 -5.01696,0.64574 -1.92441,-0.43032 -7.76051,1.29829 -2.99463,0.88699 -5.64702,2.93943 -8.81866,1.72089 -0.53263,-0.20464 -0.80055,-0.81327 -1.20083,-1.2199 -0.48345,-0.23764 -1.21445,-0.22861 -1.45035,-0.71291 -0.31841,-0.65365 0.75071,-2.02396 0.0408,-2.18083 -1.67805,-0.37079 -3.34175,0.82637 -5.04209,1.07573 -1.53278,0.22478 -3.10231,0.1168 -4.63483,0.34338 -2.13269,0.31533 -11.59155,2.42385 -13.43975,2.82789 -6.10618,-0.97307 -4.72126,0.65031 -2.08493,-6.05254 -5.13873,-1.72148 -13.0831,6.69067 -18.62405,4.32433 -1.55227,-0.66293 2.17889,-4.55164 0.56095,-5.03256 -3.07739,-0.91473 -6.21337,1.61931 -9.32006,2.42897 -2.34494,0.30481 -4.70172,0.52929 -7.03481,0.91443 -2.31543,0.38223 -4.56315,1.5734 -6.90245,1.38631 -8.08604,-0.64668 5.32443,-4.16893 -4.54844,-3.78524 -5.68127,0.22079 -10.86963,4.01149 -16.74832,3.22857 -0.30757,-0.11093 -8.27641,-3.04599 -8.76444,-2.98584 -3.58589,0.442 -6.80757,3.85425 -10.35901,3.19002 -1.65746,-0.30999 2.94706,-4.32862 1.35172,-4.87464 -12.29844,-4.20932 -7.00073,7.96817 -10.01775,-1.21831 -4.78276,2.04112 -9.16119,5.75597 -14.34829,6.12335 -1.78619,0.12651 1.74979,-3.45879 1.34052,-5.20205 -0.2869,-1.222 -1.81989,-2.10151 -3.07285,-2.17664 -2.61941,-0.15705 -5.12344,1.16666 -7.72236,1.52938 -11.69836,1.63271 1.00984,-1.74108 -12.49044,2.49693 -1.7152,0.37548 -3.40872,0.86919 -5.14559,1.12645 -1.17222,0.17362 -3.20684,1.29555 -3.55135,0.16172 -0.47797,-1.57306 3.43699,-3.22074 2.26999,-4.3788 -1.33681,-1.32657 -3.72457,0.61674 -5.53371,1.14007 -12.92375,3.73846 -2.08491,1.71409 -11.66228,3.26028 -12.95043,2.81345 1.24728,0.78225 -2.56835,-1.74454 -0.99551,-0.65925 -2.15522,1.10045 -3.3279,1.32511 -1.52576,0.29231 -0.36806,-2.01024 -0.44531,-2.02855 -1.03117,-0.24429 -2.04241,0.56619 -3.06361,0.84929 -1.04106,0.25354 -2.05538,0.67182 -3.12318,0.76061 -0.57758,0.048 -1.12179,-0.37528 -1.70114,-0.35945 -0.9553,0.0261 -2.55539,1.39965 -2.82597,0.4831 -0.35428,-1.2001 3.09006,-2.47529 2.03791,-3.1526 -2.9489,-1.89832 -7.1161,5.67909 -10.05007,3.11337 0.33105,-1.18057 2.21451,-3.43386 0.99315,-3.5417 -3.07213,-0.27125 -5.73156,3.14581 -8.80165,2.85226 -1.24297,-0.11885 0.83181,-3.36185 -0.36182,-3.72843 -2.59895,-0.79817 -5.37464,1.43817 -8.07664,1.13685 -3.09197,-0.34482 -4.46448,-5.42231 -8.314811,-4.23987 -5.179184,-5.899 -0.392744,-2.00077 -10.131156,-3.97086 -7.753864,-1.56861 -4.192026,-1.66225 -10.219647,-5.73935 -2.096583,-1.41813 -10.217635,-5.42204 -12.402566,-6.52411 -1.694166,-1.02713 -3.259167,-2.30637 -5.0825,-3.08138 -6.417158,-2.72764 -4.229382,0.2069 -7.435998,-3.03588 -0.21954,-0.22201 -0.526168,-0.45621 -0.535845,-0.76829 -0.01216,-0.39214 1.267744,-3.3415 1.274999,-3.35899 -2.29125,1.0123 -4.376017,2.84741 -6.873749,3.03689 -0.863654,0.0655 0.411141,-1.68957 0.486887,-2.55238 0.0058,-0.066 0.131137,-4.64905 -0.729143,-4.66691 -10.556112,-0.21916 -4.334758,4.02297 -8.123563,1.12415 0,0 51.221222,-35.33037 51.221222,-35.33037 z"
         id="path1262"
         style="opacity:0.49137932;fill:#00b9ff;fill-opacity:1;stroke:#e6e6e6;stroke-width:0.1;stroke-miterlimit:4;stroke-opacity:1;stroke-dasharray:none" />
      <path
         inkscape:connector-curvature="0"
         d="m 102.22426,413.87975 c 3.14124,-1.19488 9.70777,-4.64019 13.67556,-2.89778 1.71823,0.75455 1.60043,4.42704 3.47704,4.42777 6.40689,0.003 12.32399,-3.85247 18.70578,-4.41904 3.85367,-0.34213 21.16279,3.364 24.84989,4.09467 13.9365,0.77524 28.15069,3.7778 42.12215,1.28524 6.68524,-1.19267 12.90909,-4.67918 19.67173,-5.29685 2.46031,-0.22471 4.55386,1.91749 6.83079,2.87623 3.56249,-0.40083 7.12498,-0.80166 10.68747,-1.20249 4.49287,-1.40896 8.78527,-3.84775 13.47859,-4.2269 1.36988,-0.11066 1.95291,1.93427 2.92936,2.9014 2.67113,-0.48921 5.44835,-0.57612 8.01341,-1.46763 0.64484,-0.22412 17.08845,-8.49629 21.21409,-8.06942 1.02395,0.10594 0.50187,1.99671 0.75281,2.99506 5.72759,-1.84608 6.15262,-2.69899 11.19909,-2.49443 1.01547,0.0412 2.00469,0.53193 3.0169,0.4407 1.97727,-0.1782 3.90731,-0.72716 5.82584,-1.23765 11.19639,-2.97914 5.92829,-4.01578 13.47444,-1.07129 2.57761,-0.0107 5.17261,-0.33124 7.73284,-0.0321 2.04116,0.23846 3.89278,1.53677 5.9457,1.63012 16.54372,0.75228 1.97471,-2.35086 16.04136,-1.19825 1.46488,0.12003 2.79188,1.35161 4.25069,1.17227 3.26294,-0.40114 6.29341,-1.90358 9.44011,-2.85538 0.30978,1.05787 -0.10667,2.79712 0.92934,3.1736 4.34869,1.58031 16.61925,-5.86953 17.55382,-6.04726 1.13676,-0.21618 -1.11198,2.17364 -0.99724,3.32507 0.0594,0.5959 0.85135,1.20837 1.43615,1.0794 2.25564,-0.49746 4.22735,-1.86305 6.34103,-2.79458 -0.93009,1.21639 -4.3144,3.50209 -2.79026,3.64915 2.4151,0.23303 4.25605,-2.34989 6.492,-3.29198 0.70475,-0.29694 1.87042,-1.05364 2.25992,-0.39551 0.4091,0.69126 -2.05129,2.28934 -1.28904,2.03599 5.13562,-1.70689 10.19036,-7.46496 3.15213,-0.31118 4.64379,-1.96172 2.28357,-1.66372 5.4624,-1.44992 0.60381,0.0406 1.28884,-0.21705 1.81354,0.0845 0.38946,0.22381 0.0625,1.317 0.50647,1.24877 7.11639,-1.0936 3.30233,-3.50959 6.17397,-1.34224 -0.67367,0.90588 -3.14615,2.80976 -2.02101,2.71763 2.42542,-0.1986 4.269,-2.43867 6.61274,-3.09362 1.9291,-0.53909 0.98359,2.87945 2.61967,2.72351 1.06213,-0.10124 2.01787,-0.69404 3.0268,-1.04105 0.6506,-0.18855 1.3012,-0.37709 1.9518,-0.56564 0.83874,-0.4123 1.62916,-0.94262 2.51622,-1.23691 0.75711,-0.25118 1.62012,-0.0896 2.36245,-0.38165 2.01018,-0.79074 3.77657,-2.15448 5.82531,-2.83916 0.89188,-0.29806 1.88061,-0.0252 2.82064,-0.0503 0.95955,-0.0256 1.91859,-0.0678 2.87789,-0.10173 -0.71191,1.18192 -3.50123,3.74362 -2.13572,3.54576 3.18369,-0.46129 5.58725,-3.22304 8.55048,-4.47522 1.01203,-0.42766 2.19492,-0.22787 3.25575,-0.51376 1.52298,-0.41044 3.07113,-2.30529 4.46498,-1.56697 1.02507,0.54297 -2.91776,2.68774 -1.79546,2.98101 1.77056,0.46267 3.37399,-1.41846 5.06098,-2.12769 0.7004,-0.0268 1.4008,-0.0536 2.1012,-0.0804 0.2075,0.50363 0.0874,1.40929 0.62251,1.51089 1.27753,0.24257 2.54417,-0.64185 3.84436,-0.66278 0.71205,-0.0115 1.37746,0.36329 2.05962,0.56776 0.59809,0.17928 1.16389,0.68412 1.78007,0.58318 1.56863,-0.25699 2.99239,-1.07344 4.48858,-1.61015 0,0 -46.95506,34.09681 -46.95506,34.09681 l 0,0 c -0.003,-0.54493 0.51887,-1.5035 -0.01,-1.6348 -1.18492,-0.29416 -2.36856,0.66069 -3.58674,0.74189 -0.78418,0.0523 -1.56796,-0.16332 -2.33203,-0.34736 -0.66524,-0.16025 -1.28786,-0.89845 -1.93662,-0.68087 -7.59212,2.54625 -10.96005,7.4488 -5.0413,0.48334 -1.9817,0.97807 -3.73533,2.90796 -5.9451,2.93421 -1.15412,0.0137 1.64308,-1.76407 1.91283,-2.88631 0.10188,-0.42384 -0.6023,-0.92715 -1.02333,-0.81421 -2.05873,0.55226 -3.80858,1.94355 -5.81967,2.64988 -0.89279,0.31356 -1.87529,0.25468 -2.81294,0.38202 -1.72484,0.70627 -3.44968,1.41255 -5.17452,2.11882 0.0694,-0.69675 0.90794,-2.06373 0.20825,-2.09025 -1.77396,-0.0672 -3.30682,1.29308 -4.97149,1.90976 -1.34556,0.49846 -2.72102,0.9154 -4.05841,1.43538 -1.20941,0.47022 -2.30858,1.26455 -3.57797,1.53365 -0.38097,0.0808 -0.64821,-0.64912 -1.02671,-0.55749 -1.4302,0.34622 -2.69211,1.18905 -4.03816,1.78358 3.19377,-5.20523 1.14361,-0.99012 -5.71335,1.50552 -0.52226,0.19008 -0.99509,-0.5084 -1.52698,-0.66958 -3.6103,-1.09406 -4.93902,0.40807 -1.52024,-4.16545 -20.68518,10.97328 -2.44438,3.4628 -9.45956,3.72943 -1.01847,0.0387 -1.99625,0.71402 -3.00472,0.5664 -0.38408,-0.0562 -0.0772,-1.16812 -0.45343,-1.07261 -5.10533,1.29609 -9.18433,6.26448 -0.86181,-1.89255 -0.48442,0.24411 -5.25326,2.99432 -6.62435,2.83339 -1.11674,-0.13108 1.00203,-5.29379 1.13938,-3.17496 -4.82386,0.50883 -9.6437,7.21156 -1.88011,-1.68278 -3.77697,2.13936 -7.00422,6.06876 -11.33092,6.4181 -2.62689,0.21209 7.09487,-4.05969 5.23395,-5.92584 -2.01951,-2.02517 -5.113,2.99875 -7.96693,3.18519 -0.90084,0.0589 0.20988,-2.51037 -0.68621,-2.61991 -21.82233,-2.66749 1.98528,4.82298 -10.81261,0.41542 -1.52363,0.22642 -11.7258,1.90677 -13.49449,1.54181 -1.32969,-0.27437 -1.83695,-2.54562 -3.19452,-2.52689 -3.92656,0.0542 -7.53782,2.91559 -11.46032,2.7291 -1.61928,-0.077 -2.29352,-2.29168 -3.44028,-3.43752 -3.51623,0.7031 -7.03245,1.40619 -10.54868,2.10928 -2.34921,0.12777 -4.71078,0.11084 -7.04764,0.38331 -2.32318,0.27087 -4.58356,1.52347 -6.90567,1.24359 -0.78353,-0.0944 -0.17008,-1.91181 -0.91025,-2.18563 -1.23279,-0.45606 -2.60951,0.35417 -3.92323,0.39752 -7.56158,0.24949 1.38264,-1.89407 -11.13872,2.72361 -2.45771,0.7128 -4.91542,1.42559 -7.37313,2.13839 -0.48397,-0.86758 -0.46107,-2.53096 -1.45191,-2.60273 -2.72988,-0.19774 -5.36626,1.11887 -7.98364,1.91927 -3.89853,1.19219 -7.57158,3.11678 -11.53981,4.05107 -4.75634,1.11986 -10.4097,0.2899 -15.17,-0.10406 -4.14572,0.73041 -8.32914,1.27217 -12.43715,2.19125 -5.76004,1.28868 -11.25956,3.97889 -17.14496,4.42709 -30.34737,2.31109 9.73403,-5.20066 -15.27843,-7.76472 -11.07271,-1.13507 -22.03611,6.68852 -33.32034,2.18951 -16.40541,-1.88366 -12.16633,-2.24526 -29.966721,-0.37707 -4.488476,0.47108 -20.33305,3.28065 -26.297374,2.98068 -1.45042,-0.0729 -2.626112,-1.43786 -4.074597,-1.54241 -1.603519,-0.11574 -3.15809,0.60427 -4.737135,0.9064 0,0 39.226147,-28.49946 39.226147,-28.49946 z"
         id="path1264"
         style="opacity:0.49137932;fill:#00b9ff;fill-opacity:1;stroke:#e6e6e6;stroke-width:0.1;stroke-miterlimit:4;stroke-opacity:1;stroke-dasharray:none" />
    </g>
    <path
       style="opacity:0.49137932;fill:#00baff;fill-opacity:0.49019608;stroke:#e6e6e6;stroke-width:0.1;stroke-miterlimit:4;stroke-opacity:1;stroke-dasharray:none"
       id="path1312"
       d="m 163.96835,407.31723 c -0.52841,5.17006 -1.34335,2.68744 5.0219,4.33658 2.3264,0.60273 4.61138,1.35531 6.91707,2.03297 5.34078,-0.78489 10.65944,-2.97039 16.02236,-2.35466 3.21115,0.36868 5.48225,3.42558 8.22338,5.13837 5.68424,-0.0845 11.36848,-0.16896 17.05272,-0.25343 4.2684,0.95305 8.43743,3.08313 12.8052,2.85914 7.72757,-0.39629 15.03402,-3.9405 22.73616,-4.68178 4.6666,-0.44913 9.32993,1.19263 14.01785,1.14445 5.61549,-0.0577 11.16815,-1.43968 16.7839,-1.46099 30.28617,-0.11492 -9.37292,4.77618 28.00193,-1.21624 1.57708,1.56253 2.58311,4.12701 4.73123,4.68759 4.98005,1.29961 18.71562,-2.22837 23.09639,-2.92638 2.94459,-0.46917 5.90817,-0.93814 8.88928,-0.99856 1.71009,-0.0347 3.38107,0.528 5.08122,0.71539 1.42935,0.15755 2.86814,0.21258 4.30221,0.31887 1.57069,-0.26038 3.14186,-0.51792 4.71208,-0.78116 1.20841,-0.20258 2.41036,-0.78629 3.62377,-0.61629 0.42668,0.0598 0.33077,0.79568 0.49615,1.19352 1.62899,-0.74394 3.27658,-1.44843 4.88698,-2.23182 5.76764,-2.80571 4.58309,-4.62484 5.81002,-1.54005 2.1973,0.19683 4.40488,0.25397 6.60273,0.44133 1.20532,0.10275 2.39942,0.4146 3.60872,0.38383 1.59785,-0.0407 3.33023,-1.31562 4.75782,-0.59675 0.98657,0.49679 0.36495,2.17883 0.54743,3.26824 2.14959,-0.0716 4.29919,-0.14314 6.44879,-0.21471 27.26883,0.4124 -5.88233,-2.54345 8.0325,5.4316 2.39822,1.3745 5.65516,-1.05606 8.28963,-0.21926 1.39712,0.44377 1.31146,2.7414 2.47163,3.63743 1.41431,1.0923 3.36527,1.23847 4.93866,2.08572 1.58385,0.85288 2.99414,1.99474 4.49121,2.9921 12.13793,5.75697 -1.85553,0.16809 16.1823,2.44816 2.35334,0.29747 4.31826,2.46647 6.68998,2.42581 4.64496,-0.0796 9.04202,-2.24999 13.65795,-2.77465 7.06604,-0.80315 7.38559,-0.037 12.84946,2.21873 2.31983,-0.0853 4.63965,-0.17066 6.95948,-0.25598 3.48535,-1.1721 6.79617,-3.16019 10.45605,-3.5163 0.88502,-0.0861 0.41974,1.95699 1.20075,2.38208 0.99412,0.54108 2.26229,0.079 3.39343,0.11845 0,0 -47.59546,34.44831 -47.59546,34.44831 l 0,0 c -2.89023,-2.68874 -0.85069,-1.52702 -6.82936,-1.05313 -8.01086,0.63497 -5.17893,0.43286 -13.66947,0.80696 3.77104,-14.11661 2.55762,-2.0068 -13.60543,-2.00524 -1.93172,1.8e-4 -1.94862,-3.44338 -3.45507,-4.65258 -1.78786,-1.43507 -3.8652,-3.05714 -6.15776,-3.06345 -5.07741,-0.014 -9.857,3.13196 -14.93285,3.00537 -1.99896,-0.0498 -3.24824,-2.33285 -4.87236,-3.49928 -1.33628,-1.0964 -2.34906,-2.80659 -4.00882,-3.28922 -2.48557,-0.72274 -5.17796,-0.0302 -7.76438,-0.13417 -2.29225,-0.0921 -4.5771,-0.32035 -6.86729,-0.454 -2.46121,-0.14364 -5.10905,0.5662 -7.38653,-0.37785 -1.38094,-0.57242 -1.22168,-2.95083 -2.50266,-3.72138 -1.58299,-0.9522 -3.62686,-0.70432 -5.44028,-1.05648 -1.33483,-0.34839 -2.66614,-0.71052 -4.00447,-1.04517 -1.05964,-0.26495 -2.11235,-0.93771 -3.18897,-0.75353 -2.602,0.44513 -4.99157,1.71997 -7.48736,2.57996 -0.79649,-0.42317 -1.49029,-1.19918 -2.38947,-1.26951 -6.78985,-0.53108 -3.44507,2.42805 -6.24717,-0.6983 -5.08606,-0.89087 2.97681,0.24276 -4.58188,0.65074 -0.36027,0.0195 -0.80125,-0.39398 -0.77663,-0.75393 0.0562,-0.82218 1.79248,-2.11166 0.9834,-2.26829 -4.24707,-0.82219 -8.1103,5.76259 -12.26202,4.25033 -13.53047,-4.70097 20.17861,6.29956 -13.79909,2.17297 -1.59369,-0.19355 0.4725,-4.18336 -1.04716,-4.701 -3.20241,-1.09082 -6.72689,0.9729 -10.10921,0.90086 -6.22829,-0.13264 -12.21959,-3.09128 -18.57649,-2.0486 -4.82379,0.47953 -9.62661,1.60342 -14.47137,1.4386 -7.87836,-0.26801 -15.18669,-5.2391 -23.33161,-3.85998 -5.48894,-0.17961 -10.97422,0.46964 -16.46422,0.61296 -26.06126,0.68035 -7.98302,-0.84759 -37.01513,2.83281 -3.52974,-1.48952 -6.78801,-3.9905 -10.58922,-4.46858 -5.59263,-0.70338 -11.24671,0.80859 -16.87967,1.01384 -4.35381,0.15864 -8.73278,-0.33547 -13.06987,0.0774 -4.57605,0.43565 -8.97261,2.43155 -13.56927,2.45867 -1.60239,0.009 -2.58914,-2.34724 -4.19154,-2.35386 -2.8752,-0.0119 -5.54184,1.53481 -8.31276,2.30222 0,0 51.67858,-35.64584 51.67858,-35.64584 z"
       inkscape:connector-curvature="0"
       clip-path="url(#clipPath1350)" />
    <path
       style="opacity:0.49137932;fill:#00baff;fill-opacity:0.49019608;stroke:#e6e6e6;stroke-width:0.1;stroke-miterlimit:4;stroke-opacity:1;stroke-dasharray:none"
       id="path1314"
       d="m 465.32102,432.29263 c 1.1239,-1.25497 3.74584,-2.12232 3.37171,-3.76492 -0.30705,-1.3481 -2.60894,0.91699 -3.92117,1.35254 -0.8515,0.28263 -1.77185,0.39075 -2.56933,0.80178 -2.53823,1.30824 -4.64645,5.12107 -7.39073,4.33174 -2.31747,-0.66656 7.0594,-3.29991 5.28832,-4.93644 -1.86373,-1.72215 -4.45381,2.43321 -6.68072,3.64982 -5.85676,-1.18505 -0.0379,-0.3421 -9.90959,0.53796 -15.69149,1.39891 5.19288,-2.85825 -18.10101,3.96262 -2.69253,0.78842 -5.46922,1.25623 -8.18883,1.94545 -2.65706,0.67337 -5.29288,1.42791 -7.93933,2.14186 -0.64133,-0.66984 -1.05876,-2.34321 -1.924,-2.00951 -4.94729,1.90798 -9.01351,5.6087 -13.72356,8.04417 -7.39813,3.82543 -2.58615,0.39551 -8.12823,2.15637 -2.0179,0.64113 -3.93045,1.5759 -5.89344,2.36937 -2.17035,0.87727 -4.33772,1.7619 -6.50657,2.64285 -5.06478,-0.51002 -8.66007,4.33708 -13.37436,4.83692 -1.07587,0.11407 0.0108,-3.23072 -1.05884,-3.06815 -4.67404,0.71041 -8.6687,3.82696 -13.18259,5.2327 -4.92483,1.53373 -13.88376,2.43326 -19.04066,3.07662 -1.43115,0.33364 -20.44995,4.92899 -22.51121,4.80419 -1.49667,-0.0906 -1.91538,-2.78653 -3.40724,-2.93679 -2.89602,-0.29167 -5.70819,1.1423 -8.55857,1.73164 -7.33573,1.51674 -5.99236,1.24865 -12.901,2.89161 -2.76117,1.42109 -5.86851,0.70504 -8.74631,1.35459 -1.94888,0.43988 -3.75962,1.39775 -5.71579,1.80399 -1.19292,0.24773 -2.43519,0.19494 -3.65239,0.14147 -0.89709,-0.0394 -1.84187,-0.78645 -2.66111,-0.4188 -4.15442,1.86441 -7.85879,4.60222 -11.78818,6.90332 -2.66118,-1.11288 -5.12192,0.73373 -7.86808,-0.0414 -0.64854,-0.18304 -1.0722,-1.00003 -1.7458,-1.01939 -6.55755,-0.1885 -2.30086,2.19296 -5.84478,-0.26352 -0.13435,0.0258 -6.55039,1.2466 -6.86158,1.34986 -1.25509,0.41649 -2.38568,1.14791 -3.61847,1.6264 -0.60465,0.23468 -3.10154,0.93072 -3.40792,0.68273 -0.33545,-0.27151 -0.0759,-0.85978 -0.11379,-1.28967 -2.1666,0.74608 -4.33319,1.49216 -6.49979,2.23823 -0.35702,-0.8403 -0.16312,-2.42491 -1.07106,-2.5209 -2.77984,-0.2939 -5.68041,2.6502 -8.24412,1.53606 -1.74525,-0.75846 0.41973,-4.46553 -1.10785,-5.60028 -2.36225,-1.75478 -5.91579,-0.62696 -8.67002,-1.66315 -2.50121,-0.94099 -4.56328,-2.78255 -6.84492,-4.17382 -22.7825,-0.4047 -5.90019,1.76393 -22.88144,-4.31819 -3.33469,-1.19437 -6.77717,-2.11298 -10.25503,-2.78468 -14.63555,-2.82665 -7.22914,1.72369 -15.91051,-5.30599 0,0 42.13207,-28.78362 42.13207,-28.78362 l 0,0 c 2.03263,1.06207 3.95735,2.36304 6.09791,3.18621 2.91947,1.1227 6.03613,1.65252 9.00951,2.62348 3.14152,1.02587 6.1838,2.34073 9.32615,3.36406 15.43552,5.02671 5.30224,0.43388 18.42636,7.22491 30.20699,6.29931 -15.72753,-2.13162 23.56785,0.10318 1.87026,0.10637 2.88629,3.03505 4.759,2.98906 3.63798,-0.0893 6.75317,-3.55675 10.38697,-3.36101 1.42554,0.0768 -1.29654,2.54384 -1.94482,3.81576 0.53776,0.004 1.07552,0.007 1.61328,0.0106 -0.98766,1.01738 -4.24818,3.65107 -2.96297,3.05212 0.50648,-0.23603 10.38853,-7.42109 13.65454,-7.98463 2.70907,-0.46743 -0.7338,2.8125 1.32466,2.65924 1.97646,-0.14715 3.73367,-1.33112 5.60051,-1.99668 -1.2811,1.64698 -5.90514,5.26127 -3.8433,4.94095 4.12533,-0.6409 7.04965,-4.60575 10.96753,-6.04774 0.65416,-0.24077 -0.86429,1.89348 -0.19327,2.08223 2.34567,0.65982 7.93815,-4.26575 10.84689,-3.12146 -0.18434,0.84476 -1.3891,2.75471 -0.55302,2.53429 3.45467,-0.91076 6.07809,-3.98685 9.53176,-4.90138 0.74094,-0.19619 -0.099,2.30006 0.66123,2.2023 2.84254,-0.36551 5.12062,-2.77213 7.93606,-3.3078 0.78494,-0.14934 1.28147,0.95478 1.9222,1.43217 4.2626,-2.17403 8.52519,-4.34805 12.78778,-6.52207 3.70694,2.62393 1.49478,1.74646 7.7803,1.44812 10.4245,-0.4948 5.72411,-0.0934 18.94977,-4.07608 1.77211,-0.16409 3.13855,2.01971 4.91721,2.08006 3.31756,0.11256 6.55488,-1.05308 9.83232,-1.57962 5.04337,-0.80819 12.44003,-2.08123 17.62495,-2.59191 2.12416,-0.20921 4.31289,0.12482 6.39369,-0.35064 10.02662,-2.29102 8.67248,-4.24684 18.82211,-7.96676 1.0659,-0.39066 2.26984,-0.0532 3.40475,-0.0797 2.95448,-1.59864 9.24481,-6.03497 13.89123,-6.40288 0.63159,-0.05 1.20671,0.73632 1.81577,0.56181 2.39783,-0.68701 4.57492,-1.99031 6.83713,-3.04101 3.18793,-1.48066 6.07838,-3.79914 9.51174,-4.55234 0.94899,-0.20818 1.41302,1.33381 2.11953,2.00072 5.52078,-2.40325 17.0184,-7.91062 23.48196,-8.97644 1.97604,-0.32585 3.97789,0.93799 5.96684,0.70351 4.58987,-0.54111 13.45948,-3.92969 18.25858,-4.88083 1.06181,-0.21044 2.16489,0.0123 3.24733,0.0184 1.78243,-0.7558 3.56487,-1.51161 5.3473,-2.26742 -0.92847,1.15948 -4.20849,3.90425 -2.78543,3.47843 3.35197,-1.00301 5.865,-3.86056 9.03208,-5.34762 0.52813,-0.24797 1.36925,-0.16566 1.72502,0.29678 1.95561,2.54192 -2.75387,1.21027 1.23471,1.9145 0,0 -48.70388,35.38545 -48.70388,35.38545 z"
       inkscape:connector-curvature="0"
       clip-path="url(#clipPath1346)" />
    <path
       style="opacity:0.49137932;fill:#00baff;fill-opacity:0.49019608;stroke:#e6e6e6;stroke-width:0.1;stroke-miterlimit:4;stroke-opacity:1;stroke-dasharray:none"
       id="path1320"
       d="m 118.7774,436.5241 c 1.1539,-0.20893 2.30781,-0.41786 3.46171,-0.62679 0.56757,0.71633 0.79521,2.0407 1.70271,2.149 2.66664,0.31826 5.31249,-0.87351 7.99546,-0.99157 1.3391,-0.0589 19.28941,0.65747 19.43738,0.68454 2.92693,0.5355 5.5887,2.04475 8.38305,3.06712 10.41953,0.51994 20.56633,-4.42419 30.96987,-4.03843 2.72956,0.10121 4.93248,2.78595 7.66123,2.90729 4.81949,0.2143 9.52159,-2.07426 14.34365,-1.92881 3.22946,0.0974 6.21704,1.76183 9.32557,2.64274 5.07012,-0.0151 10.14024,-0.0302 15.21036,-0.0452 9.96994,5.50216 11.302,7.57076 23.94714,8.0523 6.45104,0.24566 12.93705,-2.36122 19.31787,-1.38072 3.08448,0.47398 4.79603,4.07742 7.56742,5.51203 8.77857,4.5442 11.26983,3.00412 21.4358,2.68005 3.51118,-0.12507 7.02236,-0.25013 10.53354,-0.3752 0.93507,1.28921 1.21275,3.84572 2.80522,3.86764 4.33303,0.0597 8.16064,-3.25406 12.47528,-3.65727 1.37053,-0.12807 2.19259,1.7907 3.51787,2.1627 6.1182,1.71735 10.21146,-1.79275 15.96202,-4.17247 -0.22345,0.99343 -1.66725,2.77278 -0.67037,2.98027 2.04952,0.42659 3.94081,-1.46775 5.99485,-1.87202 1.23199,-0.24249 2.51829,0.0865 3.76657,-0.0492 5.73817,-0.62386 3.76207,-2.38436 5.97038,0.83337 0,0 -43.56806,32.03497 -43.56806,32.03497 l 0,0 c -3.01366,-4.02228 0.064,-0.99937 -8.84593,1.40311 -7.8949,2.12878 -0.58623,-0.55177 -5.60804,-1.22676 -1.47043,-0.19764 -2.95441,0.27634 -4.43162,0.41451 -21.48979,5.1501 3.79363,-0.0145 -12.38343,1.12719 -3.03982,0.21452 -5.96966,1.94769 -8.99866,1.61343 -1.50121,-0.16566 -1.98386,-2.48741 -3.41061,-2.98284 -4.71629,-1.63773 -10.30785,0.52465 -14.73033,-2.71054 -26.30813,-6.74263 13.38213,2.74424 -21.84933,-2.63878 -3.76576,-0.57537 -7.24802,-2.3711 -10.94697,-3.28197 -4.48288,-1.10392 -9.39418,-0.79432 -13.57338,-2.75623 -3.17166,-1.48892 -4.25798,-6.33377 -7.65105,-7.2075 -5.82869,-1.50091 -12.03123,0.39346 -18.04685,0.59018 -32.46895,-8.41768 14.69984,2.59995 -24.47768,-1.79257 -21.73086,-2.43643 14.42957,-7.96241 -19.4446,-2.48262 -6.18263,1.00015 -12.13055,5.21409 -18.31202,4.20678 -2.61685,-0.42644 -1.60197,-5.05496 -2.40295,-7.58243 -6.09175,1.40853 -12.10717,3.20181 -18.27525,4.22559 -4.05356,0.67281 -8.19852,0.56594 -12.29778,0.8489 -2.902546,-0.0213 -5.84272,-0.53029 -8.707648,-0.064 -3.631221,0.59104 -6.926402,2.64213 -10.562785,3.20053 -0.870666,0.1337 -1.508904,-1.49583 -2.344957,-1.21843 -2.998636,0.99493 -5.478377,3.14868 -8.217566,4.72302 0,0 47.972916,-36.84486 47.972916,-36.84486 z"
       inkscape:connector-curvature="0"
       clip-path="url(#clipPath1342)" />
    <path
       style="opacity:0.49137932;fill:#00baff;fill-opacity:0.49019608;stroke:#e6e6e6;stroke-width:0.1;stroke-miterlimit:4;stroke-opacity:1;stroke-dasharray:none"
       id="path1322"
       d="m 40.454207,418.07089 c 0.406727,0.69431 0.585487,1.5883 1.22018,2.08293 4.316971,3.36432 8.040124,2.60479 13.657932,2.72126 4.194545,0.087 8.390736,-0.0512 12.586104,-0.0769 5.762133,-0.78495 11.471212,-2.31089 17.286399,-2.35486 4.093692,-0.031 8.063229,1.42177 12.094843,2.13266 4.325935,0.66724 8.660535,1.2805 12.977795,2.00173 4.13656,0.69104 8.1902,2.37903 12.38161,2.23473 6.17736,-0.21266 12.13994,-2.34883 18.249,-3.28924 1.7656,-0.27179 22.17895,-2.74537 25.12216,-2.59073 2.31851,0.12182 4.46494,1.27498 6.69741,1.91246 18.05217,0.0257 -1.56121,0.60743 19.41538,-2.31621 2.12853,-0.29666 4.31799,0.21912 6.44689,-0.0749 2.62908,-0.36306 5.16798,-1.21373 7.73605,-1.8837 7.1431,-1.86352 6.38228,-1.76558 13.335,-4.25824 4.43998,-1.67666 9.00613,-2.88832 13.57399,-4.12365 0.97905,-0.26477 2.05113,-0.25938 2.95766,-0.71417 2.75939,-1.38436 5.29787,-3.17099 7.94681,-4.75648 -0.76847,1.06347 -3.57652,3.51568 -2.3054,3.19043 2.80014,-0.7165 4.85241,-3.15773 7.41351,-4.49749 3.34153,-1.74803 1.23465,0.2027 4.34493,-0.58035 2.74174,-0.69028 6.03765,-4.51338 8.08518,-2.56369 1.89636,1.80574 -2.18813,4.75811 -3.28219,7.13717 3.44458,-0.24274 6.97068,-1.51172 10.33375,-0.72822 2.02394,0.47152 2.7104,3.34377 4.60055,4.20749 5.96046,2.72367 16.43003,1.09502 21.97122,5.09232 1.32199,0.95365 1.91804,2.63619 2.87707,3.95429 4.08498,-0.91456 8.16996,-1.82911 12.25495,-2.74367 0,0 -49.14191,32.71744 -49.14191,32.71744 l 0,0 c -1.24635,-0.92801 -2.4927,-1.85601 -3.73906,-2.78402 -1.75007,-0.68313 -3.37476,-1.93939 -5.25021,-2.04937 -5.90195,-0.3461 -11.61517,3.27831 -17.16674,-0.77221 -1.63172,-1.19053 -1.17421,-4.32858 -2.94847,-5.29391 -2.62178,-1.42646 -5.92064,-0.76149 -8.88096,-1.14223 -1.61264,-0.89038 -3.22528,-1.78076 -4.83791,-2.67115 -8.24242,0.30202 -3.98241,-0.67714 -12.52991,3.86776 -1.36911,0.18849 4.1403,-3.00812 2.76089,-3.09313 -5.74798,-0.35427 -5.87253,5.96106 -4.20709,1.14057 0.17232,-0.49875 0.20097,-1.03604 0.30145,-1.55406 -3.64774,2.36091 -7.12123,5.01579 -10.94322,7.08275 -0.47501,0.25688 -1.05411,-0.3594 -1.59129,-0.30402 -1.06271,0.10958 -2.05857,0.58078 -3.10655,0.7884 -0.8024,0.15897 -1.66942,0.0197 -2.4344,0.30936 -4.10355,1.55404 -7.72163,4.25985 -12.05908,5.27881 -1.28659,0.0571 -2.57317,0.11416 -3.85976,0.17124 0.0372,-1.17528 1.28725,-3.54877 0.11162,-3.52582 -3.77366,0.0737 -7.05987,2.69996 -10.69029,3.7324 -3.19617,0.90894 -6.48472,1.46011 -9.74924,2.08028 -11.81652,2.24481 -7.33371,2.23723 -17.28289,0.40719 -15.71955,-3.98638 3.80805,0.0274 -19.52658,0.0756 -3.06072,0.006 -5.94756,-1.69753 -9.00704,-1.78476 -5.086782,-0.14502 -10.138927,1.02457 -15.227299,1.09385 -10.581006,0.14405 -17.568612,-1.06874 -27.946496,-2.35684 -8.234866,-0.55204 -19.497735,-1.60411 -27.759055,-0.95638 -5.287965,0.4146 -10.471319,1.71751 -15.735815,2.36525 -3.81335,0.46919 -7.692208,0.36565 -11.4842506,0.98386 -5.6584148,0.92249 -11.0696976,3.05425 -16.7480144,3.91431 0,0 50.700787,-36.83628 50.700787,-36.83628 z"
       inkscape:connector-curvature="0"
       clip-path="url(#clipPath1338)" />
    <path
       style="opacity:0.49137932;fill:#00baff;fill-opacity:0.49019608;stroke:#e6e6e6;stroke-width:0.1;stroke-miterlimit:4;stroke-opacity:1;stroke-dasharray:none"
       id="path1324"
       d="m 208.79676,441.50756 c 0.53804,-0.10877 1.07189,-0.41181 1.61411,-0.32631 0.37163,0.0586 0.58049,0.47876 0.87074,0.71813 1.02301,0.10194 2.041,0.31524 3.06903,0.3058 2.05704,-0.0189 4.10404,-0.48457 6.15901,-0.39047 1.85587,0.085 3.64537,1.08407 5.49629,0.92415 3.6645,-0.3166 7.1903,-1.55391 10.78545,-2.33086 16.35342,0.6008 -1.81165,0.89861 23.23028,-5.49623 2.56867,-0.65595 5.40128,0.48418 7.94946,-0.24735 5.16709,-1.48337 9.73457,-4.63572 14.84719,-6.29713 2.1968,-0.71387 4.59146,-0.51049 6.8872,-0.76573 4.64689,-2.17781 9.29379,-4.35562 13.94068,-6.53343 3.96769,-2.07706 8.65014,-1.48399 12.77205,-2.929 2.7375,-0.95969 5.26398,-2.44174 7.93392,-3.57591 2.18209,-0.92694 4.38282,-1.81512 6.61796,-2.60561 6.70466,-2.37119 7.54509,-2.32677 14.62357,-3.90361 31.81094,-7.31874 -9.9102,1.3794 18.16577,-1.8986 5.24566,-0.61245 10.26656,-3.57497 15.52982,-3.13896 2.78048,0.23033 4.1599,3.88604 6.72539,4.98258 4.11481,1.75875 8.68938,2.15716 12.9769,3.43856 4.56069,1.36305 9.03697,2.99409 13.55545,4.49113 7.80589,1.20141 23.45476,2.9777 31.13461,6.44744 9.28689,4.19581 6.93205,9.05264 17.64869,10.61268 6.08478,0.88577 23.72174,-1.9572 29.55949,-2.75376 3.51388,-0.0538 7.02776,-0.10759 10.54163,-0.16139 0.75446,1.60914 0.50592,4.56302 2.26336,4.82742 3.80276,0.57209 7.38054,-2.284 11.19085,-2.80335 1.42557,-0.1943 2.88562,1.12453 4.25951,0.69746 3.63153,-1.12886 6.77056,-3.46544 10.16448,-5.18116 1.42839,-0.72209 2.86816,-1.42144 4.30225,-2.13217 -119.77434,43.56933 -49.42614,30.6879 -37.95354,21.7013 0.71799,-0.56241 -3.05764,0.85168 -2.73609,-0.002 0.56344,-1.49549 2.42274,-2.12419 3.82552,-2.8898 55.44152,-30.25907 34.23039,-29.61738 62.18767,-28.83522 24.83854,0.96279 -11.73501,0.35949 24.75409,-3.28604 32.04515,-3.20155 -26.49018,10.62949 21.77412,-2.37908 0,0 -41.41198,31.01923 -41.41198,31.01923 l 0,0 c -3.05651,0.10674 -6.13793,-0.0835 -9.16953,0.32022 -4.66283,0.621 -9.20091,1.98108 -13.84254,2.74452 -10.60724,1.74464 -13.05054,1.65995 -23.14875,2.26701 -2.62031,0.30621 -10.04884,2.39267 -7.86093,0.91862 13.46466,-9.07151 28.47278,-15.63574 42.31011,-24.12795 2.39365,-1.46903 -5.40409,1.66027 -7.87531,2.9947 -1.7221,0.92992 -1.97911,3.58741 -3.65868,4.59211 -17.08364,10.21925 -34.52727,19.82429 -51.79091,29.73643 -12.51278,4.30816 0.9116,0.68324 -7.72075,0.86143 -2.39043,0.0494 -4.91584,1.95737 -7.10372,0.99314 -1.48886,-0.65615 0.31045,-4.56941 -1.31119,-4.70167 -8.84651,-0.72155 -17.05252,7.35123 -26.31149,4.09128 -3.08057,-0.76549 -6.08858,-1.93088 -9.24171,-2.29648 -4.47442,-0.51878 -10.26665,2.78557 -13.50887,-0.34134 -2.7787,-2.67988 4.51952,-9.52588 1.21258,-11.51764 -5.42712,-3.26874 -12.70354,1.60423 -18.98915,0.81086 -4.54799,-0.57405 -8.58339,-3.22185 -12.87508,-4.83278 -6.37077,-0.29348 -12.74154,-0.58695 -19.11232,-0.88043 -4.86449,-1.17965 -9.83386,-1.98946 -14.59347,-3.53896 -2.43773,-0.79361 -15.88979,-7.67479 -19.57997,-7.49372 -5.45514,0.26767 -10.58448,2.6999 -15.87672,4.04984 -2.31512,-0.25372 -4.61716,-0.82149 -6.94535,-0.76116 -2.59479,0.0673 -5.13531,0.76051 -7.70297,1.14077 -3.39606,1.3824 -6.7082,2.99222 -10.18818,4.14721 -4.87683,1.61859 -5.12994,-0.12873 -10.00954,2.26534 -4.70619,2.30901 -8.69179,6.10702 -13.64897,7.81175 -0.93727,0.32232 -0.39709,-1.94209 -0.59564,-2.91314 -5.22312,2.73814 -10.44625,5.47629 -15.66938,8.21443 -11.62833,-0.0193 1.4758,-0.50811 -15.00197,2.76 -2.51101,0.49802 -5.17695,-0.009 -7.653,0.64071 -4.98052,1.30734 -9.61593,3.71684 -14.55068,5.18754 -7.82023,2.33065 -16.08024,2.97486 -23.8441,5.54521 -3.74751,0.75871 -7.52467,1.38338 -11.24253,2.27614 -6.71614,1.61271 -11.70696,4.19985 -18.47439,3.76017 -0.77697,-0.0505 -1.33289,-0.94805 -2.10956,-1.00291 -0.94531,-0.0668 -2.1477,1.37708 -2.76564,0.6586 -0.5589,-0.64982 1.06842,-1.34053 1.60264,-2.0108 0,0 43.59273,-31.67197 43.59273,-31.67197 z"
       inkscape:connector-curvature="0"
       clip-path="url(#clipPath1334)" />
    <path
       style="opacity:0.49137932;fill:#00baff;fill-opacity:0.49019608;stroke:#e6e6e6;stroke-width:0.1;stroke-miterlimit:4;stroke-opacity:1;stroke-dasharray:none"
       id="path1326"
       d="m 59.917399,438.94906 c 2.110397,1.88337 1.3497,1.62115 5.992936,1.28796 3.733627,-0.26793 7.402173,-1.68048 11.137436,-1.43643 3.300876,0.21568 6.338785,1.89571 9.524514,2.78646 4.46483,1.24839 8.827919,3.03822 13.425989,3.63062 7.158576,0.92227 14.423386,0.59099 21.635076,0.88648 7.22629,0.89951 14.45257,1.79902 21.67886,2.69853 9.13049,-0.0436 18.32338,-1.19735 27.39146,-0.13073 6.96827,0.81964 13.25809,5.18262 20.25263,5.73482 10.15989,0.80209 20.34555,-1.24596 30.52573,-1.72602 19.94286,-0.94043 39.90218,-1.4913 59.85314,-2.24047 6.01777,0.83711 41.30442,5.99282 47.6259,5.89788 10.04853,-0.15092 19.9221,-2.89169 29.96062,-3.36491 7.32978,-0.34553 14.65681,0.93281 21.99471,0.9157 39.46353,-0.0921 8.30665,-2.72467 40.02655,0.8343 6.532,-0.9739 13.06399,-1.9478 19.59599,-2.92169 4.41801,-0.28561 8.86133,-0.30485 13.25402,-0.85682 4.27148,-0.53674 8.38468,-2.37452 12.68965,-2.40316 1.60034,-0.0106 2.62154,2.37956 4.21944,2.29066 11.97038,-3.60382 6.71049,-2.96228 15.55089,-3.29728 2.34064,-0.71428 4.60771,-1.74236 7.02191,-2.14284 1.40765,-0.2335 2.88699,0.61179 4.27216,0.26933 4.37936,-1.0827 8.28319,-4.01139 12.76973,-4.48255 2.14726,-0.2255 3.81702,2.68774 5.96914,2.51466 30.19504,-2.42835 7.02073,-7.78449 27.482,-1.44954 9.08219,-1.56967 18.19217,0.8675 27.26434,0.31908 4.79769,-0.29003 9.48141,-1.63732 14.26541,-2.10134 5.55012,-2.85128 10.7734,1.08625 16.16208,0.83487 3.09274,-0.14427 6.07758,-1.18591 9.11637,-1.77887 10.51812,3.76723 -5.38251,-1.02954 13.97257,-1.6415 1.38543,-0.0438 1.84438,2.37442 3.20225,2.65282 15.0854,3.09289 3.38128,-4.07842 13.11108,3.04487 0,0 -35.64694,25.89385 -35.64694,25.89385 l 0,0 c -2.90398,-0.0613 -5.81114,-0.0349 -8.71194,-0.18378 -2.48966,-0.12782 -4.98404,-1.00596 -7.45085,-0.64603 -3.97592,0.58013 -7.57815,3.96651 -11.5588,3.41974 -1.64104,-0.22541 0.64208,-3.25009 0.96311,-4.87513 -3.77891,1.30899 -7.55783,2.61798 -11.33674,3.92698 -1.63305,-0.42329 -3.28737,-0.77172 -4.89916,-1.26988 -1.81453,-0.56082 -3.47192,-1.84107 -5.3701,-1.90408 -3.73354,-0.12393 -7.39097,1.2287 -11.12437,1.35658 -3.50406,0.12001 -6.99957,-0.42177 -10.50031,-0.61592 -17.7607,-0.985 -8.68373,-1.07444 -29.26746,1.25331 -6.11099,1.17931 -12.12216,3.13703 -18.33298,3.53794 -3.10436,0.20038 -6.05364,-1.74601 -9.1644,-1.76298 -3.75142,-0.0205 -7.39692,1.3071 -11.13249,1.65223 -2.0752,0.19173 -4.21269,-0.47582 -6.25194,-0.0461 -5.62296,1.18495 -10.5581,4.76727 -16.33914,5.49811 -6.29664,-3.78105 -0.95396,-1.54185 -13.12722,0.79478 -3.12422,0.59968 -6.315,0.77612 -9.47249,1.16418 -1.63322,-1.08675 -2.94243,-3.12719 -4.89965,-3.26026 -4.94015,-0.33589 -9.81954,1.28379 -14.72931,1.92569 -4.29866,-0.64989 -8.59732,-1.29977 -12.89598,-1.94965 -3.32371,-0.4441 -33.14236,-4.49702 -35.07111,-4.44444 -9.46874,0.25812 -18.7344,4.11312 -28.19125,3.57307 -5.97438,-0.34117 -10.92616,-5.43157 -16.86746,-6.14622 -15.5748,-1.8734 -48.44733,3.16102 -62.51347,4.85036 -19.20583,-1.85509 -32.85339,-3.72971 -52.2449,-3.33958 -10.34315,0.20808 -20.66323,2.88644 -30.97087,2.00522 -6.80912,-0.58213 -12.68555,-5.85035 -19.50333,-6.32037 -18.61373,-1.28325 -37.17825,6.87414 -55.926523,2.29865 -5.36879,-1.58513 -10.549208,-4.08122 -16.106368,-4.75539 -15.149576,-1.83785 -21.763798,1.77235 -36.382209,3.53833 -3.133287,0.37852 -6.378541,-0.43458 -9.465606,0.22177 -26.83202865,5.70485 -3.409431,3.48518 -13.754705,4.3513 0,0 47.30238,-34.36719 47.30238,-34.36719 z"
       inkscape:connector-curvature="0"
       clip-path="url(#clipPath1330)" />
  </g>
</svg>
